<svg width="165" height="55" viewBox="0 0 165 55" fill="none" xmlns="http://www.w3.org/2000/svg">
<g clip-path="url(#clip0_107_288)">
<path d="M151.86 5.66797e-05H13.147C12.6414 5.66797e-05 12.1418 5.66798e-05 11.6375 0.00280668C11.2154 0.00555668 10.7966 0.0135454 10.3704 0.0202692C9.44452 0.0311342 8.52081 0.112362 7.60731 0.263245C6.69509 0.417414 5.81144 0.708066 4.98626 1.12537C4.16209 1.54621 3.40902 2.09304 2.75437 2.74603C2.09628 3.39718 1.54772 4.14983 1.12977 4.97503C0.710665 5.79858 0.420057 6.6811 0.267981 7.59209C0.11446 8.50194 0.0318494 9.42227 0.0208897 10.3448C0.00809391 10.7664 0.00674263 11.1894 0 11.611V43.3931C0.00674263 43.8201 0.00809391 44.2337 0.0208897 44.6607C0.0318528 45.5833 0.114464 46.5036 0.267981 47.4134C0.419637 48.3249 0.710262 49.2079 1.12977 50.0318C1.54753 50.8543 2.09617 51.6039 2.75437 52.2514C3.40654 52.9073 4.16009 53.4545 4.98626 53.8721C5.81144 54.2906 6.69499 54.5829 7.60731 54.7395C8.52097 54.8892 9.44458 54.9704 10.3704 54.9826C10.7966 54.9919 11.2154 54.9973 11.6375 54.9973C12.1418 55.0001 12.6414 55.0001 13.147 55.0001H151.86C152.356 55.0001 152.86 55.0001 153.355 54.9973C153.775 54.9973 154.206 54.9919 154.626 54.9826C155.55 54.9711 156.472 54.8898 157.384 54.7395C158.299 54.5818 159.186 54.2895 160.015 53.8721C160.841 53.4543 161.593 52.9071 162.245 52.2514C162.902 51.6014 163.451 50.8523 163.874 50.0318C164.291 49.2073 164.579 48.3244 164.728 47.4134C164.882 46.5034 164.967 45.5833 164.984 44.6607C164.989 44.2337 164.989 43.8201 164.989 43.3931C165 42.8936 165 42.3968 165 41.8892V13.1122C165 12.6087 165 12.1092 164.989 11.611C164.989 11.1894 164.989 10.7664 164.984 10.3448C164.967 9.42214 164.882 8.50201 164.728 7.59204C164.578 6.68157 164.29 5.79912 163.874 4.97497C163.023 3.32095 161.673 1.97459 160.015 1.12525C159.186 0.708962 158.299 0.418387 157.384 0.263122C156.472 0.111573 155.55 0.0303174 154.626 0.0200767C154.206 0.0133667 153.775 0.00530918 153.355 0.00262793C152.86 -0.00012207 152.356 -0.00012207 151.86 -0.00012207V5.66797e-05Z" fill="#A6A6A6"/>
<path d="M11.6441 53.7969C11.224 53.7969 10.814 53.7915 10.3972 53.7822C9.53374 53.7709 8.67229 53.696 7.81992 53.5579C7.02513 53.4214 6.2552 53.1675 5.53551 52.8045C4.82242 52.4446 4.17203 51.9726 3.60924 51.4067C3.03831 50.8475 2.56299 50.1988 2.2021 49.4865C1.83724 48.7696 1.58473 48.0011 1.45338 47.2079C1.31153 46.3555 1.23478 45.4937 1.2238 44.6297C1.21506 44.3398 1.20361 43.3742 1.20361 43.3742V11.611C1.20361 11.611 1.2158 10.6603 1.22387 10.381C1.23438 9.51841 1.31068 8.6579 1.45211 7.80688C1.58371 7.01147 1.83641 6.24078 2.20147 5.52149C2.56103 4.80967 3.03371 4.16056 3.6012 3.59931C4.16806 3.03273 4.82053 2.55833 5.53483 2.19341C6.25287 1.83163 7.02135 1.57951 7.81453 1.4455C8.66969 1.30602 9.53413 1.23062 10.4006 1.21991L11.6448 1.20312H153.348L154.607 1.22059C155.466 1.23076 156.322 1.30549 157.17 1.44415C157.971 1.57984 158.747 1.83372 159.474 2.19744C160.905 2.93286 162.069 4.09635 162.804 5.52485C163.163 6.23917 163.412 7.00357 163.542 7.79211C163.685 8.65011 163.765 9.51739 163.781 10.387C163.785 10.7764 163.785 11.1947 163.785 11.611C163.796 12.1266 163.796 12.6174 163.796 13.1122V41.8891C163.796 42.3886 163.796 42.8761 163.785 43.3675C163.785 43.8147 163.785 44.2243 163.78 44.6458C163.764 45.5 163.685 46.3517 163.544 47.1944C163.416 47.9934 163.164 48.7678 162.8 49.4906C162.436 50.1952 161.964 50.8382 161.399 51.396C160.836 51.9649 160.184 52.4397 159.47 52.8019C158.745 53.1677 157.97 53.4225 157.17 53.5579C156.317 53.6967 155.456 53.7717 154.592 53.7822C154.188 53.7915 153.766 53.7969 153.355 53.7969L151.86 53.7996L11.6441 53.7969Z" fill="black"/>
<path d="M34.1529 27.9134C34.1678 26.7658 34.4735 25.6405 35.0416 24.6423C35.6097 23.6441 36.4218 22.8054 37.4023 22.2043C36.7794 21.3172 35.9577 20.5872 35.0024 20.0722C34.0471 19.5572 32.9845 19.2714 31.899 19.2375C29.5836 18.9952 27.3389 20.6192 26.159 20.6192C24.9563 20.6192 23.1396 19.2616 21.1834 19.3017C19.918 19.3425 18.6849 19.7094 17.604 20.3667C16.5231 21.0241 15.6315 21.9494 15.0158 23.0525C12.3491 27.6566 14.3383 34.4231 16.8928 38.1446C18.1708 39.967 19.6645 42.0026 21.619 41.9304C23.5315 41.8513 24.2458 40.7143 26.5545 40.7143C28.8417 40.7143 29.5118 41.9304 31.506 41.8845C33.5582 41.8513 34.8512 40.0541 36.0845 38.2145C37.0028 36.916 37.7094 35.4809 38.1782 33.9623C36.9858 33.4594 35.9684 32.6176 35.2526 31.542C34.5368 30.4663 34.1543 29.2044 34.1529 27.9134Z" fill="white"/>
<path d="M30.3862 16.79C31.5052 15.4504 32.0565 13.7287 31.923 11.9904C30.2134 12.1694 28.6343 12.9842 27.5002 14.2723C26.9457 14.9016 26.521 15.6337 26.2504 16.4268C25.9798 17.2198 25.8686 18.0583 25.9232 18.8942C26.7782 18.903 27.6242 18.7182 28.3973 18.3537C29.1703 17.9892 29.8504 17.4545 30.3862 16.79Z" fill="white"/>
<path d="M58.3292 37.317H51.8025L50.2352 41.9321H47.4707L53.6527 24.8574H56.5249L62.7068 41.9321H59.8952L58.3292 37.317ZM52.4785 35.1874H57.652L55.1016 27.6974H55.0302L52.4785 35.1874Z" fill="white"/>
<path d="M76.0577 35.7084C76.0577 39.5769 73.9814 42.0624 70.848 42.0624C70.0542 42.1038 69.2648 41.9214 68.5702 41.5362C67.8755 41.1511 67.3037 40.5786 66.9201 39.8844H66.8608V46.0504H64.2983V29.4833H66.7787V31.5538H66.8258C67.227 30.8629 67.8085 30.2934 68.5085 29.9059C69.2084 29.5183 70.0007 29.3273 70.8008 29.353C73.9692 29.353 76.0577 31.8506 76.0577 35.7084ZM73.4239 35.7084C73.4239 33.188 72.1177 31.531 70.1249 31.531C68.167 31.531 66.8501 33.2229 66.8501 35.7084C66.8501 38.2167 68.167 39.8965 70.1249 39.8965C72.1178 39.8965 73.4239 38.2516 73.4239 35.7084Z" fill="white"/>
<path d="M89.798 35.7084C89.798 39.5769 87.7216 42.0623 84.5882 42.0623C83.7945 42.1038 83.0051 41.9214 82.3104 41.5362C81.6157 41.151 81.0439 40.5786 80.6603 39.8843H80.601V46.0504H78.0386V29.4832H80.5189V31.5538H80.566C80.9672 30.8629 81.5487 30.2934 82.2487 29.9059C82.9486 29.5183 83.7408 29.3273 84.541 29.353C87.7095 29.353 89.798 31.8506 89.798 35.7084ZM87.1641 35.7084C87.1641 33.188 85.858 31.531 83.8651 31.531C81.9072 31.531 80.5903 33.2229 80.5903 35.7084C80.5903 38.2167 81.9072 39.8965 83.8651 39.8965C85.858 39.8965 87.1641 38.2516 87.1641 35.7084H87.1641Z" fill="white"/>
<path d="M98.879 37.1747C99.0688 38.8679 100.718 39.9797 102.972 39.9797C105.132 39.9797 106.686 38.8678 106.686 37.3411C106.686 36.0158 105.749 35.2222 103.53 34.6784L101.311 34.1453C98.1667 33.388 96.707 31.9217 96.707 29.5423C96.707 26.5962 99.2816 24.5727 102.937 24.5727C106.556 24.5727 109.036 26.5962 109.119 29.5423H106.533C106.378 27.8383 104.965 26.8097 102.901 26.8097C100.837 26.8097 99.4243 27.8504 99.4243 29.365C99.4243 30.5722 100.326 31.2825 102.533 31.8263L104.42 32.2882C107.933 33.1167 109.393 34.5239 109.393 37.0215C109.393 40.2159 106.841 42.2167 102.783 42.2167C98.9853 42.2167 96.4215 40.2629 96.2559 37.1745L98.879 37.1747Z" fill="white"/>
<path d="M114.923 26.5372V29.4832H117.297V31.5068H114.923V38.3697C114.923 39.4359 115.398 39.9327 116.442 39.9327C116.724 39.9278 117.005 39.9081 117.285 39.8736V41.8851C116.816 41.9725 116.339 42.0121 115.861 42.0032C113.334 42.0032 112.348 41.0566 112.348 38.6423V31.5068H110.533V29.4832H112.348V26.5372H114.923Z" fill="white"/>
<path d="M118.672 35.7084C118.672 31.7915 120.985 29.3302 124.593 29.3302C128.212 29.3302 130.515 31.7915 130.515 35.7084C130.515 39.636 128.224 42.0865 124.593 42.0865C120.962 42.0865 118.672 39.636 118.672 35.7084ZM127.904 35.7084C127.904 33.0215 126.669 31.4357 124.593 31.4357C122.516 31.4357 121.283 33.0336 121.283 35.7084C121.283 38.406 122.516 39.9797 124.593 39.9797C126.669 39.9797 127.904 38.406 127.904 35.7084H127.904Z" fill="white"/>
<path d="M132.627 29.4833H135.071V31.6021H135.131C135.296 30.9404 135.685 30.3555 136.232 29.9459C136.779 29.5364 137.45 29.327 138.134 29.353C138.429 29.352 138.723 29.3839 139.011 29.4483V31.8385C138.639 31.7249 138.25 31.6727 137.86 31.6841C137.488 31.669 137.117 31.7345 136.772 31.8759C136.428 32.0174 136.118 32.2315 135.864 32.5036C135.611 32.7757 135.419 33.0993 135.303 33.4523C135.186 33.8052 135.148 34.179 135.19 34.5482V41.9321H132.627L132.627 29.4833Z" fill="white"/>
<path d="M150.826 38.2757C150.481 40.5356 148.274 42.0865 145.451 42.0865C141.819 42.0865 139.565 39.6601 139.565 35.7674C139.565 31.8626 141.831 29.3302 145.343 29.3302C148.797 29.3302 150.969 31.6961 150.969 35.4707V36.3462H142.152V36.5006C142.111 36.9587 142.168 37.4203 142.32 37.8545C142.472 38.2888 142.715 38.6859 143.033 39.0194C143.35 39.3529 143.736 39.6152 144.163 39.7889C144.59 39.9625 145.049 40.0436 145.51 40.0267C146.115 40.0833 146.723 39.9434 147.243 39.6279C147.762 39.3125 148.165 38.8382 148.393 38.2757L150.826 38.2757ZM142.164 34.5603H148.405C148.428 34.1483 148.365 33.7361 148.221 33.3494C148.077 32.9628 147.854 32.61 147.566 32.3133C147.279 32.0167 146.933 31.7825 146.55 31.6254C146.168 31.4684 145.757 31.3919 145.343 31.4007C144.926 31.3982 144.512 31.4782 144.126 31.636C143.74 31.7937 143.389 32.0262 143.093 32.3199C142.798 32.6137 142.563 32.9629 142.404 33.3474C142.244 33.7319 142.163 34.1442 142.164 34.5603V34.5603Z" fill="white"/>
<path d="M52.1569 12.0051C52.6941 11.9667 53.2332 12.0476 53.7352 12.2421C54.2373 12.4366 54.6898 12.7397 55.0602 13.1297C55.4305 13.5197 55.7094 13.9868 55.8768 14.4973C56.0442 15.0078 56.0959 15.549 56.0282 16.0818C56.0282 18.7029 54.6076 20.2095 52.1569 20.2095H49.1851V12.0051H52.1569ZM50.4629 19.0493H52.0141C52.398 19.0721 52.7822 19.0094 53.1387 18.8655C53.4952 18.7217 53.815 18.5004 54.0749 18.2177C54.3348 17.9351 54.5282 17.5982 54.6411 17.2316C54.754 16.865 54.7835 16.4779 54.7274 16.0985C54.7794 15.7206 54.7469 15.3359 54.6323 14.972C54.5177 14.6081 54.3238 14.274 54.0645 13.9936C53.8052 13.7132 53.4869 13.4934 53.1324 13.3501C52.7779 13.2068 52.3961 13.1434 52.0141 13.1645H50.4629V19.0493Z" fill="white"/>
<path d="M57.4719 17.111C57.4328 16.7041 57.4795 16.2936 57.6089 15.9057C57.7383 15.5179 57.9475 15.1613 58.2232 14.8588C58.4989 14.5563 58.835 14.3147 59.2098 14.1493C59.5847 13.9839 59.99 13.8985 60.3999 13.8985C60.8098 13.8985 61.2152 13.9839 61.59 14.1493C61.9649 14.3147 62.3009 14.5563 62.5766 14.8588C62.8523 15.1613 63.0615 15.5179 63.1909 15.9057C63.3203 16.2936 63.367 16.7041 63.328 17.111C63.3677 17.5183 63.3216 17.9294 63.1926 18.3179C63.0635 18.7063 62.8544 19.0636 62.5786 19.3667C62.3029 19.6697 61.9666 19.9119 61.5914 20.0776C61.2161 20.2434 60.8103 20.329 60.3999 20.329C59.9895 20.329 59.5837 20.2434 59.2085 20.0776C58.8333 19.9119 58.497 19.6697 58.2212 19.3667C57.9454 19.0636 57.7363 18.7063 57.6073 18.3179C57.4782 17.9294 57.4321 17.5183 57.4719 17.111ZM62.0676 17.111C62.0676 15.7689 61.463 14.984 60.4019 14.984C59.3368 14.984 58.7377 15.7689 58.7377 17.111C58.7377 18.4639 59.3369 19.2427 60.4019 19.2427C61.463 19.2426 62.0676 18.4585 62.0676 17.111H62.0676Z" fill="white"/>
<path d="M71.1121 20.2094H69.841L68.5577 15.6493H68.4608L67.1829 20.2094H65.9239L64.2124 14.0179H65.4553L66.5675 18.7424H66.6591L67.9356 14.0179H69.1111L70.3877 18.7424H70.4846L71.5915 14.0179H72.8168L71.1121 20.2094Z" fill="white"/>
<path d="M74.2564 14.0179H75.4359V15.0015H75.5275C75.6828 14.6482 75.9448 14.3521 76.2769 14.1543C76.6091 13.9566 76.9948 13.8671 77.3803 13.8984C77.6824 13.8757 77.9858 13.9211 78.2679 14.0313C78.55 14.1414 78.8037 14.3134 79.01 14.5346C79.2164 14.7557 79.3703 15.0204 79.4602 15.3089C79.5501 15.5974 79.5738 15.9024 79.5294 16.2012V20.2093H78.3041V16.5081C78.3041 15.5131 77.8705 15.0183 76.9643 15.0183C76.7591 15.0087 76.5544 15.0435 76.364 15.1203C76.1737 15.1971 76.0022 15.314 75.8614 15.463C75.7206 15.612 75.6137 15.7897 75.5482 15.9837C75.4827 16.1778 75.46 16.3837 75.4817 16.5873V20.2094H74.2563L74.2564 14.0179Z" fill="white"/>
<path d="M81.4819 11.6009H82.7073V20.2094H81.4819V11.6009Z" fill="white"/>
<path d="M84.4108 17.111C84.3718 16.7041 84.4185 16.2935 84.5479 15.9057C84.6773 15.5178 84.8866 15.1612 85.1623 14.8587C85.4381 14.5562 85.7741 14.3145 86.149 14.1492C86.5239 13.9838 86.9293 13.8983 87.3392 13.8983C87.7491 13.8983 88.1545 13.9838 88.5294 14.1492C88.9042 14.3145 89.2403 14.5562 89.516 14.8587C89.7917 15.1612 90.001 15.5178 90.1305 15.9057C90.2599 16.2935 90.3066 16.7041 90.2676 17.111C90.3073 17.5183 90.2611 17.9294 90.1321 18.3179C90.003 18.7063 89.7938 19.0636 89.518 19.3667C89.2422 19.6697 88.9059 19.9119 88.5307 20.0776C88.1554 20.2433 87.7496 20.329 87.3392 20.329C86.9288 20.329 86.5229 20.2433 86.1477 20.0776C85.7725 19.9119 85.4362 19.6697 85.1604 19.3667C84.8846 19.0636 84.6754 18.7063 84.5463 18.3179C84.4172 17.9294 84.3711 17.5183 84.4108 17.111ZM89.0065 17.111C89.0065 15.7689 88.4019 14.984 87.3409 14.984C86.2758 14.984 85.6766 15.7689 85.6766 17.111C85.6766 18.4638 86.2758 19.2426 87.3409 19.2426C88.4019 19.2426 89.0065 18.4585 89.0065 17.111H89.0065Z" fill="white"/>
<path d="M91.5576 18.4585C91.5576 17.344 92.3898 16.7014 93.8669 16.6101L95.5488 16.5135V15.979C95.5488 15.3251 95.1152 14.9558 94.2776 14.9558C93.5936 14.9558 93.1196 15.2063 92.9836 15.644H91.7973C91.9225 14.5805 92.9257 13.8984 94.3342 13.8984C95.8908 13.8984 96.7687 14.6712 96.7687 15.979V20.2094H95.5892V19.3393H95.4922C95.2954 19.6514 95.0191 19.9059 94.6915 20.0767C94.3638 20.2475 93.9966 20.3285 93.6273 20.3114C93.3666 20.3385 93.1032 20.3108 92.8539 20.23C92.6047 20.1493 92.3752 20.0174 92.1802 19.8429C91.9852 19.6683 91.829 19.4549 91.7218 19.2164C91.6146 18.978 91.5586 18.7198 91.5576 18.4585ZM95.5488 17.9294V17.4118L94.0326 17.5084C93.1775 17.5655 92.7897 17.8555 92.7897 18.4014C92.7897 18.9586 93.2744 19.2829 93.941 19.2829C94.1363 19.3026 94.3336 19.283 94.5212 19.2251C94.7087 19.1672 94.8826 19.0723 95.0326 18.946C95.1826 18.8197 95.3056 18.6647 95.3943 18.49C95.483 18.3154 95.5355 18.1247 95.5488 17.9294Z" fill="white"/>
<path d="M98.3789 17.111C98.3789 15.1546 99.3875 13.9152 100.956 13.9152C101.344 13.8974 101.729 13.99 102.066 14.1824C102.404 14.3747 102.679 14.6588 102.86 15.0014H102.952V11.6009H104.177V20.2094H103.003V19.2312H102.906C102.711 19.5715 102.426 19.852 102.082 20.0425C101.738 20.2329 101.349 20.3259 100.956 20.3114C99.3767 20.3115 98.3789 19.0721 98.3789 17.111ZM99.6447 17.111C99.6447 18.4242 100.265 19.2144 101.304 19.2144C102.336 19.2144 102.975 18.4128 102.975 17.1164C102.975 15.8259 102.33 15.0129 101.304 15.0129C100.272 15.0129 99.6447 15.8085 99.6447 17.111H99.6447Z" fill="white"/>
<path d="M109.247 17.111C109.208 16.7041 109.254 16.2936 109.384 15.9057C109.513 15.5179 109.722 15.1613 109.998 14.8588C110.274 14.5563 110.61 14.3147 110.985 14.1493C111.36 13.9839 111.765 13.8985 112.175 13.8985C112.585 13.8985 112.99 13.9839 113.365 14.1493C113.74 14.3147 114.076 14.5563 114.351 14.8588C114.627 15.1613 114.836 15.5179 114.966 15.9057C115.095 16.2936 115.142 16.7041 115.103 17.111C115.143 17.5183 115.097 17.9294 114.967 18.3179C114.838 18.7063 114.629 19.0636 114.354 19.3667C114.078 19.6697 113.741 19.9119 113.366 20.0776C112.991 20.2434 112.585 20.329 112.175 20.329C111.764 20.329 111.359 20.2434 110.983 20.0776C110.608 19.9119 110.272 19.6697 109.996 19.3667C109.72 19.0636 109.511 18.7063 109.382 18.3179C109.253 17.9294 109.207 17.5183 109.247 17.111ZM113.843 17.111C113.843 15.7689 113.238 14.984 112.177 14.984C111.112 14.984 110.513 15.7689 110.513 17.111C110.513 18.4639 111.112 19.2427 112.177 19.2427C113.238 19.2426 113.843 18.4585 113.843 17.111Z" fill="white"/>
<path d="M116.747 14.0179H117.927V15.0015H118.018C118.174 14.6482 118.436 14.3521 118.768 14.1543C119.1 13.9566 119.486 13.8671 119.871 13.8984C120.173 13.8757 120.477 13.9211 120.759 14.0313C121.041 14.1414 121.294 14.3134 121.501 14.5346C121.707 14.7557 121.861 15.0204 121.951 15.3089C122.041 15.5974 122.064 15.9024 122.02 16.2012V20.2093H120.795V16.5081C120.795 15.5131 120.361 15.0183 119.455 15.0183C119.25 15.0087 119.045 15.0435 118.855 15.1203C118.664 15.1971 118.493 15.314 118.352 15.463C118.211 15.612 118.104 15.7897 118.039 15.9837C117.973 16.1778 117.951 16.3837 117.972 16.5873V20.2094H116.747V14.0179Z" fill="white"/>
<path d="M128.944 12.4764V14.0461H130.29V15.0754H128.944V18.2591C128.944 18.9076 129.212 19.1916 129.822 19.1916C129.978 19.1911 130.134 19.1817 130.29 19.1634V20.1812C130.069 20.2205 129.846 20.2414 129.623 20.2437C128.26 20.2437 127.718 19.7656 127.718 18.5719V15.0753H126.732V14.0461H127.718V12.4764H128.944Z" fill="white"/>
<path d="M131.963 11.6009H133.177V15.0129H133.274C133.437 14.6563 133.706 14.3585 134.045 14.16C134.384 13.9616 134.776 13.8721 135.168 13.9038C135.468 13.8874 135.769 13.9375 136.047 14.0503C136.326 14.1631 136.577 14.3359 136.781 14.5564C136.985 14.7768 137.138 15.0395 137.229 15.3257C137.32 15.6119 137.346 15.9145 137.306 16.212V20.2094H136.079V16.5134C136.079 15.5245 135.617 15.0236 134.752 15.0236C134.541 15.0064 134.329 15.0353 134.131 15.1082C133.933 15.1812 133.753 15.2964 133.604 15.4459C133.455 15.5954 133.341 15.7756 133.269 15.9738C133.197 16.172 133.17 16.3834 133.188 16.5933V20.2094H131.963L131.963 11.6009Z" fill="white"/>
<path d="M144.451 18.5377C144.284 19.1035 143.924 19.593 143.432 19.9205C142.94 20.2479 142.348 20.3925 141.76 20.3289C141.351 20.3397 140.945 20.2616 140.569 20.1C140.193 19.9384 139.857 19.6972 139.584 19.3931C139.312 19.089 139.108 18.7294 138.989 18.3391C138.869 17.9489 138.836 17.5374 138.892 17.1331C138.838 16.7277 138.871 16.3153 138.99 15.9238C139.11 15.5324 139.312 15.1711 139.583 14.8644C139.855 14.5577 140.189 14.3127 140.564 14.146C140.939 13.9793 141.345 13.8949 141.755 13.8984C143.483 13.8984 144.525 15.0754 144.525 17.0196V17.446H140.14V17.5145C140.121 17.7417 140.15 17.9704 140.225 18.1859C140.299 18.4015 140.418 18.5991 140.574 18.7661C140.729 18.9331 140.918 19.0658 141.129 19.1557C141.339 19.2456 141.565 19.2908 141.794 19.2882C142.087 19.3233 142.384 19.2707 142.647 19.137C142.91 19.0034 143.127 18.7947 143.271 18.5376L144.451 18.5377ZM140.14 16.5423H143.277C143.292 16.3345 143.264 16.1258 143.193 15.9295C143.123 15.7333 143.012 15.5539 142.869 15.4028C142.725 15.2518 142.551 15.1324 142.358 15.0524C142.165 14.9724 141.957 14.9336 141.748 14.9384C141.536 14.9357 141.326 14.9754 141.13 15.0551C140.933 15.1347 140.755 15.2528 140.605 15.4023C140.455 15.5518 140.337 15.7296 140.257 15.9254C140.177 16.1212 140.138 16.331 140.14 16.5423H140.14Z" fill="white"/>
</g>
<defs>
<clipPath id="clip0_107_288">
<rect width="165" height="55" fill="white"/>
</clipPath>
</defs>
</svg>
