<svg width="165" height="55" viewBox="0 0 165 55" fill="none" xmlns="http://www.w3.org/2000/svg">
<path d="M158.912 55H6.71719C3.30802 55 0.629395 51.975 0.629395 48.125V6.875C0.629395 3.025 3.30802 0 6.71719 0H158.912C162.321 0 165 3.025 165 6.875V48.125C165 51.8375 162.321 55 158.912 55Z" fill="black"/>
<path d="M158.912 1.1C161.712 1.1 164.026 3.7125 164.026 6.875V48.125C164.026 51.2875 161.712 53.9 158.912 53.9H6.71719C3.9168 53.9 1.60344 51.2875 1.60344 48.125V6.875C1.60344 3.7125 3.9168 1.1 6.71719 1.1H158.912ZM158.912 0H6.71719C3.30802 0 0.629395 3.025 0.629395 6.875V48.125C0.629395 51.975 3.30802 55 6.71719 55H158.912C162.321 55 165 51.975 165 48.125V6.875C165 3.1625 162.321 0 158.912 0Z" fill="#A7A6A6"/>
<path d="M58.3415 16.0235C58.3415 16.9988 58.098 17.8523 57.4892 18.4619C56.7587 19.1935 55.9064 19.5592 54.8106 19.5592C53.7148 19.5592 52.8625 19.1935 52.1319 18.4619C51.4014 17.7304 51.0361 16.8769 51.0361 15.7796C51.0361 14.6823 51.4014 13.8288 52.1319 13.0973C52.8625 12.3658 53.7148 12 54.8106 12C55.2976 12 55.7846 12.1219 56.2716 12.3658C56.7587 12.6096 57.1239 12.8535 57.3674 13.2192L56.7587 13.8288C56.2716 13.2192 55.6629 12.9754 54.8106 12.9754C54.08 12.9754 53.3495 13.2192 52.8625 13.8288C52.2537 14.3165 52.0102 15.0481 52.0102 15.9015C52.0102 16.755 52.2537 17.4865 52.8625 17.9742C53.4712 18.4619 54.08 18.8277 54.8106 18.8277C55.6629 18.8277 56.2716 18.5838 56.8804 17.9742C57.2457 17.6085 57.4892 17.1208 57.4892 16.5112H54.8106V15.6577H58.3415C58.3415 15.6577 58.3415 15.9015 58.3415 16.0235Z" fill="white" stroke="white" stroke-width="0.177343" stroke-miterlimit="10"/>
<path d="M63.9421 12.9754H60.6547V15.2919H63.6986V16.1454H60.6547V18.4619H63.9421V19.4373H59.6807V12.1219H63.9421V12.9754Z" fill="white" stroke="white" stroke-width="0.177343" stroke-miterlimit="10"/>
<path d="M67.9599 19.4373H66.9859V12.9754H64.916V12.1219H70.0298V12.9754H67.9599V19.4373Z" fill="white" stroke="white" stroke-width="0.177343" stroke-miterlimit="10"/>
<path d="M73.561 19.4373V12.1219H74.5351V19.4373H73.561Z" fill="white" stroke="white" stroke-width="0.177343" stroke-miterlimit="10"/>
<path d="M78.6748 19.4373H77.7007V12.9754H75.6309V12.1219H80.6228V12.9754H78.553V19.4373H78.6748Z" fill="white" stroke="white" stroke-width="0.177343" stroke-miterlimit="10"/>
<path d="M90.2416 18.4619C89.5111 19.1935 88.6588 19.5592 87.563 19.5592C86.4672 19.5592 85.6149 19.1935 84.8844 18.4619C84.1538 17.7304 83.7886 16.8769 83.7886 15.7796C83.7886 14.6823 84.1538 13.8288 84.8844 13.0973C85.6149 12.3658 86.4672 12 87.563 12C88.6588 12 89.5111 12.3658 90.2416 13.0973C90.9722 13.8288 91.3374 14.6823 91.3374 15.7796C91.3374 16.8769 90.9722 17.7304 90.2416 18.4619ZM85.6149 17.8523C86.1019 18.34 86.8325 18.7058 87.563 18.7058C88.2935 18.7058 89.0241 18.4619 89.5111 17.8523C89.9981 17.3646 90.3634 16.6331 90.3634 15.7796C90.3634 14.9262 90.1199 14.1946 89.5111 13.7069C89.0241 13.2192 88.2935 12.8535 87.563 12.8535C86.8325 12.8535 86.1019 13.0973 85.6149 13.7069C85.1279 14.1946 84.7626 14.9262 84.7626 15.7796C84.7626 16.6331 85.0061 17.3646 85.6149 17.8523Z" fill="white" stroke="white" stroke-width="0.177343" stroke-miterlimit="10"/>
<path d="M92.6768 19.4373V12.1219H93.7726L97.3035 17.8523V16.3892V12.1219H98.2775V19.4373H97.3035L93.5291 13.4631V14.9261V19.4373H92.6768Z" fill="white" stroke="white" stroke-width="0.177343" stroke-miterlimit="10"/>
<path d="M83.545 30.1664C80.6228 30.1664 78.3095 32.3611 78.3095 35.4091C78.3095 38.3353 80.6228 40.6518 83.545 40.6518C86.4671 40.6518 88.7805 38.4572 88.7805 35.4091C88.7805 32.2391 86.4671 30.1664 83.545 30.1664ZM83.545 38.4572C81.9621 38.4572 80.6228 37.1161 80.6228 35.2872C80.6228 33.4584 81.9621 32.1172 83.545 32.1172C85.1278 32.1172 86.4671 33.3364 86.4671 35.2872C86.4671 37.1161 85.1278 38.4572 83.545 38.4572ZM72.2217 30.1664C69.2995 30.1664 66.9862 32.3611 66.9862 35.4091C66.9862 38.3353 69.2995 40.6518 72.2217 40.6518C75.1438 40.6518 77.4572 38.4572 77.4572 35.4091C77.4572 32.2391 75.1438 30.1664 72.2217 30.1664ZM72.2217 38.4572C70.6389 38.4572 69.2995 37.1161 69.2995 35.2872C69.2995 33.4584 70.6389 32.1172 72.2217 32.1172C73.8045 32.1172 75.1438 33.3364 75.1438 35.2872C75.1438 37.1161 73.8045 38.4572 72.2217 38.4572ZM58.7068 31.7514V33.9461H63.9423C63.8205 35.1653 63.3335 36.1407 62.7247 36.7503C61.9942 37.4818 60.7766 38.3353 58.7068 38.3353C55.4194 38.3353 52.9843 35.7749 52.9843 32.483C52.9843 29.1911 55.5411 26.6307 58.7068 26.6307C60.4114 26.6307 61.7507 27.3622 62.7247 28.2157L64.3076 26.6307C62.9682 25.4114 61.2637 24.4361 58.8285 24.4361C54.4453 24.4361 50.6709 28.0938 50.6709 32.483C50.6709 36.8722 54.4453 40.5299 58.8285 40.5299C61.2637 40.5299 62.9682 39.7984 64.4293 38.2134C65.8904 36.7503 66.3774 34.6776 66.3774 33.0926C66.3774 32.6049 66.3774 32.1172 66.2556 31.7514H58.7068V31.7514ZM113.984 33.4584C113.497 32.2391 112.279 30.1664 109.601 30.1664C106.922 30.1664 104.73 32.2391 104.73 35.4091C104.73 38.3353 106.922 40.6518 109.844 40.6518C112.158 40.6518 113.619 39.1888 114.106 38.3353L112.401 37.1161C111.792 37.9695 111.062 38.5791 109.844 38.5791C108.627 38.5791 107.896 38.0915 107.287 36.9941L114.227 34.068L113.984 33.4584ZM106.922 35.1653C106.922 33.2145 108.505 32.1172 109.601 32.1172C110.453 32.1172 111.305 32.6049 111.549 33.2145L106.922 35.1653ZM101.2 40.1641H103.513V24.9238H101.2V40.1641ZM97.5469 31.2638C96.9381 30.6541 95.9641 30.0445 94.7465 30.0445C92.1896 30.0445 89.7545 32.3611 89.7545 35.2872C89.7545 38.2134 92.0679 40.408 94.7465 40.408C95.9641 40.408 96.9381 39.7984 97.4251 39.1888H97.5469V39.9203C97.5469 41.8711 96.4511 42.9684 94.7465 42.9684C93.4072 42.9684 92.4331 41.993 92.1896 41.1395L90.2415 41.993C90.8503 43.3341 92.3114 45.0411 94.8683 45.0411C97.5469 45.0411 99.7385 43.4561 99.7385 39.6764V30.4103H97.5469V31.2638V31.2638ZM94.8683 38.4572C93.2854 38.4572 91.9461 37.1161 91.9461 35.2872C91.9461 33.4584 93.2854 32.1172 94.8683 32.1172C96.4511 32.1172 97.6686 33.4584 97.6686 35.2872C97.6686 37.1161 96.4511 38.4572 94.8683 38.4572ZM124.577 24.9238H119.098V40.1641H121.411V34.4338H124.577C127.134 34.4338 129.569 32.6049 129.569 29.6788C129.569 26.7526 127.134 24.9238 124.577 24.9238ZM124.698 32.2391H121.411V26.9965H124.698C126.403 26.9965 127.377 28.4595 127.377 29.5568C127.255 30.898 126.281 32.2391 124.698 32.2391ZM138.7 30.0445C136.996 30.0445 135.291 30.7761 134.682 32.3611L136.752 33.2145C137.239 32.3611 137.97 32.1172 138.822 32.1172C140.04 32.1172 141.135 32.8488 141.257 34.068V34.1899C140.892 33.9461 139.918 33.5803 138.944 33.5803C136.752 33.5803 134.561 34.7995 134.561 36.9941C134.561 39.0668 136.387 40.408 138.335 40.408C139.918 40.408 140.648 39.6764 141.257 38.9449H141.379V40.1641H143.571V34.3118C143.327 31.6295 141.257 30.0445 138.7 30.0445ZM138.457 38.4572C137.726 38.4572 136.631 38.0914 136.631 37.1161C136.631 35.8968 137.97 35.5311 139.066 35.5311C140.04 35.5311 140.527 35.7749 141.135 36.0188C140.892 37.4818 139.674 38.4572 138.457 38.4572ZM151.241 30.4103L148.684 36.9941H148.563L145.884 30.4103H143.449L147.467 39.6764L145.153 44.7972H147.467L153.676 30.4103H151.241ZM130.786 40.1641H133.1V24.9238H130.786V40.1641Z" fill="white"/>
<path d="M13.2917 12.7314C12.9264 13.2191 12.8047 13.7068 12.8047 14.5603V41.3834C12.8047 42.1149 13.0482 42.7245 13.4135 43.0903L13.5352 43.2122L28.6329 28.0938V27.9718V27.8499L13.2917 12.7314Z" fill="#5AC9F4"/>
<path d="M33.5037 33.2145L28.5117 28.2157V27.9718V27.8499L33.5037 22.8511L33.6255 22.973L39.5915 26.3868C41.2961 27.3622 41.2961 28.9472 39.5915 29.9226L33.5037 33.2145Z" fill="url(#paint0_linear_107_265)"/>
<path d="M33.6252 33.0926L28.5115 27.9718L13.292 43.2122C13.9008 43.8218 14.7531 43.8218 15.8489 43.3341L33.6252 33.0926Z" fill="url(#paint1_linear_107_265)"/>
<path d="M33.6252 22.8511L15.8489 12.7314C14.7531 12.1218 13.9008 12.2438 13.292 12.8534L28.5115 27.9718L33.6252 22.8511Z" fill="url(#paint2_linear_107_265)"/>
<defs>
<linearGradient id="paint0_linear_107_265" x1="38.4821" y1="27.9722" x2="9.0454" y2="27.9722" gradientUnits="userSpaceOnUse">
<stop stop-color="#FEE000"/>
<stop offset="0.1941" stop-color="#FCCF09"/>
<stop offset="0.5469" stop-color="#FAB317"/>
<stop offset="0.8279" stop-color="#F9A21A"/>
<stop offset="1" stop-color="#F99B1B"/>
</linearGradient>
<linearGradient id="paint1_linear_107_265" x1="30.8426" y1="30.7676" x2="3.11794" y2="58.4543" gradientUnits="userSpaceOnUse">
<stop stop-color="#EF4547"/>
<stop offset="1" stop-color="#C6176C"/>
</linearGradient>
<linearGradient id="paint2_linear_107_265" x1="3.0326" y1="-2.67243" x2="25.6691" y2="19.933" gradientUnits="userSpaceOnUse">
<stop stop-color="#269E6F"/>
<stop offset="0.3168" stop-color="#4DAB6D"/>
<stop offset="0.7398" stop-color="#6ABA6A"/>
<stop offset="1" stop-color="#74C168"/>
</linearGradient>
</defs>
</svg>
