<svg width="257" height="63" viewBox="0 0 257 63" fill="none" xmlns="http://www.w3.org/2000/svg">
<path d="M195.779 50.9034H198.175L200.781 58.6481L203.388 50.9034H205.713L201.697 61.9572H199.795L195.779 50.9034Z" fill="black"/>
<path d="M247.912 50.9034H256.155V53.086H250.237V55.339H255.45V57.4512H250.237V59.7746H256.225V61.8867H247.912V50.9034Z" fill="black"/>
<path d="M119.623 50.833H117.58V61.8867H119.623V50.833Z" fill="black"/>
<path d="M160.836 50.833C157.807 50.833 155.271 53.2972 155.271 56.3247C155.271 59.3521 157.736 61.8867 160.836 61.8867C163.866 61.8867 166.402 59.4225 166.402 56.3951C166.331 53.3676 163.866 50.833 160.836 50.833ZM160.836 59.845C158.934 59.845 157.384 58.296 157.384 56.3951C157.384 54.4941 158.934 52.9452 160.836 52.9452C162.738 52.9452 164.288 54.4941 164.288 56.3951C164.288 58.296 162.738 59.845 160.836 59.845Z" fill="black"/>
<path d="M215.928 50.833C212.899 50.833 210.362 53.2972 210.362 56.3247C210.362 59.3521 212.828 61.8867 215.928 61.8867C218.957 61.8867 221.494 59.4225 221.494 56.3951C221.494 53.3676 219.028 50.833 215.928 50.833ZM215.928 59.845C214.026 59.845 212.476 58.296 212.476 56.3951C212.476 54.4941 214.026 52.9452 215.928 52.9452C217.83 52.9452 219.38 54.4941 219.38 56.3951C219.38 58.296 217.83 59.845 215.928 59.845Z" fill="black"/>
<path d="M228.116 58.5073C228.116 58.4369 228.045 58.4369 227.975 58.4369C227.904 58.4369 227.904 58.4369 227.834 58.5073L226.848 60.3378C226.848 60.3378 226.848 60.3379 226.848 60.4083C226.848 60.5491 227.059 61.8868 227.059 61.8868C227.059 61.9572 227.129 61.9572 227.129 61.9572H228.75C228.82 61.9572 228.82 61.8868 228.82 61.8868L229.102 60.4083C229.102 60.4083 229.102 60.4083 229.102 60.3378L228.116 58.5073Z" fill="black"/>
<path d="M227.411 57.1695H228.538L229.313 50.833H226.636L227.411 57.1695Z" fill="black"/>
<path d="M104.054 58.9297L100.813 50.833H98.7V61.8867H100.813V56.3247L103.068 61.8867H105.111L107.365 56.3247V61.8867H109.479V50.833H107.365L104.054 58.9297Z" fill="black"/>
<path d="M132.375 50.833H127.725V61.8867H129.768V57.3808H132.234L133.502 61.8867H135.545L134.136 56.8175C135.052 56.1839 135.545 55.1982 135.545 54.1421C135.615 52.3115 134.206 50.833 132.375 50.833ZM132.375 55.2686H129.839V54.0717V52.8748H132.375C133.009 52.8044 133.572 53.2972 133.643 54.0013C133.713 54.6349 133.22 55.1982 132.516 55.2686C132.516 55.339 132.445 55.339 132.375 55.2686Z" fill="black"/>
<path d="M150.128 54.1421C150.128 52.3116 148.648 50.9034 146.887 50.9034H142.238V61.9572H144.281V57.4512H146.605L148.155 61.9572H150.198L148.508 56.9583C149.564 56.3247 150.128 55.2686 150.128 54.1421ZM146.887 55.339H144.351V54.1421V52.9452H146.887C147.521 53.0156 148.014 53.5789 148.014 54.2125C147.944 54.7758 147.451 55.2686 146.887 55.339Z" fill="black"/>
<path d="M179.224 54.1421C179.224 52.3116 177.744 50.9034 175.983 50.9034H171.333V61.9572H173.376V57.4512H175.701L177.251 61.9572H179.365L177.674 56.9583C178.66 56.3247 179.224 55.2686 179.224 54.1421ZM175.983 55.339H173.447V54.1421V52.9452H175.983C176.617 52.8748 177.181 53.3676 177.251 54.0717C177.321 54.7054 176.828 55.2686 176.124 55.339C176.124 55.339 176.053 55.339 175.983 55.339Z" fill="black"/>
<path d="M240.938 58.2256C240.656 59.1409 239.81 59.845 238.824 59.845H238.754C237.556 59.845 236.57 58.8593 236.57 57.6624V55.1278C236.57 53.9309 237.556 52.9452 238.754 52.9452H238.824C239.81 52.9452 240.656 53.5788 240.938 54.5645L242.981 54.2125C242.558 52.2411 240.797 50.9034 238.754 50.833C236.358 50.833 234.456 52.734 234.456 55.1278V57.592C234.456 59.9858 236.358 61.8867 238.754 61.8867C240.797 61.8867 242.558 60.4786 242.981 58.5072L240.938 58.2256Z" fill="black"/>
<path d="M225.72 32.4569L228.468 32.2457L228.538 35.4843C225.157 35.9068 221.916 36.2588 219.098 36.5404L218.746 33.0201C219.732 32.9497 220.93 32.8793 222.198 32.8089V30.8376H219.873V27.8805H222.198V26.05H219.38V23.0225H228.257V26.05H225.791V27.7397H227.904V30.6967H225.791L225.72 32.4569ZM233.681 34.2874C235.02 32.3161 235.936 30.0631 236.358 27.6693L239.81 28.8662C239.247 31.6824 238.331 34.8507 236.57 36.9629L233.681 34.7803V38.3006H229.313V20.9807C225.72 21.3328 222.198 21.544 219.38 21.7552L218.957 17.9533L221 17.8829V5.77308H219.098V1.97117H235.442V5.84349H233.752L233.681 34.2874ZM225.298 5.77308V7.67404H229.313V5.77308H225.298ZM225.298 12.4616H229.313V10.5607H225.298V12.4616ZM229.313 17.39V15.4187H225.298V17.6013L229.313 17.39ZM253.337 36.7516C253.055 35.4843 252.562 34.217 251.998 33.0201C251.575 36.8925 250.519 37.9485 247.912 37.9485H244.46C240.867 37.9485 240.092 36.8221 240.092 33.3722V27.8101H243.615C242.699 27.3173 241.783 26.8244 240.867 26.402L242.065 25.1347H235.02V21.0511H256.577V25.1347H246.433C247.419 25.6979 248.405 26.3316 249.321 27.0356L246.714 30.0631C245.939 29.359 245.024 28.7254 244.178 28.1621V33.3018C244.178 34.217 244.319 34.3578 245.094 34.3578H247.489C248.194 34.3578 248.405 34.217 248.546 31.3304C251.787 32.5273 250.448 32.0345 251.787 32.5273C251.082 31.1896 250.307 29.9927 249.321 28.7958L252.703 27.3173C254.675 29.5703 256.155 32.2457 257 35.1323L253.337 36.7516ZM243.121 7.1812H235.654V3.37929H243.121V0.422241H247.842V3.37929H256.014V7.1812H247.842V9.15256H255.45V19.4318H236.147V9.15256H243.192L243.121 7.1812ZM241.783 12.6024H239.599V16.0523H241.783V12.6024ZM246.714 12.6024H244.53V16.0523H246.714V12.6024ZM249.462 15.9819H251.716V12.532H249.462V15.9819Z" fill="black"/>
<path d="M175.842 8.44872C175.419 15.8413 174.292 22.1074 172.39 26.7542C174.01 28.0215 175.49 29.4297 176.758 30.9786L173.87 34.8509C172.742 33.4428 171.545 32.1755 170.277 30.9786C168.445 34.006 165.838 36.5406 162.879 38.4416C162.104 37.0335 161.118 35.7662 159.991 34.6397C162.809 33.0908 165.134 30.7674 166.613 27.9511C165.909 27.3175 165.134 26.8246 164.429 26.2614L164.077 27.5287L160.132 25.4165C161.048 22.1074 162.034 17.5311 163.02 12.8139H159.85V8.44872H163.866C164.429 5.63249 164.852 2.88666 165.275 0.352051L169.854 0.774486C169.431 3.16828 168.938 5.7733 168.445 8.44872H175.842ZM167.529 12.8843C166.895 15.9821 166.191 19.0096 165.557 21.8258C166.543 22.4595 167.529 23.1635 168.586 23.8676C169.854 20.3473 170.629 16.6158 171.052 12.8843H167.529Z" fill="black"/>
<path d="M188.734 14.1516L195.638 5.77332L188.734 14.1516Z" fill="black"/>
<path d="M197.681 21.9667V17.3903H188.734V14.1517L195.638 5.77337L192.609 2.32349H176.687V6.82946H189.368L185.141 11.5466L183.944 11.4762V17.3903H175.349V21.9667H183.944V29.5705V33.4429C183.944 33.5133 183.873 33.5837 183.803 33.5837H177.603L178.378 38.3713H183.803C186.55 38.3713 188.734 36.1887 188.734 33.4429V29.5705V21.9667H197.681Z" fill="black"/>
<path d="M135.193 31.4714V31.6826C135.193 32.2458 135.052 32.8091 134.841 33.3019C134.559 33.8652 133.925 34.2172 133.291 34.1468H131.107C130.614 34.1468 130.191 33.7244 130.191 33.2315V28.8664H135.897V14.574H116.242V28.8664H120.68C120.398 30.2041 119.764 31.401 118.778 32.3866C117.299 33.654 115.537 34.4988 113.635 34.9213H113.494L114.762 38.3711H114.903C117.299 37.8079 119.483 36.6814 121.314 35.0621C123.005 33.3723 124.062 31.1897 124.344 28.8664H126.457V34.2172C126.457 36.1886 128.077 37.7375 130.05 37.7375H134.559C137.729 37.7375 138.504 33.7948 138.645 32.5275V32.3866L135.193 31.4714ZM119.905 18.2351H132.163V19.8544H119.905V18.2351ZM119.905 25.2053V23.5859H132.163V25.2053H119.905Z" fill="black"/>
<path d="M136.461 9.22324H131.53L132.727 6.54782H136.461V2.88672H127.725V0.49292H124.062V2.88672H115.608V6.54782H119.412L120.61 9.22324H115.608V12.8843H136.461V9.22324ZM127.866 9.22324H124.273L123.005 6.54782H129.134L127.866 9.22324Z" fill="black"/>
<path d="M109.126 29.3593L112.508 29.9929C112.508 29.9929 113.283 26.6135 114.058 22.7411L110.465 21.9667L109.126 29.3593Z" fill="black"/>
<path d="M102.222 22.8115L98.7703 24.0788C98.7703 24.0788 100.391 28.5144 101.306 32.2459L104.547 31.1194C104.547 31.1194 103.349 26.0502 102.222 22.8115Z" fill="black"/>
<path d="M108.563 21.0513H113.424V17.3902H108.563V14.2923H113.424V10.5608H112.931L114.833 8.44865L114.692 8.37825C112.367 6.89973 110.254 5.06917 108.492 2.957C108.563 2.74578 108.704 2.32335 108.704 2.32335L109.056 1.19686L105.393 0.492798V0.633609C103.772 7.815 97.15 12.321 97.0796 12.3914L96.9387 12.5322L99.5453 15.1372L99.6157 15.0668C99.6157 15.0668 100.038 14.7852 100.672 14.2923H104.97V17.3902H99.8975V21.0513H104.97V33.0907C101.729 33.9356 99.2635 34.5692 98.7703 34.6396L99.7566 38.1599C100.461 38.0191 107.154 36.3998 113.494 34.358V30.4857C111.874 31.0489 110.254 31.5418 108.633 32.0346L108.563 21.0513ZM104.265 10.5608C105.252 9.36393 106.168 8.02622 106.872 6.68851C108.281 8.09662 109.831 9.43433 111.522 10.5608H104.265Z" fill="black"/>
<path d="M14.0195 32.316C14.0195 32.316 14.9353 19.4318 24.1642 10.7718C24.7983 11.1239 25.5732 11.1239 26.2073 10.7718C27.8981 9.71576 29.5888 8.73008 31.4205 7.88521C34.5203 6.47709 43.1856 5.70263 47.9057 6.89953C50.6533 7.60358 53.3303 8.73008 55.7961 10.2086C55.7961 10.2086 57.1346 11.3351 58.3323 10.631C58.3323 10.631 66.5749 15.8411 68.6179 32.2456C68.6179 32.2456 66.6453 31.6824 64.8841 33.8649C63.1228 36.0475 63.0524 36.9628 62.9115 38.7934C62.7706 40.6239 62.9115 54.9867 62.9115 54.9867C62.9115 56.1836 63.2637 57.3805 63.8978 58.3662C64.9545 60.0559 66.7158 61.2528 68.0543 61.2528H70.9427V33.0905C70.9427 33.0905 71.3654 18.5869 60.0935 8.44845C60.164 7.67399 59.8822 6.89953 59.389 6.33628C58.6141 5.49141 55.6552 3.02721 49.5261 1.40787C43.397 -0.211462 32.4068 -0.42268 24.0938 5.63222C24.0938 5.63222 22.1212 7.32196 22.5439 8.73008C22.5439 8.73008 15.0058 14.2217 11.906 28.8661C11.7651 29.8518 11.6242 30.7671 11.6242 31.7528V61.6048C11.6242 61.6048 14.6535 61.9569 16.8375 60.5488C18.4578 59.5631 19.585 57.9437 19.9373 56.0428V38.5821C19.8668 34.569 15.9216 32.0344 14.0195 32.316Z" fill="black"/>
<path d="M9.36979 32.1754V61.6754C9.36979 61.6754 0 60.3377 0 47.6647C0 36.611 5.77686 32.1754 9.36979 32.1754Z" fill="#FF6D2D"/>
<path d="M73.3381 32.1754V61.6754C73.3381 61.6754 82.7079 60.3377 82.7079 47.6647C82.7784 36.611 77.0015 32.1754 73.3381 32.1754Z" fill="#FF6D2D"/>
</svg>
