<?xml version="1.0" encoding="utf-8"?>
<!-- Generator: Adobe Illustrator 16.0.0, SVG Export Plug-In . SVG Version: 6.00 Build 0)  -->
<!DOCTYPE svg PUBLIC "-//W3C//DTD SVG 1.1//EN" "http://www.w3.org/Graphics/SVG/1.1/DTD/svg11.dtd">
<svg version="1.1" id="圖層_1" xmlns="http://www.w3.org/2000/svg" xmlns:xlink="http://www.w3.org/1999/xlink" x="0px" y="0px"
	 width="187px" height="105.5px" viewBox="6.5 47 187 105.5" enable-background="new 6.5 47 187 105.5" xml:space="preserve">
<circle fill="#FFFFFF" cx="59.4" cy="100.3" r="49.5"/>
<circle fill="#FFFFFF" cx="141.3" cy="100.3" r="49.5"/>
<g>
	<path fill="#117022" stroke="#117022" stroke-width="0.5" stroke-miterlimit="10" d="M43.2,123.6L42,124.4l-2-3.4
		c1.3,0.1,2.7,0.3,4,0.3h12v-1.8c0-1.2-0.1-2.3-0.3-3.4c-4.5,0.5-9,1.2-13.5,1.801l-2.5-4.9c5.5-1.1,8.3-2.2,13.1-5.4h-7.5
		l-0.9,0.801l-2.5-3.4c1.2,0.1,2.5,0.3,3.8,0.3h23.6c0.3-0.399,1.8-2.5,2.5-2.5c0.8,0,2.4,1.601,2.9,2.101l1.2-3.2H41.5
		c-0.4,2.6-1.3,5.7-4.5,5.7c-1.5,0-2.9-1.101-2.9-2.7c0-1.7,1-2.3,2.2-3.101c0.6-0.5,1.2-1,1.8-1.6c0.5-0.5,1-1.2,1.4-2
		c0.2-0.5,0.4-1,0.5-1.6c0.1-0.1,0.1-0.4,0.3-0.4c0.7,0,1,2.7,1,3.4H76c0.5-0.5,1.8-2.3,2.7-2.3c1.4,0,5.7,4.2,5.7,5.5
		c-0.1,0.5-0.4,0.7-0.7,0.801c-0.5,0.1-2.5,0.1-2.9,0.1c-2,0-4,0.9-5.6,1.9c0.3,0.3,1.5,1.199,1.5,1.8c0,0.399-0.5,0.5-0.8,0.5H59.2
		c0.5,0.3,1.9,1.2,1.9,2c0,0.7-1.2,0.7-1.6,0.7c-0.6,0-1.2-0.101-1.7-0.101c-3.7,1.101-7.4,2.3-11.1,3.2l24-0.5
		c-1.4-1.2-2.9-2.1-4.6-2.9c-0.3-0.1-1.1-0.5-1.3-0.699c0-0.301,0.3-0.301,0.5-0.301c3.9,0,9.8,1.301,13,3.601
		c0.9,0.7,2.1,1.8,2.1,3c0,1.6-0.9,2.7-2.6,2.7c-1.8,0-4.3-2.9-5.5-4.101c-4.9,0.5-9.9,1.101-14.9,1.601
		c1.3,0.399,5.6,1.399,5.6,2.5c0,0.5-0.8,1-1.2,1.1v1.7h9.3c0.4-0.4,2.2-2.7,2.9-2.7c0.9,0,4.6,3.6,4.6,4.5c0,0.3-0.5,0.6-0.9,0.6
		H61.8v4.801H78c0.3-0.4,2.5-2.801,3.2-2.801c0.5,0,1.3,0.801,1.6,1.101c0.5,0.5,3,2.6,3,3.399c0,0.5-0.5,0.801-0.9,0.801H36.6
		l-1.2,0.699l-2.5-3.5c1.4,0.101,2.8,0.301,4.2,0.301H56V123.6H43.2L43.2,123.6z M39.3,75.6H56v-1.9c0-0.8-0.1-1.4-0.1-2.2
		c-0.1-0.6-0.6-2.1-0.6-2.5c0-0.3,0.3-0.3,0.5-0.3c1.2,0,7.9,1.6,7.9,2.7c0,0.5-1.4,1.5-1.8,1.8v2.3h13.7c0.4-0.4,2-2.8,2.9-2.8
		c0.5,0,1.5,0.8,1.9,1.2c0.3,0.3,3.1,2.5,3.1,3.4c0,0.4-0.4,0.7-0.8,0.7H61.8v4h9.3c0.3-0.4,1.6-2.5,2.4-2.5c0.9,0,3.4,2.7,3.8,3.1
		c0.3,0.3,0.8,0.8,0.8,1.2c0,0.4-0.4,0.6-0.8,0.6H43.7l-1.1,0.8l-2.4-3.5c1.2,0.1,2.5,0.3,3.6,0.3H56v-4H39.5l-1.3,0.7l-2.5-3.4
		C36.9,75.4,38.1,75.6,39.3,75.6z M44.6,92.7v-3c0-0.5-0.1-1.1-0.1-1.6c-0.1-0.5-0.6-1.6-0.6-1.9c0-0.4,0.5-0.4,0.8-0.4
		c0.9,0,3.9,1,4.8,1.2c0.1,0,1.3,0.3,1.3,0.3H69c0.3-0.5,1.2-2,2-2c0.9,0,5.1,2.8,5.1,3.5c0,0.6-1.2,1.4-1.6,1.8V94
		c0,0.8,0.1,1.6,0.2,2.3c-1.8,0.5-3.8,0.8-5.6,1.2l0.2-1.8H50v1.1c-1.8,0.3-3.7,0.7-5.5,0.7C44.3,95.9,44.6,94.3,44.6,92.7z
		 M69.3,93.4v-3.8H50v3.8H69.3z"/>
	<path fill="#117022" stroke="#117022" stroke-width="0.5" stroke-miterlimit="10" d="M121,96c-2.5,0-2.7-1.9-3.3-3.8
		c-0.5-1.5-1.4-2.8-2.601-3.9c-0.199-0.1-1-0.9-1-1.1c0-0.2,0.2-0.3,0.4-0.3c0.6,0,2.2,0.5,2.8,0.7c2.101,0.7,4,1.1,5.4,3
		c0.5,0.8,1,1.7,1,2.7C123.7,94.8,122.5,96,121,96z M128.2,87.9c-0.601,3.4-1.2,6.8-1.8,10.3c-0.5,3-1.101,6-1.601,9
		c-0.3,1.5-0.5,3.1-0.5,4.6c0,2.601,0.5,5.3,1.4,7.7c0.6,1.8,1.399,3.6,1.399,5.5s-1.399,4-3.399,4c-3.4,0-3-4.3-3.101-6.5
		c-0.1-1.2-0.199-2.3-0.399-3.3c-0.3-1.8-0.8-3-2-4.4c-1-1-1.601-1.2-2.9-1.7c-0.1-0.1-0.5-0.199-0.5-0.399c0-1,3.101,0.1,4.4-1.2
		c1.2-1.3,3.6-9.7,4.2-11.6c1.6-5.2,3.1-10.5,4.8-15.7c0.1-0.3,0.2-0.4,0.5-0.4s0.3,0.3,0.3,0.5C128.9,85.3,128.4,86.9,128.2,87.9z
		 M124.5,80.2c-2,0-2.5-1.5-2.9-3.1c-0.3-0.8-0.6-1.6-1-2.5c-0.699-1.3-1.3-1.9-2.399-2.9c-0.101-0.5,0.3-0.5,0.5-0.5
		c0.5,0,2.7,0.7,3.3,0.8c1.6,0.5,3.1,1.2,4.1,2.6c0.5,0.8,1.2,1.8,1.2,2.8C127.3,79,126.1,80.2,124.5,80.2z M129.1,103.3
		c-0.899,0-1.399-0.6-1.399-1.5c0-1.2,1.2-2.1,1.8-3.1c0.5-1,0.8-1.8,1-2.9c0.1-0.1,0.2-0.6,0.4-0.6c0.199,0,0.3,1,0.399,1.1
		c0.101,1.1,0.3,2.2,0.3,3.3C131.6,101.1,131.2,103.3,129.1,103.3z M139.4,81.5l-6.9,8.2h4.4c0-0.3-0.101-0.7-0.101-1.1
		c-0.1-0.6-0.6-1.2-0.6-1.8c0-0.1,0-0.3,0.2-0.3c0.1,0,0.3,0.1,0.5,0.3c1.6,1.2,3.3,2.7,3.3,4.9c0,1.2-0.5,2.4-1.9,2.4
		c-0.8,0-1.2-0.8-1.2-1.5c0-0.3,0-0.8,0.101-1.2c-2.2,0.7-4.3,1.4-6.3,2.4l-1.301-4.5c2.301-0.8,4.2-4.9,5.301-6.9
		c-1.5,0.4-2.9,0.9-4.4,1.4l-1.4-4.4c1.9-1.1,3.101-3.9,3.801-5.9c0.5-1.4,1.1-2.9,1.199-4.5c0-0.2-0.1-0.8,0.301-0.8
		c0.8,0,5.199,2.6,5.199,3.7c0,0.5-1.5,1-1.899,1.2c-1.9,2.3-3.8,4.6-5.8,6.9l3.8,0.1c0.399-0.8,0.6-1.3,0.8-2.2
		c0-0.2,0.1-0.7,0.2-0.8c1.2-0.1,4.8,2.4,4.8,3.4C141.4,81.2,139.9,81.5,139.4,81.5z M163.3,121.2c-2.6,7.7-2.3,9.899-11.5,11.3
		c-0.399-2.9-1.2-3.8-3.899-4.8c-0.301-0.101-2-0.601-2-0.9s0.199-0.5,0.5-0.399c2,0.1,4,0.3,5.899,0.3c4.601,0,5-3,5.7-6.8h-20.8
		c-0.601,0.8-1.2,1.699-2,2.3c-1.4-0.8-2.8-1.8-4.2-2.8c-0.2-0.101-0.5-0.301-0.5-0.7c0-0.4,1.4-1.3,1.6-1.601
		c0.2-1.899,0.601-3.899,0.601-5.899c0-0.601-0.3-1.2-0.3-1.8c0-0.101,0.3-0.4,0.399-0.4c0.7,0,4.601,1.8,5.3,2.2h17v-3.8h-21.6
		l-1.2,0.8l-2.3-3.4c1.3,0.101,2.7,0.3,4,0.3h20.5c0.3-0.399,1.3-2.199,2-2.199c0.5,0,5,2.3,5,3.3c0,0.5-1,1.399-1.4,1.7v3.1
		c0,0.9,0.2,1.8,0.301,2.7c-1.7,0.6-3.601,1-5.4,1.3l0.1-1.6H137.4l-0.5,4.1h20.5c0.699-0.8,1.399-1.6,2.1-2.4
		c0.8,0,5.5,3.4,5.5,4.2C165.1,120.3,163.8,120.9,163.3,121.2z M134.2,102.6c-0.9,0-1.3-0.8-1.3-1.6c0-0.9,0.3-1.7,0.3-2.7
		c0-0.6,0-1.4-0.101-2.1c-0.1-0.3-0.199-0.7-0.199-1c0-0.2,0.1-0.2,0.3-0.2c0.3,0.2,0.7,0.7,0.899,0.9c1,1.3,1.9,2.9,1.9,4.6
		C135.9,101.6,135.3,102.6,134.2,102.6z M138.4,102c-1.7,0-1.601-2.8-1.601-3.8c-0.1-0.3-0.3-0.8-0.3-1.2c-0.1-0.3-0.8-1.8-0.8-2
		c1.3-0.1,4.3,3.3,4.3,4.6C139.9,100.7,139.6,102,138.4,102z M152.8,78.4H143.4l-1.2,0.8L140.1,76c1.2,0.1,2.5,0.3,3.801,0.3h5.6
		c0.3-0.2,1.2-1.3,1.6-1.3c0.5,0,2.7,2.4,2.7,2.8C153.7,78.3,153.1,78.4,152.8,78.4z M151.7,93.6v4.9c0,1,0.2,2,0.3,2.9
		c-1.3,0.5-2.7,1-4,1.199l0.1-2.1h-3.3v1.6c-1.2,0.5-2.5,0.801-3.7,1c0.101-1.3,0.2-2.7,0.2-4v-5.6c0-0.8,0-2.3-0.3-2.9
		c-0.1-0.3-0.2-0.5-0.2-0.8c0-0.2,0.101-0.3,0.3-0.3c0.601,0,3.2,1.4,3.801,1.6h2.8c0.2-0.2,1.5-1.8,1.899-1.8
		c0.5,0,3.5,2.3,3.5,2.8C153,92.8,152.1,93.3,151.7,93.6z M151.6,88.4H144.4l-1.2,0.8L141.1,86c1.2,0.1,2.5,0.3,3.801,0.3h3.5
		c0.199-0.2,1.1-1.3,1.6-1.3s2.7,2.4,2.7,2.8C152.6,88.2,151.9,88.4,151.6,88.4z M151.6,83.9h-6.8l-1.2,0.8l-2.199-3.2
		c1.199,0.1,2.6,0.3,3.8,0.3h3.1c0.2-0.3,1.101-1.4,1.601-1.4s2.699,2.4,2.699,2.8C152.6,83.8,151.9,83.9,151.6,83.9z M147,75.4
		c-0.5,0-1-0.1-1.4-0.5c-1.1-1-1.1-3.6-2.3-5.3c-0.1-0.3-1.2-1.5-1.2-1.7c0-0.3,0.301-0.3,0.5-0.3c0.5,0,1.4,0.3,1.801,0.5
		c2.1,0.8,4.899,2.1,4.899,4.7C149.3,74.1,148.3,75.4,147,75.4z M148.1,93.5H145.4l-0.5,0.8v4h3.3v-4.8H148.1z M153.7,102.3
		c-0.9,0-1.4-0.5-1.4-1.399c0-1.2,1.2-2.101,1.8-3.101c0.5-1,0.801-1.8,1.101-2.9c0-0.1,0.1-0.3,0.3-0.3c0.5,0,0.8,3.5,0.8,4.2
		C156.3,100.2,155.7,102.3,153.7,102.3z M164.6,80.4l-8.5,9.4l5.801-0.3c0-0.3-0.101-0.8-0.101-1.1c-0.1-0.7-0.6-1.2-0.6-1.8
		c0-0.1,0-0.3,0.2-0.3c0.3,0,1.399,0.8,1.699,1c1.2,0.8,2.5,2,2.5,3.5c0,1.4-0.5,2.7-2,2.7c-1.6,0-1.5-1.2-1.5-2.3
		c-2.6,0.7-4.899,1.6-7.399,2.7l-1.601-4.6c0.5-0.1,0.801-0.3,1.2-0.5c1.3-0.8,4-4.9,4.9-6.2c-1.4,0.4-2.9,0.8-4.4,1.4l-1.3-4.4
		c1.8-1,3.2-3.6,3.9-5.5c0.5-1.4,1-2.8,1.1-4.4c0-0.3,0-0.8,0.4-0.8c0.6,0,5.1,2.6,5.1,3.6c0,0.8-1.7,1.1-2.3,1.2
		c-1.9,2.3-3.8,4.4-5.7,6.7l4.2-0.1c0.5-1,1.2-2.2,1.399-3.3c0-0.3,0-0.8,0.301-0.8c0.8,0,4.8,2.5,4.8,3.5
		C166.7,80.2,165.2,80.3,164.6,80.4z M159.1,102.2c-1,0-1.399-0.8-1.399-1.601c0-1,0.3-1.899,0.3-2.899s-0.3-2.4-0.3-3.1
		c0-0.2,0.1-0.3,0.3-0.3c0.4,0.2,0.7,0.7,1,1c1,1.2,2.1,3.3,2.1,4.9C161,101.2,160.3,102.2,159.1,102.2z M164.1,102.2
		c-2,0-1.899-3.1-2.1-4.2c0-0.5-0.2-1-0.3-1.4c-0.101-0.4-1-2.1-1-2.2c1.1-0.2,3.2,1.8,3.7,2.5c0.8,0.8,1.399,1.8,1.399,3
		C165.8,100.9,165.3,102.2,164.1,102.2z"/>
</g>
</svg>
