<?xml version="1.0" encoding="utf-8"?>
<!-- Generator: Adobe Illustrator 16.0.0, SVG Export Plug-In . SVG Version: 6.00 Build 0)  -->
<!DOCTYPE svg PUBLIC "-//W3C//DTD SVG 1.1//EN" "http://www.w3.org/Graphics/SVG/1.1/DTD/svg11.dtd">
<svg version="1.1" id="圖層_1" xmlns="http://www.w3.org/2000/svg" xmlns:xlink="http://www.w3.org/1999/xlink" x="0px" y="0px"
	 width="100%" height="100%" viewBox="0 0 350 135" enable-background="new 0 0 350 135" xml:space="preserve">
<g>
	<path fill="#FCFF00" d="M12.8,61.2c-0.7-0.8-0.6-2,0-2.5c0.6-0.6,1.8-0.6,2.6,0.1c0.7,0.8,0.6,2,0,2.5C14.7,61.9,13.5,62,12.8,61.2
		z"/>
	<path fill="#FCFF00" d="M17.8,56.4c-0.7-0.8-0.6-2,0-2.5c0.6-0.6,1.8-0.6,2.6,0.1c0.7,0.8,0.6,2,0,2.5
		C19.8,57.1,18.6,57.1,17.8,56.4z"/>
	<path fill="#FCFF00" d="M22.9,51.5c-0.7-0.8-0.6-2,0-2.5c0.6-0.6,1.8-0.6,2.6,0.1c0.7,0.8,0.6,2,0,2.5
		C24.8,52.2,23.6,52.3,22.9,51.5z"/>
	<path fill="#FCFF00" d="M27.9,46.7c-0.7-0.8-0.6-2,0-2.5c0.6-0.6,1.8-0.6,2.6,0.1c0.7,0.8,0.6,2,0,2.5
		C29.9,47.4,28.7,47.4,27.9,46.7z"/>
	<path fill="#FCFF00" d="M33,41.8c-0.7-0.8-0.6-2,0-2.5c0.6-0.6,1.8-0.6,2.6,0.1c0.7,0.8,0.6,2,0,2.5C34.9,42.5,33.7,42.6,33,41.8z"
		/>
	<path fill="#FCFF00" d="M38,37c-0.7-0.8-0.6-2,0-2.5c0.6-0.6,1.8-0.6,2.6,0.1c0.7,0.8,0.6,2,0,2.5C40,37.7,38.8,37.7,38,37z"/>
	<path fill="#FCFF00" d="M43.1,32.1c-0.7-0.8-0.6-2,0-2.5c0.6-0.6,1.8-0.6,2.6,0.1c0.7,0.8,0.6,2,0,2.5C45,32.8,43.8,32.9,43.1,32.1
		z"/>
	<path fill="#FCFF00" d="M48.1,27.3c-0.7-0.8-0.6-2,0-2.5c0.6-0.6,1.8-0.6,2.6,0.1c0.7,0.8,0.6,2,0,2.5C50.1,28,48.9,28,48.1,27.3z"
		/>
	<path fill="#FCFF00" d="M53.2,22.4c-0.7-0.8-0.6-2,0-2.5c0.6-0.6,1.8-0.6,2.6,0.1c0.7,0.8,0.6,2,0,2.5
		C55.1,23.1,53.9,23.2,53.2,22.4z"/>
</g>
<g>
	<path fill="#FCFF00" d="M34.5,109.2c0.2-1,1.2-1.7,2-1.6c0.8,0.1,1.6,1.1,1.5,2.1c-0.2,1-1.2,1.7-2,1.5
		C35.1,111.2,34.3,110.2,34.5,109.2z"/>
	<path fill="#FCFF00" d="M41.4,110.3c0.2-1,1.2-1.7,2-1.6c0.8,0.1,1.6,1.1,1.5,2.1c-0.2,1-1.2,1.7-2,1.5
		C42,112.3,41.2,111.3,41.4,110.3z"/>
	<path fill="#FCFF00" d="M48.3,111.4c0.2-1,1.2-1.7,2-1.6c0.8,0.1,1.6,1.1,1.5,2.1c-0.2,1-1.2,1.7-2,1.5
		C48.9,113.3,48.1,112.4,48.3,111.4z"/>
	<path fill="#FCFF00" d="M55.2,112.5c0.2-1,1.2-1.7,2-1.6c0.8,0.1,1.6,1.1,1.5,2.1c-0.2,1-1.2,1.7-2,1.5
		C55.8,114.4,55.1,113.5,55.2,112.5z"/>
	<path fill="#FCFF00" d="M62.1,113.6c0.2-1,1.2-1.7,2-1.6c0.8,0.1,1.6,1.1,1.5,2.1s-1.2,1.7-2,1.5C62.7,115.5,62,114.6,62.1,113.6z"
		/>
	<path fill="#FCFF00" d="M69,114.6c0.2-1,1.2-1.7,2-1.6c0.8,0.1,1.6,1.1,1.5,2.1s-1.2,1.7-2,1.5C69.7,116.6,68.9,115.7,69,114.6z"/>
	<path fill="#FCFF00" d="M76,115.7c0.2-1,1.2-1.7,2-1.6c0.8,0.1,1.6,1.1,1.5,2.1c-0.2,1-1.2,1.7-2,1.5
		C76.6,117.7,75.8,116.8,76,115.7z"/>
	<path fill="#FCFF00" d="M82.9,116.8c0.2-1,1.2-1.7,2-1.6c0.8,0.1,1.6,1.1,1.5,2.1c-0.2,1-1.2,1.7-2,1.5
		C83.5,118.8,82.7,117.8,82.9,116.8z"/>
	<path fill="#FCFF00" d="M89.8,117.9c0.2-1,1.2-1.7,2-1.6c0.8,0.1,1.6,1.1,1.5,2.1c-0.2,1-1.2,1.7-2,1.5
		C90.4,119.9,89.6,118.9,89.8,117.9z"/>
	<path fill="#FCFF00" d="M96.7,119c0.2-1,1.2-1.7,2-1.6c0.8,0.1,1.6,1.1,1.5,2.1c-0.2,1-1.2,1.7-2,1.5C97.3,120.9,96.5,120,96.7,119
		z"/>
	<path fill="#FCFF00" d="M103.6,120.1c0.2-1,1.2-1.7,2-1.6c0.8,0.1,1.6,1.1,1.5,2.1s-1.2,1.7-2,1.5
		C104.2,122,103.5,121.1,103.6,120.1z"/>
	<path fill="#FCFF00" d="M110.5,121.2c0.2-1,1.2-1.7,2-1.6c0.8,0.1,1.6,1.1,1.5,2.1c-0.2,1-1.2,1.7-2,1.5
		C111.1,123.1,110.4,122.2,110.5,121.2z"/>
	<path fill="#FCFF00" d="M117.5,122.2c0.2-1,1.2-1.7,2-1.6c0.8,0.1,1.6,1.1,1.5,2.1c-0.2,1-1.2,1.7-2,1.5
		C118.1,124.2,117.3,123.3,117.5,122.2z"/>
	<path fill="#FCFF00" d="M124.4,123.3c0.2-1,1.2-1.7,2-1.6c0.8,0.1,1.6,1.1,1.5,2.1c-0.2,1-1.2,1.7-2,1.5
		C125,125.3,124.2,124.4,124.4,123.3z"/>
	<path fill="#FCFF00" d="M131.3,124.4c0.2-1,1.2-1.7,2-1.6c0.8,0.1,1.6,1.1,1.5,2.1s-1.2,1.7-2,1.5
		C131.9,126.4,131.1,125.4,131.3,124.4z"/>
</g>
<g>
	<path fill="#FCFF00" d="M17.3,77.1c0,0.1,0.1,0.2,0.2,0.2l4.2-0.7c0.4-0.1,0.8,0,1.2,0.3c0.4,0.2,0.6,0.6,0.6,1
		c0.7,4.5,1.2,8.7,1.6,12.7c0.2,2.3,0.1,3.8-0.2,4.5c-0.2,0.4-0.4,0.8-0.7,1c-0.3,0.2-0.6,0.4-1.1,0.5c-0.4,0.1-1,0.3-1.7,0.4
		c-0.1,0-0.1,0-0.2,0c-0.4,0.1-0.7,0-1-0.2c-0.3-0.2-0.6-0.5-0.8-0.9c-0.1-0.3-0.1-0.5,0-0.8c0.1-0.3,0.3-0.4,0.7-0.5
		c0.6-0.1,1.1-0.1,1.4-0.2c0.2,0,0.4-0.1,0.5-0.2s0.2-0.2,0.3-0.4c0.2-0.4,0.3-1.6,0.1-3.7c-0.2-2-0.6-5.6-1.3-10.6
		c0-0.1-0.1-0.2-0.3-0.2l-3.2,0.5c-0.1,0-0.2,0.1-0.2,0.3c0.5,3.8,0.6,7.1,0.5,9.9c-0.2,2.8-0.8,5.3-1.8,7.4
		c-0.2,0.3-0.4,0.5-0.7,0.5c-0.4,0.1-0.7,0-1-0.2c-0.3-0.2-0.5-0.5-0.6-0.8c0-0.1,0-0.1,0-0.2c0-0.3,0-0.6,0.1-0.8
		c0.9-1.8,1.4-4,1.5-6.5c0.1-2.5-0.1-5.4-0.5-8.8c0-0.1-0.1-0.2-0.2-0.2l-2.1,0.3c-0.3,0.1-0.7,0-0.9-0.2c-0.3-0.2-0.5-0.5-0.5-0.8
		c-0.1-0.3,0-0.7,0.2-1c0.2-0.3,0.5-0.5,0.8-0.5l2.1-0.3c0.1,0,0.2-0.1,0.2-0.2c-0.1-0.9-0.3-1.9-0.5-3.2c-0.1-0.3,0-0.7,0.2-1
		c0.2-0.3,0.5-0.5,0.8-0.5c0.4-0.1,0.7,0,1,0.2c0.3,0.2,0.5,0.5,0.5,0.8C17,75.2,17.2,76.2,17.3,77.1z M25.3,75.9
		c-0.1-0.4,0-0.9,0.3-1.2c0.3-0.4,0.6-0.6,1.1-0.6l6.4-1c0.4-0.1,0.8,0,1.2,0.3c0.4,0.3,0.6,0.6,0.7,1.1l2.9,18.5
		c0.1,0.4,0,0.7-0.2,1c-0.2,0.3-0.5,0.5-0.9,0.5c-0.4,0.1-0.7,0-1-0.2c-0.3-0.2-0.5-0.5-0.5-0.9l0-0.3c0-0.1-0.1-0.2-0.2-0.2
		l-4.1,0.7c-0.1,0-0.2,0.1-0.2,0.2l0.1,0.6c0.1,0.3,0,0.6-0.2,0.9c-0.2,0.3-0.5,0.4-0.8,0.5c-0.3,0.1-0.6,0-0.9-0.2
		c-0.3-0.2-0.4-0.5-0.5-0.8L25.3,75.9z M30.2,90.9c0,0.1,0.1,0.2,0.2,0.2l4.1-0.7c0.1,0,0.2-0.1,0.2-0.3l-2.3-14.3
		c0-0.1-0.1-0.2-0.2-0.2l-4.1,0.7c-0.1,0-0.2,0.1-0.2,0.2L30.2,90.9z"/>
	<path fill="#FCFF00" d="M42.9,69.8c2.1-0.3,3.3,0.4,3.6,2.2l2.7,17.4c0.2,1.3-0.3,2.1-1.4,2.3c-1.1,0.2-1.8-0.4-2-1.7l-2.6-16.8
		l-2.5,0.4c-1.4,0.2-2.1-0.3-2.3-1.4c-0.2-1.1,0.4-1.8,1.8-2L42.9,69.8z"/>
	<path fill="#FCFF00" d="M56.9,67.2c0.1-0.3,0.3-0.6,0.6-0.8c0.2-0.1,0.3-0.2,0.5-0.2c0.1,0,0.3,0,0.4,0c0.3,0.1,0.6,0.2,0.8,0.5
		c0.1,0.1,0.2,0.3,0.2,0.5c0,0.1,0,0.3,0,0.4c-0.4,1.6-0.8,3.2-1.4,5c-0.1,0.1-0.1,0.3,0,0.4L60.7,90c0.1,0.3,0,0.6-0.2,0.9
		c-0.2,0.3-0.5,0.4-0.8,0.5c-0.3,0.1-0.6,0-0.9-0.2s-0.4-0.5-0.5-0.8l-2.1-13.2c0,0,0-0.1-0.1-0.1s-0.1,0-0.1,0
		c-0.3,0.6-0.5,1.1-0.8,1.6c-0.2,0.3-0.4,0.4-0.6,0.5c-0.1,0-0.1,0-0.2,0c-0.3,0-0.6-0.1-0.8-0.4c-0.2-0.3-0.4-0.6-0.4-1
		c0-0.1,0-0.1,0-0.2c0-0.4,0.1-0.8,0.3-1.2C54.9,73.7,56.1,70.6,56.9,67.2z M77.2,76.5c0.4-0.1,0.7,0,1,0.2c0.3,0.2,0.5,0.5,0.5,0.8
		c0.1,0.3,0,0.7-0.2,0.9C78.3,78.8,78,79,77.6,79l-5.9,0.9c-0.1,0-0.2,0.1-0.2,0.2l1.2,7.9c0.1,0.4,0,0.7-0.2,1
		c-0.2,0.3-0.5,0.5-0.9,0.5s-0.7,0-1-0.2c-0.3-0.2-0.5-0.5-0.5-0.9L69,80.6c0-0.1-0.1-0.2-0.2-0.2l-6.2,1c-0.3,0.1-0.7,0-0.9-0.2
		c-0.3-0.2-0.5-0.5-0.5-0.8c-0.1-0.3,0-0.7,0.2-0.9s0.5-0.4,0.8-0.5l6.2-1c0.1,0,0.2-0.1,0.2-0.2l-0.8-5.1c0-0.1-0.1-0.2-0.2-0.2
		L64,73c-0.1,0-0.2,0.1-0.2,0.2c-0.2,1.1-0.5,2-0.7,2.8c-0.1,0.3-0.3,0.5-0.7,0.7c-0.1,0-0.2,0.1-0.3,0.1c-0.2,0-0.4,0-0.7-0.1
		c-0.3-0.1-0.5-0.3-0.7-0.7c-0.1-0.1-0.1-0.2-0.1-0.3c0-0.2,0-0.4,0.1-0.6c0.7-2,1.2-4.4,1.3-7.3c0-0.4,0.2-0.7,0.4-0.9
		c0.2-0.2,0.4-0.3,0.7-0.3c0.1,0,0.2,0,0.2,0c0.4,0,0.7,0.2,0.9,0.4c0.2,0.2,0.3,0.4,0.3,0.6c0,0.1,0,0.2,0,0.3
		c-0.1,0.7-0.1,1.4-0.2,2.2c0,0.1,0,0.1,0,0.1c0,0,0.1,0.1,0.1,0l2.7-0.4c0.1,0,0.2-0.1,0.2-0.2L66.7,66c-0.1-0.4,0-0.7,0.2-1
		c0.2-0.3,0.5-0.5,0.9-0.5c0.4-0.1,0.7,0,1,0.2s0.5,0.5,0.5,0.9l0.6,3.6c0,0.1,0.1,0.2,0.2,0.2l4.6-0.7c0.4-0.1,0.7,0,1,0.2
		c0.3,0.2,0.4,0.5,0.5,0.8c0.1,0.4,0,0.7-0.2,0.9c-0.2,0.3-0.5,0.5-0.8,0.5l-4.6,0.7c-0.1,0-0.2,0.1-0.2,0.2l0.8,5.1
		c0,0.1,0.1,0.2,0.2,0.2L77.2,76.5z"/>
	<path fill="#FCFF00" d="M83.1,64.2c0.2-0.3,0.5-0.6,0.8-0.8c0.2-0.1,0.3-0.1,0.5-0.2s0.4,0,0.6,0c0.3,0.1,0.6,0.2,0.7,0.5
		c0,0.1,0.1,0.2,0.1,0.3c0,0.2,0,0.4-0.1,0.6c-1,1.8-2.2,3.5-3.8,5.1c-0.2,0.2-0.5,0.4-0.9,0.4c0,0-0.1,0-0.1,0
		c-0.4,0-0.8-0.1-1.1-0.3c-0.2-0.2-0.4-0.4-0.4-0.7c-0.1-0.4,0-0.7,0.3-0.9C81.1,67,82.3,65.7,83.1,64.2z M95.3,66
		c0.3-0.3,0.6-0.5,0.9-0.7c0.1,0,0.2-0.1,0.4-0.1c0.3,0,0.5,0,0.8,0c0.3,0.1,0.5,0.3,0.6,0.6c0,0.1,0,0.1,0.1,0.2
		c0,0.2,0,0.5-0.2,0.7c-1.5,1.9-3.6,3.7-6.3,5.3c0,0,0,0,0,0c0,0,0,0,0,0l7.8-1.2c0.4-0.1,0.8,0,1.2,0.3c0.4,0.3,0.6,0.6,0.7,1.1
		l1.7,11c0.1,0.4,0,0.7-0.2,1c-0.2,0.3-0.5,0.5-0.9,0.5l-0.6,0.1c-0.2,0-0.4,0-0.5-0.1c-0.2-0.1-0.3-0.3-0.3-0.5
		c0-0.1-0.1-0.1-0.1-0.1l-11,1.7c-0.1,0-0.1,0.1-0.1,0.1c0,0.2,0,0.5-0.2,0.6c-0.1,0.2-0.3,0.3-0.6,0.4L88.1,87
		c-0.3,0.1-0.6,0-0.9-0.2c-0.3-0.2-0.4-0.5-0.5-0.8l-1.7-10.6c0-0.1-0.1-0.2-0.2-0.1c-0.7,0.3-1.5,0.6-2.4,0.9
		c-0.1,0-0.2,0.1-0.3,0.1c-0.3,0-0.6,0-0.9,0c-0.4-0.1-0.8-0.3-1.1-0.6c-0.1-0.1-0.2-0.3-0.2-0.5c0-0.1,0-0.2,0-0.3
		c0.1-0.3,0.2-0.5,0.5-0.6C87.7,71.9,92.7,69.2,95.3,66z M89.2,61.2c0.2-0.3,0.3-0.4,0.3-0.4s0.2,0,0.5-0.1c0.4-0.1,0.7,0,1,0.2
		c0.3,0.2,0.5,0.5,0.5,0.8l0.8,4.9c0.1,0.6,0.1,1.1-0.1,1.5c-0.1,0.4-0.4,0.7-0.9,0.9c-0.6,0.3-1.6,0.6-3.1,0.8l0,0
		c-0.3,0.1-0.7,0-1-0.1c-0.3-0.2-0.6-0.4-0.8-0.7c-0.2-0.2-0.2-0.5-0.1-0.7c0.1-0.2,0.3-0.4,0.6-0.4c0.6-0.1,1.1-0.1,1.5-0.2
		c0.3-0.1,0.6-0.1,0.8-0.1c0.2-0.1,0.4-0.1,0.5-0.2c0.1-0.1,0.1-0.2,0.1-0.4L89,62.1C88.9,61.8,89,61.5,89.2,61.2z M98.8,74.8
		c0.1,0,0.2-0.1,0.2-0.3l-0.2-1.4c0-0.1-0.1-0.2-0.3-0.2l-10.8,1.7c-0.1,0-0.2,0.1-0.2,0.2l0.2,1.4c0,0.1,0.1,0.2,0.2,0.2L98.8,74.8
		z M88.2,78.3c-0.1,0-0.2,0.1-0.2,0.2l0.2,1.5c0,0.1,0.1,0.2,0.2,0.2l10.8-1.7c0.1,0,0.2-0.1,0.2-0.2l-0.2-1.5
		c0-0.1-0.1-0.2-0.2-0.2L88.2,78.3z M88.9,83.7c0,0.1,0.1,0.2,0.2,0.2l10.8-1.7c0.1,0,0.2-0.1,0.2-0.2l-0.2-1.5
		c0-0.1-0.1-0.2-0.2-0.2L88.8,82c-0.1,0-0.2,0.1-0.2,0.2L88.9,83.7z M96,62.9c-0.2-0.1-0.4-0.4-0.4-0.6c0-0.3,0-0.6,0.3-0.8
		c0.3-0.2,0.6-0.4,0.9-0.4l0,0c0.4,0,0.7,0,1.1,0.2c1.8,1,3.4,1.9,4.7,2.9c0.2,0.2,0.4,0.4,0.4,0.7c0,0.1,0,0.1,0,0.2
		c0,0.4-0.1,0.6-0.4,0.9c-0.2,0.2-0.5,0.3-0.7,0.4c-0.1,0-0.2,0-0.2,0c-0.4,0-0.7-0.1-1-0.3C99.4,64.9,97.9,63.9,96,62.9z"/>
	<path fill="#FCFF00" d="M111.7,50.1c3.4-0.5,5.3,0.5,5.6,2.9l3.9,24.5c0.3,2.1-0.4,3.3-2.2,3.6c-1.8,0.3-2.8-0.6-3.2-2.8l-3.6-22.8
		l-2.9,0.5c-2.2,0.3-3.4-0.4-3.6-2.2c-0.3-1.8,0.7-2.8,2.8-3.2L111.7,50.1z"/>
	<path fill="#FCFF00" d="M140.5,77.9c-3.1,0.5-5.7-0.3-8-2.2c-2.3-1.9-3.9-6-4.9-12.1c-0.9-6-0.6-10.3,1-13c1.6-2.6,3.9-4.1,6.9-4.6
		c3-0.5,5.7,0.3,8,2.2c2.3,2,4,6,4.9,12c0.9,6.2,0.6,10.5-0.9,13C145.8,75.9,143.5,77.4,140.5,77.9z M142.7,70.1
		c0.9-1.6,1-4.6,0.3-9c-0.7-4.2-1.7-7-3.1-8.4c-1.1-1.1-2.3-1.6-3.7-1.4c-1.4,0.2-2.4,1-3.1,2.4c-0.8,1.7-0.9,4.7-0.2,8.9
		c0.7,4.4,1.7,7.3,3,8.5c1.1,1.1,2.3,1.5,3.7,1.3C141,72.3,142,71.5,142.7,70.1z"/>
	<path fill="#FCFF00" d="M163.1,74.3c-3.1,0.5-5.7-0.3-8-2.2c-2.3-1.9-3.9-6-4.9-12.1c-0.9-6-0.6-10.3,1-13c1.6-2.6,3.9-4.1,6.9-4.6
		c3-0.5,5.7,0.3,8,2.2c2.3,2,4,6,4.9,12c0.9,6.2,0.6,10.5-0.9,13C168.4,72.3,166.1,73.8,163.1,74.3z M165.4,66.5
		c0.9-1.6,1-4.6,0.3-9c-0.7-4.2-1.7-7-3.1-8.4c-1.1-1.1-2.3-1.6-3.7-1.4c-1.4,0.2-2.4,1-3.1,2.4c-0.8,1.7-0.9,4.7-0.2,8.9
		c0.7,4.4,1.7,7.3,3,8.5c1.1,1.1,2.3,1.5,3.7,1.3C163.6,68.7,164.6,67.9,165.4,66.5z"/>
	<path fill="#FCFF00" d="M182.4,60.6c-0.4-0.3-0.7-0.8-0.8-1.3c-0.1-0.6,0-1.1,0.4-1.5c0.3-0.4,0.8-0.7,1.3-0.8
		c0.6-0.1,1.1,0,1.5,0.4s0.7,0.8,0.8,1.3c0.1,0.6,0,1.1-0.4,1.5c-0.3,0.4-0.8,0.7-1.3,0.8C183.3,61,182.8,60.9,182.4,60.6z"/>
	<path fill="#FCFF00" d="M200,52.8c0.3,0.2,0.6,0.4,0.6,0.8c0,0.1,0,0.1,0.1,0.2c0,0.3,0,0.6-0.1,0.8c-0.2,0.3-0.4,0.5-0.7,0.6
		c-0.1,0-0.1,0-0.2,0c-0.3,0-0.5,0-0.8-0.1c-0.8-0.4-1.6-0.7-2.5-1c-0.3-0.1-0.5-0.3-0.6-0.6c0-0.1-0.1-0.2-0.1-0.2
		c0-0.2,0-0.4,0.1-0.6c0.2-0.3,0.4-0.5,0.7-0.7c0.1-0.1,0.3-0.1,0.4-0.1c0.2,0,0.4,0,0.6,0C198.4,52.2,199.3,52.5,200,52.8z
		 M216,48.1c0.1,0.5,0,0.9-0.3,1.2c-0.3,0.4-0.6,0.6-1.1,0.6l-2.4,0.4c-0.1,0-0.2,0.1-0.2,0.2l0.2,1.2c0,0.1,0.1,0.2,0.2,0.2
		l5.8-0.9c0.5-0.1,0.9,0,1.2,0.3c0.4,0.3,0.6,0.6,0.6,1.1l1.7,11c0.1,0.5,0.1,1,0,1.3c-0.1,0.3-0.3,0.6-0.6,0.8
		c-0.4,0.3-1.2,0.5-2.4,0.7c-0.3,0-0.6,0-0.8-0.1c-0.3-0.1-0.5-0.4-0.6-0.6c-0.1-0.2-0.1-0.4,0-0.6c0.1-0.2,0.3-0.3,0.5-0.4
		c0.4-0.1,0.9-0.1,1.3-0.2c0.2,0,0.3-0.1,0.3-0.1c0-0.1,0.1-0.2,0-0.3l-0.3-2.1c0,0,0,0,0,0c0,0-0.1,0-0.1,0
		c-0.2,0.2-0.4,0.4-0.7,0.4s-0.5,0-0.7-0.3c-0.4-0.5-0.8-1.1-1.2-1.7c0,0,0,0-0.1,0c0,0-0.1,0,0,0c-0.2,0.8-0.4,1.6-0.8,2.2
		c-0.2,0.3-0.4,0.4-0.7,0.4c-0.3,0-0.6,0-0.9-0.2c0,0,0,0-0.1,0c0,0,0,0,0,0.1l0.5,3.1c0,0.3,0,0.6-0.2,0.9
		c-0.2,0.3-0.4,0.4-0.7,0.5s-0.6,0-0.8-0.2c-0.3-0.2-0.4-0.4-0.5-0.7l-0.5-3c0,0,0-0.1-0.1-0.1c0,0,0,0-0.1,0
		c-0.2,0.2-0.4,0.3-0.7,0.4c-0.3,0-0.5,0-0.7-0.2c-0.4-0.5-0.7-1.1-1.1-1.7c0,0,0,0-0.1,0c0,0,0,0,0,0c-0.1,0.8-0.4,1.6-0.7,2.2
		c-0.2,0.3-0.4,0.4-0.7,0.5c0,0,0,0-0.1,0c-0.3,0-0.6,0-0.9-0.2c0,0-0.1,0-0.1,0c0,0,0,0.1,0,0.1l0.5,3.1c0,0.3,0,0.6-0.2,0.8
		c-0.2,0.2-0.4,0.4-0.7,0.4c-0.3,0-0.6,0-0.8-0.2c-0.3-0.2-0.4-0.4-0.4-0.7L203,55.2c-0.1-0.4,0-0.9,0.3-1.2c0.3-0.4,0.6-0.6,1-0.6
		l5.6-0.9c0.1,0,0.2-0.1,0.2-0.3l-0.2-1.2c0-0.1-0.1-0.2-0.3-0.2l-2.2,0.3c-0.4,0.1-0.8,0-1.2-0.3c-0.4-0.3-0.6-0.6-0.7-1.1
		l-0.4-2.4c0-0.1-0.1-0.2-0.2-0.2l-2.4,0.4c-0.4,0.1-0.7,0-1-0.2c-0.3-0.2-0.5-0.5-0.5-0.9c0,0,0,0,0,0c0,0-0.1,0-0.1,0l-0.3,0.6
		c-0.2,0.4-0.5,0.6-0.9,0.7c-0.1,0-0.1,0-0.2,0.1c-0.3,0.1-0.7,0-1-0.2c-0.7-0.3-1.4-0.7-2.2-1c-0.3-0.1-0.5-0.3-0.6-0.6
		c0-0.1,0-0.1-0.1-0.2c0-0.2,0-0.4,0.1-0.6c0.2-0.3,0.4-0.5,0.7-0.7c0.1,0,0.2-0.1,0.3-0.1c0.2,0,0.4,0,0.6,0.1
		c1.5,0.5,2.7,1,3.5,1.5c0,0,0,0,0,0c0,0,0,0,0,0c0-0.1,0-0.3,0.1-0.4c0.1-0.1,0.2-0.2,0.3-0.2l3.2-0.5c0.1,0,0.2-0.1,0.2-0.2
		l-0.1-0.9c-0.1-0.3,0-0.6,0.2-0.9c0.2-0.3,0.5-0.4,0.8-0.5c0.3-0.1,0.6,0,0.9,0.2c0.3,0.2,0.4,0.5,0.5,0.8l0.1,0.9
		c0,0.1,0.1,0.2,0.3,0.2l5-0.8c0.1,0,0.2-0.1,0.2-0.2l-0.1-0.9c-0.1-0.3,0-0.7,0.2-0.9c0.2-0.3,0.5-0.5,0.8-0.5
		c0.4-0.1,0.7,0,0.9,0.2c0.3,0.2,0.4,0.5,0.5,0.8l0.1,0.9c0,0.1,0.1,0.2,0.3,0.2l2.8-0.4c0.3-0.1,0.6,0,0.9,0.2
		c0.3,0.2,0.4,0.4,0.5,0.8c0,0.3,0,0.6-0.2,0.9c-0.2,0.3-0.4,0.4-0.8,0.5l-2.8,0.4c-0.1,0-0.2,0.1-0.2,0.2L216,48.1z M200.8,67.6
		c-0.1,0.4-0.3,0.6-0.6,0.8c-0.1,0.1-0.3,0.1-0.4,0.1c-0.2,0-0.4,0-0.6-0.1c-0.4-0.1-0.6-0.4-0.8-0.7c-0.1-0.1-0.1-0.3-0.1-0.4
		c0-0.2,0-0.4,0-0.6c0.6-2.1,1.2-4.4,1.7-6.8c0.1-0.3,0.2-0.5,0.5-0.7c0.1-0.1,0.2-0.1,0.3-0.1c0.2,0,0.4,0,0.5,0.1
		c0.4,0.1,0.6,0.4,0.8,0.7c0.1,0.2,0.1,0.3,0.2,0.5c0,0.2,0,0.4,0,0.6C201.9,63.2,201.4,65.4,200.8,67.6z M206.8,57.9
		c-0.2-0.1-0.3-0.3-0.3-0.5c0-0.2,0-0.4,0.2-0.6c0.1-0.2,0.3-0.3,0.5-0.3l0.5-0.1c0.4-0.1,0.7,0,1,0.2c0.3,0.2,0.5,0.5,0.6,0.9
		c0.5,2.2,1.3,3.7,2.1,4.7c0,0,0,0,0.1,0c0,0,0,0,0-0.1l-1.1-7.3c0-0.1-0.1-0.2-0.2-0.2l-4.8,0.8c-0.1,0-0.2,0.1-0.2,0.2l1.2,7.8
		c0,0.1,0,0.1,0.1,0.1c0,0,0.1,0,0.1,0c0.7-1,1.1-2.4,1.1-4.1c0-0.1,0-0.2,0.1-0.4c0.1-0.1,0.2-0.2,0.3-0.2c0,0,0.1,0,0-0.1
		l-0.2-0.7c0-0.1-0.1-0.1-0.2-0.1l-0.5,0.1C207.2,58.1,207,58,206.8,57.9z M207.9,46.8c-0.1,0-0.2,0.1-0.2,0.2l0.3,1.6
		c0,0.1,0.1,0.2,0.3,0.2l5-0.8c0.1,0,0.2-0.1,0.2-0.2l-0.3-1.6c0-0.1-0.1-0.2-0.2-0.2L207.9,46.8z M218,53.6c0-0.1-0.1-0.2-0.2-0.2
		l-4.9,0.8c-0.1,0-0.2,0.1-0.2,0.2l1.2,7.5c0,0,0,0.1,0.1,0.1c0,0,0.1,0,0.1,0c0.8-1,1.1-2.2,1.1-3.8c0-0.1,0-0.2,0.1-0.3
		c0.1-0.1,0.2-0.2,0.3-0.2c0,0,0.1,0,0-0.1c0-0.2-0.1-0.4-0.2-0.7c0-0.1-0.1-0.2-0.2-0.1l-0.4,0.1c-0.2,0-0.4,0-0.6-0.1
		c-0.2-0.1-0.3-0.3-0.3-0.5c0-0.2,0-0.4,0.2-0.6c0.1-0.2,0.3-0.3,0.6-0.3l0.5-0.1c0.4-0.1,0.7,0,1,0.2c0.3,0.2,0.5,0.5,0.6,0.9
		c0.6,2.2,1.4,3.8,2.3,4.7c0,0,0.1,0,0.1,0c0,0,0,0,0-0.1L218,53.6z"/>
	<path fill="#FCFF00" d="M225.8,61.5c-1.7-1.1-2.8-2.6-3.1-4.4c-0.3-1.9,0.2-3.6,1.5-5.2c0.2-0.3,0.4-0.5,0.6-0.6
		c-0.1-0.1-0.2-0.1-0.2-0.1c-1.6-1-2.5-2.3-2.7-3.9c-0.3-1.7,0.2-3.2,1.4-4.6c1.1-1.2,2.5-2,4.5-2.3c1.9-0.3,3.5,0,4.9,0.8
		c1.6,1,2.5,2.3,2.8,4c0.2,1.6-0.2,3.2-1.4,4.6c0,0-0.1,0.1-0.1,0.2c0.3,0.1,0.5,0.3,0.8,0.4c1.8,1.1,2.8,2.6,3.1,4.5
		c0.3,1.9-0.2,3.6-1.6,5.2c-1.1,1.4-2.8,2.2-4.9,2.6C229.2,62.8,227.3,62.5,225.8,61.5z M230.8,43.9c-0.6-0.3-1.4-0.4-2.4-0.3
		c-1,0.2-1.8,0.5-2.3,1c-0.7,0.7-0.9,1.4-0.8,2.1c0.1,0.7,0.6,1.3,1.4,1.7c0.6,0.3,1.5,0.4,2.5,0.3c1-0.2,1.7-0.5,2.2-1
		c0.7-0.7,1-1.3,0.8-2.1C232.1,44.9,231.6,44.3,230.8,43.9z M229.8,52.6c-1.2,0.2-2.1,0.6-2.7,1.3c-0.8,0.9-1.1,1.8-1,2.7
		c0.1,0.9,0.7,1.7,1.8,2.2c0.8,0.4,1.8,0.5,3,0.4c1.2-0.2,2.1-0.6,2.7-1.3c0.8-0.9,1.1-1.8,1-2.7c-0.1-0.9-0.7-1.7-1.8-2.3
		C232,52.5,231,52.4,229.8,52.6z"/>
	<path fill="#FCFF00" d="M241.8,59c-1.7-1.1-2.8-2.6-3.1-4.4c-0.3-1.9,0.2-3.6,1.5-5.2c0.2-0.3,0.4-0.5,0.6-0.6
		c-0.1-0.1-0.2-0.1-0.2-0.1c-1.6-1-2.5-2.3-2.7-3.9c-0.3-1.7,0.2-3.2,1.4-4.6c1.1-1.2,2.5-2,4.5-2.3c1.9-0.3,3.5,0,4.9,0.8
		c1.6,1,2.5,2.3,2.8,4c0.2,1.6-0.2,3.2-1.4,4.6c0,0-0.1,0.1-0.1,0.2c0.3,0.1,0.5,0.3,0.8,0.4c1.8,1.1,2.8,2.6,3.1,4.5
		c0.3,1.9-0.2,3.6-1.6,5.2c-1.1,1.4-2.8,2.2-4.9,2.6C245.1,60.2,243.3,59.9,241.8,59z M246.7,41.3c-0.6-0.3-1.4-0.4-2.4-0.3
		c-1,0.2-1.8,0.5-2.3,1c-0.7,0.7-0.9,1.4-0.8,2.1c0.1,0.7,0.6,1.3,1.4,1.7c0.6,0.3,1.5,0.4,2.5,0.3c1-0.2,1.7-0.5,2.2-1
		c0.7-0.7,1-1.3,0.8-2.1C248,42.3,247.5,41.8,246.7,41.3z M245.7,50.1c-1.2,0.2-2.1,0.6-2.7,1.3c-0.8,0.9-1.1,1.8-1,2.7
		c0.1,0.9,0.7,1.7,1.8,2.2c0.8,0.4,1.8,0.5,3,0.4c1.2-0.2,2.1-0.6,2.7-1.3c0.8-0.9,1.1-1.8,1-2.7c-0.1-0.9-0.7-1.7-1.8-2.3
		C247.9,50,246.9,49.9,245.7,50.1z"/>
	<path fill="#FCFF00" d="M257.8,56.5c-1.7-1.1-2.8-2.6-3.1-4.4c-0.3-1.9,0.2-3.6,1.5-5.2c0.2-0.3,0.4-0.5,0.6-0.6
		c-0.1-0.1-0.2-0.1-0.2-0.1c-1.6-1-2.5-2.3-2.7-3.9c-0.3-1.7,0.2-3.2,1.4-4.6c1.1-1.2,2.5-2,4.5-2.3c1.9-0.3,3.5,0,4.9,0.8
		c1.6,1,2.5,2.3,2.8,4c0.2,1.6-0.2,3.2-1.4,4.6c0,0-0.1,0.1-0.1,0.2c0.3,0.1,0.5,0.3,0.8,0.4c1.8,1.1,2.8,2.6,3.1,4.5
		c0.3,1.9-0.2,3.6-1.6,5.2c-1.1,1.4-2.8,2.2-4.9,2.6C261.1,57.7,259.3,57.4,257.8,56.5z M262.7,38.8c-0.6-0.3-1.4-0.4-2.4-0.3
		c-1,0.2-1.8,0.5-2.3,1c-0.7,0.7-0.9,1.4-0.8,2.1c0.1,0.7,0.6,1.3,1.4,1.7c0.6,0.3,1.5,0.4,2.5,0.3c1-0.2,1.7-0.5,2.2-1
		c0.7-0.7,1-1.3,0.8-2.1C264,39.8,263.5,39.2,262.7,38.8z M261.7,47.5c-1.2,0.2-2.1,0.6-2.7,1.3c-0.8,0.9-1.1,1.8-1,2.7
		c0.1,0.9,0.7,1.7,1.8,2.2c0.8,0.4,1.8,0.5,3,0.4c1.2-0.2,2.1-0.6,2.7-1.3c0.8-0.9,1.1-1.8,1-2.7c-0.1-0.9-0.7-1.7-1.8-2.3
		C263.9,47.5,262.9,47.4,261.7,47.5z"/>
	<path fill="#FCFF00" d="M279.5,44c0,0.1,0,0.1,0.1,0.2c0,0.3,0,0.5-0.1,0.8c-0.1,0.3-0.4,0.6-0.7,0.7l-1.9,0.9
		c-0.1,0.1-0.2,0.1-0.2,0.3l1.1,7.2c0.1,0.7,0.1,1.2,0,1.6c-0.1,0.4-0.4,0.7-0.7,1c-0.5,0.3-1.4,0.6-2.6,0.9l0,0
		c-0.3,0.1-0.7,0-1-0.2c-0.3-0.2-0.5-0.5-0.7-0.8c-0.1-0.3-0.1-0.5,0-0.8c0.1-0.3,0.3-0.4,0.6-0.5c0.3,0,0.5,0,0.7-0.1
		c0.3-0.1,0.6-0.1,0.8-0.1c0.2,0,0.3-0.1,0.4-0.2c0.1-0.1,0.1-0.2,0.1-0.5l-1-6.5c0-0.1,0-0.1-0.1-0.1s-0.1,0-0.1,0l-2,0.9
		c-0.1,0.1-0.2,0.1-0.4,0.1c-0.2,0-0.4,0-0.6-0.1c-0.3-0.1-0.6-0.4-0.7-0.7c-0.1-0.1-0.1-0.2-0.1-0.3c0-0.2,0-0.5,0.1-0.7
		c0.1-0.3,0.4-0.6,0.7-0.7c0.8-0.3,1.6-0.7,2.6-1.1c0.1-0.1,0.2-0.1,0.2-0.3l-0.8-5.1c0-0.1-0.1-0.2-0.2-0.2l-2.3,0.4
		c-0.3,0.1-0.6,0-0.9-0.2c-0.3-0.2-0.4-0.5-0.5-0.8c-0.1-0.3,0-0.6,0.2-0.9c0.2-0.3,0.5-0.4,0.8-0.5l2.3-0.4c0.1,0,0.2-0.1,0.2-0.2
		l-0.6-3.9c-0.1-0.3,0-0.7,0.2-0.9c0.2-0.3,0.5-0.5,0.8-0.5c0.3-0.1,0.7,0,0.9,0.2c0.3,0.2,0.5,0.5,0.5,0.8l0.6,3.9
		c0,0.1,0.1,0.2,0.2,0.2l1.6-0.2c0.3-0.1,0.6,0,0.9,0.2c0.3,0.2,0.4,0.4,0.5,0.8c0.1,0.3,0,0.6-0.2,0.9c-0.2,0.3-0.5,0.4-0.8,0.5
		l-1.6,0.2c-0.1,0-0.2,0.1-0.2,0.2l0.7,4.4c0,0.1,0,0.1,0.1,0.1c0,0,0.1,0,0.1,0c0.8-0.4,1.3-0.6,1.6-0.7c0.1-0.1,0.2-0.1,0.3-0.1
		c0.2,0,0.4,0,0.6,0.1C279.2,43.4,279.4,43.6,279.5,44z M293.5,38c0.3-0.1,0.7,0,0.9,0.2c0.3,0.2,0.4,0.5,0.5,0.8
		c0.1,0.3,0,0.6-0.2,0.9c-0.2,0.3-0.5,0.4-0.8,0.5l-2.8,0.4c-0.1,0-0.2,0.1-0.2,0.2l1.9,12.2c0.1,0.3,0,0.7-0.2,0.9
		c-0.2,0.3-0.5,0.5-0.8,0.5c-0.4,0.1-0.7,0-1-0.2c-0.3-0.2-0.5-0.5-0.5-0.8l-1.9-12.2c0-0.1-0.1-0.2-0.2-0.2l-4.4,0.7
		c-0.1,0-0.2,0.1-0.2,0.2c0.1,1.1,0.3,2.1,0.3,3.1c0.1,1,0.1,2.1,0,3.2c-0.1,1.2-0.2,2.3-0.5,3.4c-0.3,1.1-0.7,2.2-1.2,3.2
		c-0.2,0.3-0.4,0.5-0.7,0.5c0,0,0,0-0.1,0c-0.3,0-0.6-0.1-0.9-0.3c-0.3-0.2-0.5-0.5-0.6-0.8c0-0.1,0-0.1-0.1-0.2
		c0-0.3,0-0.5,0.1-0.8c0.5-0.9,0.8-1.9,1-2.9c0.2-1,0.4-2.1,0.4-3.2c0-1.1,0-2-0.1-2.9c-0.1-0.9-0.2-1.8-0.4-2.9l-1.2-7.3
		c-0.1-0.4,0-0.8,0.3-1.1c0.2-0.3,0.5-0.4,0.8-0.5c0.1,0,0.1,0,0.2,0l0.6,0c0.1,0,0.3,0,0.4-0.1c2.9-1,5.3-2,7.2-2.9
		c0.2-0.1,0.5-0.2,0.7-0.2c0.2,0,0.4,0,0.5,0c0.4,0,0.8,0.2,1.2,0.5c0.2,0.2,0.3,0.3,0.4,0.6c0,0.1,0,0.2,0,0.3
		c0,0.3-0.2,0.6-0.5,0.7c-2.6,1.2-5.5,2.3-8.9,3.3c-0.1,0-0.2,0.1-0.2,0.2l0.7,4.2c0,0.1,0.1,0.2,0.2,0.2L293.5,38z"/>
	<path fill="#FCFF00" d="M297.2,22.7c0-1.3,0.7-2,2-2.2l11.3-1.8c2.1-0.3,3.3,0.4,3.6,2.1c0.3,1.8-0.7,2.8-2.7,3.1l-8.7,1.4l0,5.7
		c1-0.5,2-0.9,3-1c2.9-0.5,5.5,0.1,7.9,1.7c2.6,1.7,4.1,4,4.6,7.1c0.5,3.1-0.3,6-2.5,8.7c-1.7,2.1-3.8,3.3-6.3,3.7
		c-2.4,0.4-4.6,0.1-6.4-0.8c-2.1-1-3.6-2.3-4.7-4c-0.3-0.6-0.5-1.3-0.4-1.9c0.1-0.9,0.5-1.5,1.2-2c0.7-0.4,1.5-0.5,2.2-0.3
		c0.7,0.3,1.2,0.7,1.6,1.3c0.5,0.9,1.3,1.6,2.5,2.1c0.9,0.4,2,0.5,3.2,0.4c1.4-0.2,2.6-1,3.5-2.4c0.8-1.2,1.1-2.5,0.8-4
		c-0.2-1.5-1-2.6-2.2-3.4c-1.3-0.9-2.6-1.2-4.1-0.9c-1.8,0.3-3.3,1.1-4.5,2.5c-0.5,0.6-1,0.9-1.7,1c-0.8,0.1-1.5-0.1-2.1-0.5
		c-0.6-0.5-1-1.4-1-2.6L297.2,22.7z"/>
	<path fill="#FCFF00" d="M331.7,47.7c-3.1,0.5-5.7-0.3-8-2.2c-2.3-1.9-3.9-6-4.9-12.1c-0.9-6-0.6-10.3,1-13c1.6-2.6,3.9-4.1,6.9-4.6
		s5.7,0.3,8,2.2c2.3,2,4,6,4.9,12c0.9,6.2,0.6,10.5-0.9,13C337.1,45.7,334.7,47.2,331.7,47.7z M334,39.9c0.9-1.6,1-4.6,0.3-9
		c-0.7-4.2-1.7-7-3.1-8.4c-1.1-1.1-2.3-1.6-3.7-1.4c-1.4,0.2-2.4,1-3.1,2.4c-0.8,1.7-0.9,4.7-0.2,8.9c0.7,4.4,1.7,7.3,3,8.5
		c1.1,1.1,2.3,1.5,3.7,1.3C332.3,42.1,333.3,41.3,334,39.9z"/>
</g>
</svg>
