<?xml version="1.0" encoding="utf-8"?>
<!-- Generator: Adobe Illustrator 16.0.0, SVG Export Plug-In . SVG Version: 6.00 Build 0)  -->
<!DOCTYPE svg PUBLIC "-//W3C//DTD SVG 1.1//EN" "http://www.w3.org/Graphics/SVG/1.1/DTD/svg11.dtd">
<svg version="1.1" id="圖層_1" xmlns="http://www.w3.org/2000/svg" xmlns:xlink="http://www.w3.org/1999/xlink" x="0px" y="0px"
	 width="100%" height="100%" viewBox="0 0 305 135" enable-background="new 0 0 305 135" xml:space="preserve">
<g>
	<path fill="#FCFF00" d="M44.1,63.2c1.4-0.1,2.4,0.2,3.1,1.1c0.8,0.9,0.7,2.2-0.2,3.9c-2,4-3.4,7.9-4.2,11.5
		c-0.8,3.8-1.4,8.1-1.6,12.9c-0.1,0.9-0.2,1.7-0.5,2.4c-0.3,0.7-0.8,1.2-1.8,1.4c-0.8,0.2-1.5,0-2.2-0.6c-0.6-0.6-0.9-1.3-0.9-2.3
		c0.2-4,0.7-8.1,1.4-12.5c0.6-3.4,1.8-7.3,3.7-11.8l-12.3,2.2c-2.1,0.4-3.4-0.3-3.7-2.1c-0.3-1.8,0.6-2.9,2.7-3.2L44.1,63.2z"/>
	<path fill="#FCFF00" d="M60.4,80.8c0,0.1,0,0.1,0.1,0.2c0,0.3,0,0.5-0.1,0.8c-0.1,0.3-0.4,0.6-0.7,0.7l-1.9,0.9
		c-0.1,0.1-0.2,0.2-0.1,0.3l1.3,7.2c0.1,0.7,0.1,1.2,0,1.6c-0.1,0.4-0.3,0.7-0.7,1c-0.5,0.3-1.3,0.6-2.6,0.9l0,0
		c-0.3,0.1-0.7,0-1-0.2c-0.3-0.2-0.6-0.4-0.7-0.8c-0.1-0.3-0.1-0.5,0-0.8s0.3-0.4,0.6-0.5c0.3,0,0.5-0.1,0.7-0.1
		c0.3-0.1,0.6-0.1,0.7-0.2c0.2,0,0.3-0.1,0.4-0.2s0.1-0.2,0-0.5l-1.1-6.5c0-0.1,0-0.1-0.1-0.1c0,0-0.1,0-0.1,0l-1.9,0.9
		c-0.1,0.1-0.2,0.1-0.4,0.1c-0.2,0-0.4,0-0.6-0.1c-0.3-0.1-0.6-0.4-0.7-0.7c-0.1-0.1-0.1-0.2-0.1-0.3c0-0.2,0-0.5,0.1-0.7
		c0.1-0.3,0.4-0.6,0.7-0.7c0.8-0.3,1.6-0.7,2.5-1.2c0.1-0.1,0.2-0.2,0.1-0.3l-0.9-5.1c0-0.1-0.1-0.2-0.2-0.2l-2.3,0.4
		c-0.3,0.1-0.6,0-0.9-0.2c-0.3-0.2-0.4-0.5-0.5-0.8s0-0.6,0.2-0.9c0.2-0.3,0.5-0.4,0.8-0.5l2.3-0.4c0.1,0,0.2-0.1,0.2-0.2l-0.7-3.9
		c-0.1-0.3,0-0.7,0.2-0.9c0.2-0.3,0.5-0.5,0.8-0.5c0.3-0.1,0.7,0,1,0.2c0.3,0.2,0.5,0.5,0.5,0.8l0.7,3.9c0,0.1,0.1,0.2,0.2,0.2
		l1.6-0.3c0.3-0.1,0.6,0,0.9,0.2c0.3,0.2,0.4,0.4,0.5,0.8c0.1,0.3,0,0.6-0.2,0.9c-0.2,0.3-0.5,0.4-0.8,0.5l-1.6,0.3
		c-0.1,0-0.2,0.1-0.2,0.2l0.8,4.4c0,0.1,0,0.1,0.1,0.1s0.1,0,0.1,0c0.8-0.4,1.3-0.7,1.6-0.7c0.1-0.1,0.2-0.1,0.3-0.1
		c0.2,0,0.4,0,0.6,0.1C60.1,80.2,60.3,80.5,60.4,80.8z M74.3,74.5c0.3-0.1,0.7,0,0.9,0.2c0.3,0.2,0.5,0.5,0.5,0.8s0,0.6-0.2,0.9
		c-0.2,0.3-0.5,0.5-0.8,0.5l-2.8,0.5c-0.1,0-0.2,0.1-0.2,0.2l2.2,12.2c0.1,0.3,0,0.7-0.2,1c-0.2,0.3-0.5,0.5-0.8,0.5
		c-0.3,0.1-0.7,0-1-0.2c-0.3-0.2-0.5-0.5-0.5-0.8l-2.2-12.2c0-0.1-0.1-0.2-0.2-0.2l-4.4,0.8c-0.1,0-0.2,0.1-0.2,0.2
		c0.2,1.1,0.3,2.1,0.4,3.1c0.1,1,0.1,2.1,0.1,3.2s-0.2,2.3-0.5,3.4c-0.3,1.1-0.7,2.2-1.2,3.2c-0.2,0.3-0.4,0.5-0.7,0.5
		c0,0,0,0-0.1,0c-0.3,0-0.6,0-0.9-0.2c-0.3-0.2-0.5-0.5-0.6-0.8c0,0,0-0.1-0.1-0.2c0-0.3,0-0.5,0.1-0.8c0.5-0.9,0.8-1.9,1-2.9
		c0.2-1,0.3-2.1,0.3-3.2c0-1.1-0.1-2-0.2-2.9c-0.1-0.9-0.2-1.8-0.4-2.9l-1.3-7.3c-0.1-0.4,0-0.8,0.3-1.1c0.2-0.3,0.5-0.4,0.8-0.5
		c0.1,0,0.1,0,0.2,0l0.6,0c0.1,0,0.3,0,0.4-0.1c2.9-1,5.3-2.1,7.1-3c0.2-0.1,0.4-0.2,0.7-0.2c0.2,0,0.4,0,0.5,0
		c0.4,0,0.8,0.2,1.2,0.4c0.2,0.1,0.3,0.3,0.4,0.5c0,0.1,0,0.2,0,0.3c0,0.3-0.2,0.6-0.5,0.7c-2.5,1.3-5.5,2.4-8.9,3.5
		c-0.1,0-0.2,0.1-0.2,0.2l0.7,4.2c0,0.1,0.1,0.2,0.2,0.2L74.3,74.5z"/>
	<path fill="#FCFF00" d="M86.2,79.8c-0.1,0-0.2,0.1-0.2,0.3l0.8,4.7c0,0.1,0.1,0.2,0.2,0.2c1.3,0.2,3.2,0,5.7-0.4
		c0.5-0.1,1.6-0.3,3.4-0.6c0.4-0.1,0.7-0.1,1.1-0.2c2.4-0.4,4.3-0.8,5.7-1.1c0.3-0.1,0.6,0,0.8,0.3c0.1,0.1,0.2,0.3,0.2,0.5
		c0,0.1,0,0.2,0,0.4c-0.1,0.4-0.3,0.8-0.5,1.1c-0.3,0.3-0.6,0.5-1,0.5l-9.2,1.6c-2.9,0.5-5.2,0.6-6.9,0.3c-1.7-0.3-3.2-1.1-4.5-2.5
		c0,0-0.1,0-0.1,0c0,0,0,0,0,0.1c0,1.5-0.1,2.9-0.3,4c-0.1,0.3-0.2,0.6-0.5,0.7c-0.1,0.1-0.2,0.1-0.4,0.1c-0.2,0-0.4,0-0.6-0.1
		c-0.3-0.1-0.6-0.3-0.7-0.6c-0.1-0.1-0.1-0.3-0.2-0.4s0-0.3,0-0.5c0.4-2.1,0.3-5.5-0.4-9.9c0-0.3,0-0.6,0.2-0.9
		c0.2-0.2,0.4-0.4,0.7-0.4c0,0,0.1,0,0.1,0c0.3,0,0.7,0.1,0.9,0.3c0.3,0.2,0.4,0.5,0.5,0.8c0.1,0.4,0.2,1.1,0.3,2.3
		c0,0.1,0,0.3,0.1,0.4c0.8,1.4,1.6,2.5,2.6,3.1c0,0,0.1,0,0.1,0c0,0,0-0.1,0-0.1l-1.6-9.2c0-0.1-0.1-0.2-0.2-0.2L78,75.2
		c-0.3,0.1-0.6,0-0.9-0.2c-0.3-0.2-0.4-0.4-0.5-0.7s0-0.6,0.2-0.9c0.2-0.3,0.4-0.4,0.7-0.5l3.7-0.7c0.1,0,0.2-0.1,0.2-0.2l-0.5-2.7
		c0-0.1-0.1-0.2-0.3-0.2l-3,0.5c-0.3,0.1-0.6,0-0.9-0.2c-0.3-0.2-0.4-0.4-0.5-0.7c-0.1-0.3,0-0.6,0.2-0.9s0.4-0.4,0.7-0.5l3-0.5
		c0.1,0,0.2-0.1,0.2-0.2l-0.3-1.5c-0.1-0.3,0-0.6,0.2-0.9c0.2-0.3,0.5-0.5,0.8-0.5c0.3-0.1,0.7,0,0.9,0.2s0.5,0.5,0.5,0.8l0.3,1.5
		c0,0.1,0.1,0.2,0.2,0.2l2.9-0.5c0.3-0.1,0.6,0,0.9,0.2s0.4,0.4,0.5,0.8c0.1,0.3,0,0.6-0.2,0.9c-0.2,0.3-0.4,0.4-0.8,0.5l-2.9,0.5
		c-0.1,0-0.2,0.1-0.2,0.2l0.5,2.7c0,0.1,0.1,0.2,0.2,0.2l3.6-0.6c0.3-0.1,0.6,0,0.9,0.2c0.3,0.2,0.4,0.4,0.5,0.7
		c0.1,0.3,0,0.6-0.2,0.9c-0.2,0.3-0.4,0.4-0.7,0.5L85.1,74c-0.1,0-0.2,0.1-0.2,0.3l0.6,3.2c0,0.1,0.1,0.2,0.2,0.2l2.9-0.5
		c0.3-0.1,0.6,0,0.9,0.2c0.3,0.2,0.4,0.4,0.5,0.7c0.1,0.3,0,0.6-0.2,0.9c-0.2,0.3-0.4,0.4-0.8,0.5L86.2,79.8z M97.4,69.8
		c0.1,0,0.2-0.1,0.2-0.2l-0.8-4.7c0-0.1-0.1-0.2-0.2-0.2l-6.4,1.1c-0.3,0.1-0.6,0-0.9-0.2c-0.3-0.2-0.4-0.4-0.5-0.8
		c-0.1-0.3,0-0.6,0.2-0.9s0.4-0.4,0.8-0.5l7.4-1.3c0.4-0.1,0.8,0,1.2,0.3c0.4,0.3,0.6,0.6,0.7,1l1.3,7.5c0.1,0.3,0,0.7-0.2,0.9
		c-0.2,0.3-0.5,0.5-0.8,0.5l-0.6,0.1c-0.2,0-0.3,0-0.4-0.1c-0.1-0.1-0.2-0.2-0.3-0.4C98,72,98,72,98,72l-4.7,0.8
		c-0.1,0-0.2,0.1-0.2,0.3l1.1,6.2c0.1,0.5,0.2,0.7,0.4,0.8c0.2,0.1,0.6,0.1,1.2,0l3.9-0.7c0.5-0.1,0.8-0.3,0.9-0.6
		c0.1-0.3,0.1-1,0-2.1c0-0.3,0.1-0.5,0.3-0.7c0.2-0.2,0.5-0.2,0.8-0.2c0.4,0.1,0.7,0.3,1,0.5c0.2,0.2,0.3,0.5,0.4,0.7
		c0,0.1,0,0.1,0,0.2c0.1,1.5-0.1,2.5-0.5,3.2c-0.4,0.6-1.1,1-2.2,1.2l-4.4,0.8c-1.4,0.2-2.4,0.2-3-0.2c-0.6-0.4-1-1.2-1.2-2.6
		l-1.3-7.1c-0.1-0.4,0-0.8,0.3-1.2c0.3-0.4,0.6-0.6,1-0.7L97.4,69.8z"/>
	<path fill="#FCFF00" d="M128.1,72.6c0.3-0.1,0.6,0,0.9,0.2c0.3,0.2,0.4,0.5,0.5,0.8c0.1,0.3,0,0.6-0.2,0.9
		c-0.2,0.3-0.5,0.4-0.8,0.5l-1.9,0.3c-0.1,0-0.2,0.1-0.2,0.3l0.6,3.3c0.1,0.7,0.1,1.3,0,1.7s-0.4,0.8-0.9,1.1
		c-0.6,0.4-1.8,0.7-3.5,1.1c-0.4,0.1-0.7,0-1.1-0.2c-0.3-0.2-0.6-0.4-0.8-0.8c-0.2-0.3-0.2-0.5-0.1-0.8c0.1-0.3,0.3-0.4,0.6-0.5
		c0.5-0.1,0.8-0.1,1.1-0.2l0,0c0.3,0,0.6-0.1,0.9-0.2c0.3-0.1,0.5-0.1,0.5-0.1c0.3-0.1,0.4-0.1,0.5-0.2c0.1-0.1,0.1-0.3,0.1-0.5
		l-0.6-3.3c0-0.1-0.1-0.2-0.2-0.2l-13.5,2.4c-0.1,0-0.2,0.1-0.2,0.2l0.9,5c0.1,0.3,0,0.7-0.2,1c-0.2,0.3-0.5,0.5-0.8,0.5
		c-0.4,0.1-0.7,0-1-0.2c-0.3-0.2-0.5-0.5-0.5-0.8l-0.9-5c0-0.1-0.1-0.2-0.3-0.2l-1.8,0.3c-0.3,0.1-0.6,0-0.9-0.2s-0.4-0.5-0.5-0.8
		c-0.1-0.3,0-0.6,0.2-0.9c0.2-0.3,0.5-0.4,0.8-0.5l1.8-0.3c0.1,0,0.2-0.1,0.2-0.2l-1.5-8.4c-0.1-0.4,0-0.8,0.3-1.2
		c0.2-0.4,0.6-0.6,1-0.7l6.3-1.1c0.1,0,0.2-0.1,0.2-0.2l-0.3-1.9c0-0.1-0.1-0.2-0.3-0.2l-8.8,1.6c-0.3,0.1-0.6,0-0.9-0.2
		c-0.3-0.2-0.4-0.4-0.5-0.8s0-0.6,0.2-0.9c0.2-0.3,0.5-0.4,0.8-0.5l20.9-3.7c0.3-0.1,0.6,0,0.9,0.2c0.3,0.2,0.4,0.5,0.5,0.8
		s0,0.6-0.2,0.9c-0.2,0.3-0.5,0.4-0.8,0.5l-9.1,1.6c-0.1,0-0.2,0.1-0.2,0.3l0.3,1.9c0,0.1,0.1,0.2,0.2,0.2l6.5-1.1
		c0.4-0.1,0.9,0,1.2,0.3c0.4,0.3,0.6,0.6,0.7,1l1.5,8.4c0,0.1,0.1,0.2,0.2,0.2L128.1,72.6z M113.8,67.2c0-0.1-0.1-0.2-0.3-0.2
		l-5.2,0.9c-0.1,0-0.2,0.1-0.2,0.2l0.4,2.4c0,0.1,0.1,0.2,0.2,0.2l5.2-0.9c0.1,0,0.2-0.1,0.2-0.3L113.8,67.2z M109.3,72.9
		c-0.1,0-0.2,0.1-0.2,0.2l0.4,2.5c0,0.1,0.1,0.2,0.2,0.2l5.2-0.9c0.1,0,0.2-0.1,0.2-0.2l-0.4-2.5c0-0.1-0.1-0.2-0.2-0.2L109.3,72.9z
		 M122.1,65.7c0-0.1-0.1-0.2-0.2-0.2l-5.4,0.9c-0.1,0-0.2,0.1-0.2,0.3l0.4,2.4c0,0.1,0.1,0.2,0.3,0.2l5.4-0.9c0.1,0,0.2-0.1,0.2-0.2
		L122.1,65.7z M117.7,74.2c0,0.1,0.1,0.2,0.2,0.2l5.4-0.9c0.1,0,0.2-0.1,0.2-0.2l-0.4-2.5c0-0.1-0.1-0.2-0.2-0.2l-5.4,0.9
		c-0.1,0-0.2,0.1-0.2,0.2L117.7,74.2z"/>
	<path fill="#FCFF00" d="M134.1,58.5c0.3,0.2,0.4,0.4,0.5,0.8c0,0,0,0.1,0,0.1c0,0.4-0.1,0.7-0.3,1c-0.2,0.2-0.4,0.4-0.7,0.4
		c-0.1,0-0.1,0-0.2,0c-0.4,0-0.7-0.1-1-0.3c-0.9-0.8-2-1.5-3.3-2.1c-0.3-0.2-0.5-0.4-0.5-0.7c-0.1-0.3,0-0.6,0.2-0.8
		c0.2-0.3,0.5-0.5,0.9-0.5c0,0,0,0,0.1,0c0.3-0.1,0.7,0,1,0.1C132.1,57.2,133.2,57.8,134.1,58.5z M133.8,65.6c0.4-0.1,0.8,0,1.2,0.3
		s0.6,0.6,0.7,1l1.2,6.9c0,0.1,0.1,0.3,0.2,0.4c1.5,1.5,3.8,2,6.9,1.6c1.2-0.2,2.5-0.4,3.9-0.6c2.3-0.4,4.7-0.9,7.3-1.5
		c0,0,0,0,0.1,0c0.3-0.1,0.5,0,0.8,0.2c0.1,0.2,0.2,0.3,0.3,0.5c0,0.1,0,0.2,0,0.3c-0.1,0.4-0.2,0.8-0.5,1.1c-0.3,0.3-0.6,0.5-1,0.6
		c-2.1,0.4-4,0.8-5.7,1.1c-1.7,0.3-3.3,0.5-4.7,0.7c-1.7,0.3-3.2,0.2-4.5,0c-1.3-0.3-2.4-0.8-3.5-1.7c-0.1-0.1-0.2-0.1-0.3,0
		c-0.7,0.8-1.4,1.7-2.4,2.8c-0.2,0.2-0.4,0.3-0.7,0.4c-0.1,0-0.2,0-0.3,0c-0.4,0-0.7-0.2-0.9-0.5c-0.2-0.2-0.2-0.5-0.3-0.7
		c0-0.2,0-0.3,0-0.5c0-0.4,0.2-0.8,0.5-1.1c0.8-0.8,1.6-1.6,2.3-2.3c0.1-0.1,0.1-0.2,0.1-0.4l-1.1-6.1c0-0.1-0.1-0.2-0.2-0.2
		l-2.2,0.4c-0.3,0.1-0.6,0-0.9-0.2c-0.3-0.2-0.4-0.5-0.5-0.8c-0.1-0.3,0-0.6,0.2-0.9c0.2-0.3,0.5-0.4,0.8-0.5L133.8,65.6z
		 M153.8,62.3c0.3,0.2,0.4,0.4,0.5,0.7c0.1,0.3,0,0.6-0.2,0.9c-0.2,0.3-0.4,0.4-0.8,0.5l-5.5,1c0,0-0.1,0-0.1,0.1c0,0.1,0,0.1,0,0.1
		c1.5,2.5,3.8,4,6.6,4.6c0.3,0.1,0.5,0.2,0.6,0.5c0,0.1,0.1,0.2,0.1,0.3c0,0.2,0,0.4-0.1,0.6c-0.2,0.4-0.4,0.6-0.8,0.8
		c-0.2,0.1-0.3,0.1-0.5,0.2c-0.2,0-0.4,0-0.6,0c-2.7-0.7-4.9-2.3-6.6-4.7c0,0-0.1,0-0.1,0s-0.1,0-0.1,0.1c-0.6,2.4-2.2,4.6-4.8,6.6
		c-0.2,0.1-0.4,0.2-0.6,0.3c-0.1,0-0.3,0-0.4,0c-0.4,0-0.7-0.2-1-0.4c-0.2-0.2-0.4-0.4-0.4-0.7c0-0.3,0.1-0.5,0.4-0.7
		c2.7-1.9,4.2-4.1,4.4-6.6c0,0,0-0.1-0.1-0.1c0,0-0.1-0.1-0.1,0l-5.4,1c-0.3,0.1-0.6,0-0.9-0.2c-0.3-0.2-0.4-0.4-0.5-0.7
		c-0.1-0.3,0-0.6,0.2-0.9c0.2-0.3,0.4-0.4,0.7-0.5l5.7-1c0.1,0,0.2-0.1,0.2-0.2l0-0.1l-0.5-2.7c0-0.1-0.1-0.2-0.3-0.2l-4.8,0.8
		c-0.3,0.1-0.6,0-0.9-0.2c-0.3-0.2-0.4-0.4-0.5-0.8c-0.1-0.3,0-0.6,0.2-0.9c0.2-0.3,0.4-0.4,0.7-0.5l1.8-0.3c0,0,0.1,0,0.1-0.1
		c0,0,0-0.1,0-0.1c-0.5-0.8-1.1-1.7-2-2.6c-0.2-0.2-0.3-0.5-0.3-0.8c0-0.3,0.2-0.5,0.4-0.7c0.2-0.1,0.4-0.2,0.6-0.2
		c0.1,0,0.3,0,0.4,0c0.4,0,0.7,0.2,0.9,0.4c0.6,0.6,1.1,1.2,1.6,1.8c0.1,0.2,0.2,0.4,0.2,0.6c0,0.2,0,0.4,0,0.6
		c-0.1,0.4-0.3,0.7-0.7,1c0,0,0,0,0,0.1c0,0,0,0,0,0l6.4-1.1c0,0,0,0,0,0c0,0,0,0,0,0c-0.4-0.1-0.6-0.3-0.8-0.6
		c-0.1-0.1-0.1-0.3-0.1-0.4c0-0.2,0-0.4,0.1-0.6c0.3-0.7,0.5-1.5,0.7-2.2c0.1-0.4,0.3-0.7,0.6-0.9c0.2-0.1,0.4-0.2,0.6-0.2
		c0.1,0,0.3,0,0.4,0c0.4,0,0.6,0.2,0.8,0.5c0.1,0.1,0.1,0.3,0.2,0.4c0,0.2,0,0.4-0.1,0.6c-0.5,1.3-1,2.4-1.4,3.2c0,0,0,0.1,0,0.1
		c0,0,0.1,0,0.1,0l2.6-0.5c0.3-0.1,0.6,0,0.9,0.2c0.3,0.2,0.4,0.4,0.5,0.8c0.1,0.3,0,0.6-0.2,0.9c-0.2,0.3-0.4,0.4-0.8,0.5l-5.4,1
		c-0.1,0-0.2,0.1-0.2,0.3l0.5,2.8l0,0.1c0,0.1,0.1,0.2,0.2,0.2l6.3-1.1C153.2,62.1,153.5,62.2,153.8,62.3z"/>
	<path fill="#FCFF00" d="M161.2,42.5c3.4-0.6,5.3,0.4,5.7,2.8l4.3,24.4c0.4,2.1-0.3,3.3-2.1,3.6c-1.8,0.3-2.9-0.6-3.2-2.7l-4-22.8
		l-2.9,0.5c-2.1,0.4-3.4-0.3-3.7-2.1c-0.3-1.8,0.6-2.9,2.7-3.2L161.2,42.5z"/>
	<path fill="#FCFF00" d="M190.5,69.8c-3,0.5-5.7-0.2-8-2c-2.3-1.9-4-5.9-5.1-12c-1-6-0.8-10.3,0.7-13c1.5-2.6,3.8-4.2,6.8-4.7
		c3-0.5,5.7,0.2,8,2.1c2.4,2,4.1,5.9,5.2,11.9c1.1,6.1,0.8,10.5-0.7,13.1C195.8,67.7,193.5,69.3,190.5,69.8z M192.7,62
		c0.8-1.6,0.9-4.6,0.1-9c-0.7-4.2-1.8-7-3.2-8.3c-1.1-1.1-2.4-1.5-3.7-1.3c-1.4,0.2-2.4,1.1-3.1,2.5c-0.8,1.7-0.8,4.7-0.1,8.9
		c0.8,4.4,1.8,7.2,3.2,8.4c1.1,1,2.3,1.4,3.7,1.2C191,64.2,192,63.4,192.7,62z"/>
	<path fill="#FCFF00" d="M213.1,65.8c-3,0.5-5.7-0.2-8-2c-2.3-1.9-4-5.9-5.1-12c-1-6-0.8-10.3,0.7-13c1.5-2.6,3.8-4.2,6.8-4.7
		c3-0.5,5.7,0.2,8,2.1c2.4,2,4.1,5.9,5.2,11.9c1.1,6.1,0.8,10.5-0.7,13.1C218.4,63.8,216.1,65.3,213.1,65.8z M215.2,58
		c0.8-1.6,0.9-4.6,0.1-9c-0.7-4.2-1.8-7-3.2-8.3c-1.1-1.1-2.4-1.5-3.7-1.3c-1.4,0.2-2.4,1.1-3.1,2.5c-0.8,1.7-0.8,4.7-0.1,8.9
		c0.8,4.4,1.8,7.2,3.2,8.4c1.1,1,2.3,1.4,3.7,1.2C213.5,60.3,214.5,59.5,215.2,58z"/>
	<path fill="#FCFF00" d="M242.7,58.5l3.1-0.6c0.4-0.1,0.7-0.3,0.8-0.8c0.1-0.5,0-1.4-0.2-2.9c0-0.3,0.1-0.5,0.3-0.7
		c0.2-0.2,0.5-0.2,0.8-0.2c0.4,0.1,0.7,0.3,1,0.6c0.2,0.3,0.4,0.5,0.5,0.9c0,0,0,0.1,0,0.1c0.2,1.9,0.1,3.2-0.3,4
		c-0.4,0.7-1.1,1.2-2.3,1.4l-3.7,0.6c-1.3,0.2-2.3,0.2-2.9-0.3c-0.6-0.4-1-1.3-1.2-2.7l-1.6-9c0-0.1-0.1-0.2-0.3-0.2l-4.3,0.8
		c-0.1,0-0.2,0.1-0.2,0.3c0.1,1.2,0.1,2.2,0.2,3.2c0,0.9-0.1,1.9-0.2,2.9c-0.2,1-0.4,2-0.8,2.8c-0.4,0.8-0.9,1.7-1.5,2.5
		c-0.7,0.8-1.5,1.6-2.4,2.3c-0.2,0.1-0.4,0.2-0.6,0.2c-0.1,0-0.3,0-0.4,0c-0.4,0-0.7-0.2-1-0.5c-0.2-0.2-0.3-0.3-0.3-0.5
		c0-0.1,0-0.1,0-0.2c0-0.3,0.2-0.6,0.4-0.7c0.8-0.6,1.5-1.2,2.1-1.9c0.6-0.7,1-1.4,1.3-2.1c0.3-0.7,0.5-1.5,0.6-2.3
		c0.1-0.9,0.2-1.7,0.2-2.4c0-0.7-0.1-1.6-0.1-2.6c0-0.1-0.1-0.2-0.2-0.2l-5.2,0.9c-0.4,0.1-0.7,0-1-0.2s-0.5-0.5-0.5-0.8
		c-0.1-0.3,0-0.7,0.2-0.9c0.2-0.3,0.5-0.5,0.8-0.5l21.8-3.8c0.3-0.1,0.7,0,0.9,0.2c0.3,0.2,0.5,0.5,0.5,0.8s0,0.7-0.2,0.9
		c-0.2,0.3-0.5,0.5-0.8,0.5l-6.1,1.1c-0.1,0-0.2,0.1-0.2,0.3l1.6,9c0.1,0.5,0.2,0.8,0.4,0.9C241.9,58.6,242.2,58.6,242.7,58.5z
		 M241.8,37.7c0.4-0.1,0.7,0,1,0.2c0.3,0.2,0.4,0.5,0.5,0.8c0.1,0.3,0,0.7-0.2,0.9c-0.2,0.3-0.5,0.5-0.8,0.5l-16.9,3
		c-0.3,0.1-0.7,0-0.9-0.2c-0.3-0.2-0.5-0.5-0.5-0.8c-0.1-0.3,0-0.7,0.2-0.9c0.2-0.3,0.5-0.5,0.8-0.5L241.8,37.7z"/>
	<path fill="#FCFF00" d="M272.8,40.6c0.3,0.2,0.4,0.3,0.4,0.3s0,0.2,0.1,0.5s0,0.6-0.2,0.9c-0.2,0.3-0.5,0.4-0.8,0.5l-3.6,0.6
		c0,0-0.1,0-0.1,0.1c0,0,0,0.1,0,0.1c1.5,1.2,3.2,2,4.9,2.6c0.3,0.1,0.5,0.3,0.6,0.6c0,0.1,0.1,0.1,0.1,0.2c0,0.2,0,0.5-0.1,0.7
		c-0.2,0.4-0.5,0.6-0.8,0.8c-0.1,0-0.2,0.1-0.4,0.1c-0.2,0-0.5,0-0.7,0c-0.9-0.3-1.8-0.8-2.7-1.3c0,0-0.1,0-0.1,0c0,0,0,0.1,0,0.1
		c0.3,2.7,0.4,4.6,0.4,5.9c0,1.3-0.2,2.1-0.5,2.6c-0.4,0.6-1,1-1.8,1.2c-0.4,0.1-1,0.2-1.7,0.4c-0.2,0-0.4,0.1-0.6,0.1
		c-0.3,0.1-0.7,0-1-0.2c-0.3-0.2-0.6-0.5-0.7-0.8c-0.1-0.3-0.2-0.5,0-0.8c0.1-0.3,0.3-0.4,0.6-0.4c0.6-0.1,1.2-0.2,1.9-0.3
		c0.5-0.1,0.8-0.2,0.9-0.4c0.4-0.5,0.4-2.3,0.1-5.5c0-0.1-0.1-0.2-0.2-0.2l-4.7,0.8c-0.1,0-0.2,0.1-0.2,0.2c0,1.9-0.5,3.6-1.3,5
		c-0.9,1.4-2.3,2.7-4.5,3.9c-0.1,0.1-0.3,0.1-0.4,0.2c-0.2,0-0.4,0-0.6,0c-0.4-0.1-0.7-0.3-1-0.6c-0.2-0.2-0.3-0.5-0.3-0.8
		c0-0.3,0.2-0.5,0.5-0.6c1.8-0.9,3-1.8,3.7-2.9c0.7-1,1.1-2.3,1.2-3.7c0-0.1,0-0.1-0.1-0.1c0,0-0.1,0-0.1,0l-3.2,0.6
		c-0.3,0.1-0.6,0-0.8-0.2c-0.2-0.2-0.4-0.4-0.4-0.7c0,0,0,0,0,0c0,0,0,0-0.1,0c-0.7,0.8-1.4,1.5-2.2,2.2c-0.2,0.1-0.4,0.2-0.6,0.3
		c-0.1,0-0.2,0-0.4,0c-0.4,0-0.7-0.2-1-0.4c-0.2-0.2-0.3-0.4-0.3-0.6c0-0.1,0-0.1,0-0.2c0-0.3,0.1-0.6,0.4-0.8
		c1.4-1.2,2.7-2.6,3.7-4.2c0,0,0-0.1,0-0.1c0,0-0.1,0-0.1,0l-3.6,0.6c-0.3,0.1-0.6,0-0.9-0.2c-0.3-0.2-0.4-0.4-0.5-0.8
		s0-0.6,0.2-0.9c0.2-0.3,0.5-0.4,0.8-0.5l5.4-1c0.1,0,0.2-0.1,0.3-0.2c0.3-0.8,0.6-1.7,0.9-2.6c0,0,0-0.1,0-0.1c0,0-0.1-0.1-0.1,0
		l-5.1,0.9c-0.3,0.1-0.6,0-0.9-0.2c-0.3-0.2-0.4-0.4-0.5-0.8c-0.1-0.3,0-0.6,0.2-0.9c0.2-0.3,0.4-0.4,0.8-0.5l2.2-0.4
		c0.1,0,0.1,0,0.1-0.1c0,0,0-0.1,0-0.1c-0.4-0.7-1-1.4-1.7-2.2c-0.2-0.2-0.3-0.5-0.2-0.8c0-0.3,0.2-0.5,0.4-0.6
		c0.1-0.1,0.3-0.2,0.5-0.2c0.1,0,0.3,0,0.4,0c0.3,0,0.6,0.2,0.9,0.4c0.7,0.7,1.2,1.4,1.7,2c0.2,0.2,0.2,0.5,0.2,0.7
		c-0.1,0.3-0.2,0.4-0.5,0.6c0,0,0,0,0,0c0,0,0,0,0,0l2.1-0.4c0.1,0,0.2-0.1,0.2-0.2c0.2-1.1,0.3-2.3,0.3-3.5c0-0.4,0.2-0.7,0.4-1
		c0.2-0.2,0.4-0.3,0.7-0.4c0.1,0,0.2,0,0.3,0c0.4,0,0.7,0.1,1,0.4c0.2,0.2,0.3,0.4,0.3,0.6c0,0.1,0,0.2,0,0.3c-0.1,1-0.2,2-0.3,3
		c0,0.1,0,0.1,0,0.1c0,0,0.1,0,0.1,0l4.3-0.8l0,0c-0.2,0-0.3-0.1-0.3-0.2c-0.1-0.1-0.1-0.3,0-0.4c0.4-0.9,0.7-1.9,1-2.8
		c0.1-0.4,0.3-0.7,0.6-0.9c0.2-0.1,0.4-0.2,0.6-0.2c0.1,0,0.3,0,0.4,0c0.4,0,0.6,0.2,0.8,0.5c0.1,0.1,0.1,0.2,0.1,0.4
		c0,0.2,0,0.4,0,0.5c-0.4,1-0.8,1.9-1.2,2.7c0,0,0,0.1,0,0.1c0,0,0.1,0,0.1,0l3-0.5c0.3-0.1,0.6,0,0.9,0.2c0.3,0.2,0.4,0.4,0.5,0.8
		c0.1,0.3,0,0.6-0.2,0.9c-0.2,0.3-0.4,0.4-0.8,0.5l-5.3,0.9c-0.1,0-0.1,0-0.1,0.1c0,0.1,0,0.1,0,0.1c0.5,0.7,1.1,1.4,1.7,2.1
		c0.1,0.1,0.2,0.1,0.3,0.1l5.4-1C272.2,40.3,272.5,40.4,272.8,40.6z M255.6,48.3C255.6,48.3,255.6,48.3,255.6,48.3
		c0,0.1,0,0.1,0.1,0.1l12.1-2.1c0,0,0.1,0,0.1-0.1c0,0,0-0.1,0-0.1c-0.8-0.6-1.6-1.3-2.4-2c-0.1-0.1-0.2-0.2-0.4-0.1l-7.6,1.3
		c-0.1,0-0.2,0.1-0.3,0.2C256.8,46.5,256.2,47.4,255.6,48.3z M261.9,39.5c-0.1-0.1-0.2-0.2-0.3-0.1l-2.1,0.4c-0.1,0-0.2,0.1-0.3,0.2
		c-0.3,1-0.5,1.8-0.7,2.5c0,0,0,0.1,0,0.1c0,0,0.1,0,0.1,0l4.7-0.8c0,0,0.1,0,0.1-0.1c0,0,0-0.1,0-0.1
		C262.9,41,262.4,40.3,261.9,39.5z"/>
	<path fill="#FCFF00" d="M279.9,45.7c-0.2,0.2-0.4,0.4-0.7,0.4c-0.3,0.1-0.6,0-0.8-0.2s-0.4-0.4-0.5-0.7l-2.2-9.9l-0.3-1.7
		c-0.1-0.4,0-0.8,0.2-1.2c0.2-0.4,0.6-0.6,1-0.7l0,0c0.4-0.1,0.8,0,1.2,0.3c0.4,0.3,0.6,0.6,0.6,1l0.2,1.7l1.4,10
		C280.2,45.1,280.1,45.4,279.9,45.7z M280.4,52.9c-0.6,0.1-1.1,0-1.6-0.4c-0.5-0.3-0.8-0.8-0.9-1.5c-0.1-0.6,0-1.2,0.3-1.7
		c0.3-0.5,0.8-0.8,1.4-0.9c0.6-0.1,1.2,0,1.6,0.4s0.8,0.9,0.9,1.5c0.1,0.6,0,1.2-0.3,1.7C281.5,52.5,281,52.8,280.4,52.9z"/>
	<path fill="#FCFF00" d="M288,44.2c-0.2,0.2-0.4,0.4-0.7,0.4c-0.3,0.1-0.6,0-0.8-0.2c-0.3-0.2-0.4-0.4-0.5-0.7l-2.2-9.9l-0.3-1.7
		c-0.1-0.4,0-0.8,0.2-1.2c0.2-0.4,0.6-0.6,1-0.7l0,0c0.4-0.1,0.8,0,1.2,0.3c0.4,0.3,0.6,0.6,0.6,1l0.2,1.7l1.4,10
		C288.2,43.7,288.2,44,288,44.2z M288.5,51.5c-0.6,0.1-1.1,0-1.6-0.4s-0.8-0.8-0.9-1.5c-0.1-0.6,0-1.2,0.3-1.7
		c0.3-0.5,0.8-0.8,1.4-0.9c0.6-0.1,1.2,0,1.6,0.4c0.5,0.4,0.8,0.9,0.9,1.5c0.1,0.6,0,1.2-0.3,1.7C289.5,51.1,289.1,51.4,288.5,51.5z
		"/>
</g>
<g>
	<path fill="#FCFF00" d="M14.5,61.2c-0.7-0.8-0.6-2,0-2.5c0.6-0.6,1.8-0.6,2.6,0.1c0.7,0.8,0.6,2,0,2.5C16.5,61.9,15.3,62,14.5,61.2
		z"/>
	<path fill="#FCFF00" d="M19.6,56.4c-0.7-0.8-0.6-2,0-2.5c0.6-0.6,1.8-0.6,2.6,0.1c0.7,0.8,0.6,2,0,2.5
		C21.5,57.1,20.3,57.1,19.6,56.4z"/>
	<path fill="#FCFF00" d="M24.6,51.5c-0.7-0.8-0.6-2,0-2.5c0.6-0.6,1.8-0.6,2.6,0.1c0.7,0.8,0.6,2,0,2.5
		C26.6,52.2,25.4,52.3,24.6,51.5z"/>
	<path fill="#FCFF00" d="M29.7,46.7c-0.7-0.8-0.6-2,0-2.5c0.6-0.6,1.8-0.6,2.6,0.1c0.7,0.8,0.6,2,0,2.5
		C31.6,47.4,30.4,47.4,29.7,46.7z"/>
	<path fill="#FCFF00" d="M34.7,41.8c-0.7-0.8-0.6-2,0-2.5c0.6-0.6,1.8-0.6,2.6,0.1c0.7,0.8,0.6,2,0,2.5
		C36.7,42.5,35.5,42.6,34.7,41.8z"/>
	<path fill="#FCFF00" d="M39.8,37c-0.7-0.8-0.6-2,0-2.5c0.6-0.6,1.8-0.6,2.6,0.1c0.7,0.8,0.6,2,0,2.5C41.7,37.7,40.5,37.7,39.8,37z"
		/>
	<path fill="#FCFF00" d="M44.8,32.1c-0.7-0.8-0.6-2,0-2.5c0.6-0.6,1.8-0.6,2.6,0.1c0.7,0.8,0.6,2,0,2.5
		C46.8,32.8,45.6,32.9,44.8,32.1z"/>
	<path fill="#FCFF00" d="M49.9,27.3c-0.7-0.8-0.6-2,0-2.5c0.6-0.6,1.8-0.6,2.6,0.1c0.7,0.8,0.6,2,0,2.5C51.8,28,50.6,28,49.9,27.3z"
		/>
	<path fill="#FCFF00" d="M54.9,22.4c-0.7-0.8-0.6-2,0-2.5c0.6-0.6,1.8-0.6,2.6,0.1c0.7,0.8,0.6,2,0,2.5
		C56.9,23.1,55.7,23.2,54.9,22.4z"/>
</g>
<g>
	<path fill="#FCFF00" d="M36.2,109.2c0.2-1,1.2-1.7,2-1.6c0.8,0.1,1.6,1.1,1.5,2.1c-0.2,1-1.2,1.7-2,1.5
		C36.8,111.2,36.1,110.2,36.2,109.2z"/>
	<path fill="#FCFF00" d="M43.1,110.3c0.2-1,1.2-1.7,2-1.6c0.8,0.1,1.6,1.1,1.5,2.1c-0.2,1-1.2,1.7-2,1.5
		C43.7,112.3,43,111.3,43.1,110.3z"/>
	<path fill="#FCFF00" d="M50.1,111.4c0.2-1,1.2-1.7,2-1.6c0.8,0.1,1.6,1.1,1.5,2.1c-0.2,1-1.2,1.7-2,1.5
		C50.7,113.3,49.9,112.4,50.1,111.4z"/>
	<path fill="#FCFF00" d="M57,112.5c0.2-1,1.2-1.7,2-1.6c0.8,0.1,1.6,1.1,1.5,2.1c-0.2,1-1.2,1.7-2,1.5
		C57.6,114.4,56.8,113.5,57,112.5z"/>
	<path fill="#FCFF00" d="M63.9,113.6c0.2-1,1.2-1.7,2-1.6c0.8,0.1,1.6,1.1,1.5,2.1s-1.2,1.7-2,1.5C64.5,115.5,63.7,114.6,63.9,113.6
		z"/>
	<path fill="#FCFF00" d="M70.8,114.6c0.2-1,1.2-1.7,2-1.6c0.8,0.1,1.6,1.1,1.5,2.1s-1.2,1.7-2,1.5C71.4,116.6,70.6,115.7,70.8,114.6
		z"/>
	<path fill="#FCFF00" d="M77.7,115.7c0.2-1,1.2-1.7,2-1.6c0.8,0.1,1.6,1.1,1.5,2.1c-0.2,1-1.2,1.7-2,1.5
		C78.3,117.7,77.6,116.8,77.7,115.7z"/>
	<path fill="#FCFF00" d="M84.6,116.8c0.2-1,1.2-1.7,2-1.6c0.8,0.1,1.6,1.1,1.5,2.1c-0.2,1-1.2,1.7-2,1.5
		C85.2,118.8,84.5,117.8,84.6,116.8z"/>
	<path fill="#FCFF00" d="M91.5,117.9c0.2-1,1.2-1.7,2-1.6c0.8,0.1,1.6,1.1,1.5,2.1c-0.2,1-1.2,1.7-2,1.5
		C92.1,119.9,91.4,118.9,91.5,117.9z"/>
	<path fill="#FCFF00" d="M98.5,119c0.2-1,1.2-1.7,2-1.6c0.8,0.1,1.6,1.1,1.5,2.1c-0.2,1-1.2,1.7-2,1.5C99.1,120.9,98.3,120,98.5,119
		z"/>
	<path fill="#FCFF00" d="M105.4,120.1c0.2-1,1.2-1.7,2-1.6c0.8,0.1,1.6,1.1,1.5,2.1s-1.2,1.7-2,1.5C106,122,105.2,121.1,105.4,120.1
		z"/>
	<path fill="#FCFF00" d="M112.3,121.2c0.2-1,1.2-1.7,2-1.6c0.8,0.1,1.6,1.1,1.5,2.1c-0.2,1-1.2,1.7-2,1.5
		C112.9,123.1,112.1,122.2,112.3,121.2z"/>
	<path fill="#FCFF00" d="M119.2,122.2c0.2-1,1.2-1.7,2-1.6c0.8,0.1,1.6,1.1,1.5,2.1c-0.2,1-1.2,1.7-2,1.5
		C119.8,124.2,119,123.3,119.2,122.2z"/>
	<path fill="#FCFF00" d="M126.1,123.3c0.2-1,1.2-1.7,2-1.6c0.8,0.1,1.6,1.1,1.5,2.1c-0.2,1-1.2,1.7-2,1.5
		C126.7,125.3,126,124.4,126.1,123.3z"/>
	<path fill="#FCFF00" d="M133,124.4c0.2-1,1.2-1.7,2-1.6c0.8,0.1,1.6,1.1,1.5,2.1s-1.2,1.7-2,1.5C133.6,126.4,132.9,125.4,133,124.4
		z"/>
</g>
</svg>
