<?xml version="1.0" encoding="utf-8"?>
<!-- Generator: Adobe Illustrator 16.0.0, SVG Export Plug-In . SVG Version: 6.00 Build 0)  -->
<!DOCTYPE svg PUBLIC "-//W3C//DTD SVG 1.1//EN" "http://www.w3.org/Graphics/SVG/1.1/DTD/svg11.dtd">
<svg version="1.1" id="圖層_1" xmlns="http://www.w3.org/2000/svg" xmlns:xlink="http://www.w3.org/1999/xlink" x="0px" y="0px"
	 width="100%" height="100%" viewBox="0 0 425 120" enable-background="new 0 0 425 120" xml:space="preserve">
<g>
	<path fill="#2B8231" d="M88,83.5c-0.1,0-0.2,0.1-0.2,0.2c0,0.1,0,0.2,0.1,0.3l0.3,0.3c0.8,0.7,1.3,1.6,1.3,2.6c0,0.2,0,0.4-0.1,0.6
		c-0.2,1.3-0.9,2.2-2.1,2.7c-3.1,1.2-6.3,2.3-9.4,3.3c-0.1,0.1-0.2,0.2-0.2,0.3c0,0.1,0.1,0.2,0.2,0.2c4,1.4,8.6,2.4,13.7,3.1
		c1.2,0.1,2,0.7,2.5,1.9c0.2,0.5,0.3,1,0.3,1.5c0,0.6-0.2,1.2-0.6,1.8c-0.1,0.2-0.2,0.4-0.3,0.5c-1,1.5-2.2,2.6-3.8,3.4
		c-1,0.5-2.1,0.8-3.3,0.8c-0.5,0-0.9,0-1.4-0.1c-11.1-2.1-19.8-5.9-26.3-11.4c-0.1-0.1-0.3-0.1-0.4,0c-0.1,0-0.2,0.1-0.2,0.3v0.7
		c0.1,1.6-0.4,3.1-1.5,4.3c-1.1,1.2-2.4,2-4.1,2.1c-4.8,0.6-13,1.5-24.4,2.7c-0.2,0-0.4,0-0.6,0c-1.2,0-2.2-0.4-3.1-1.1
		c-1-0.8-1.7-1.9-1.9-3.2c0-0.3,0-0.5,0-0.7c0-1.1,0.4-2.1,1.1-2.9c0.8-1,2-1.6,3.3-1.8l2.3-0.2c0.5-0.1,0.7-0.3,0.7-0.8V84.3
		c0-0.5-0.2-0.8-0.7-0.8h-5.3c-0.5,0-0.7,0.3-0.9,0.8C22.1,91.5,20,97.7,17,103c-0.8,1.4-2,2.2-3.5,2.4c-0.4,0.1-0.8,0.1-1.2,0.1
		c-1.2,0-2.3-0.3-3.3-1c-0.1,0-0.1,0-0.1-0.1c-1.3-0.7-2.1-1.8-2.4-3.3c-0.1-0.5-0.2-0.9-0.2-1.4c0-1,0.3-1.9,0.8-2.7
		c4.3-7.6,6.4-18.1,6.4-31.4v-7c0-1.6,0.6-3,1.7-4.1c1.1-1.1,2.5-1.7,4.1-1.7h69.1c1.2,0,2.2,0.4,3,1.2c0.8,0.8,1.2,1.8,1.2,3
		s-0.4,2.2-1.2,3c-0.8,0.8-1.8,1.2-3,1.2H25.5c-0.5,0-0.7,0.2-0.7,0.7v3.9c0,2.6-0.1,5.4-0.3,8.5c0,0.5,0.2,0.7,0.7,0.7H91
		c1.2,0,2.2,0.4,3,1.3c0.8,0.8,1.3,1.9,1.3,3s-0.4,2.2-1.3,3c-0.8,0.8-1.9,1.2-3,1.2H88z M82.9,20.4c1.6,0,3,0.6,4.1,1.7
		c1.1,1.1,1.7,2.5,1.7,4.1v17.8c0,1.6-0.6,3-1.7,4.1c-1.1,1.1-2.5,1.7-4.1,1.7H20c-1.6,0-2.9-0.6-4.1-1.7c-1.1-1.1-1.7-2.5-1.7-4.1
		V26.1c0-1.6,0.6-2.9,1.7-4.1c1.1-1.1,2.5-1.7,4.1-1.7h13.8c0.5,0,0.7-0.2,0.7-0.7c0-1.5,0.5-2.8,1.6-3.8c1.1-1,2.4-1.6,3.9-1.6h0.7
		c1.5,0,2.8,0.5,3.8,1.6c1,1,1.6,2.3,1.6,3.8c0,0.5,0.2,0.7,0.7,0.7h8.3c0.5,0,0.7-0.2,0.7-0.7c0-1.5,0.5-2.8,1.6-3.8
		c1.1-1,2.4-1.6,3.9-1.6H62c1.5,0,2.8,0.5,3.8,1.6c1,1,1.6,2.3,1.6,3.8c0,0.5,0.2,0.7,0.7,0.7H82.9z M25.8,27.6
		c-0.5,0-0.7,0.2-0.7,0.7v2.5c0,0.5,0.2,0.8,0.7,0.8h7.9c0.5,0,0.7-0.3,0.7-0.8v-2.5c0-0.5-0.2-0.7-0.7-0.7H25.8z M25.8,38.4
		c-0.5,0-0.7,0.3-0.7,0.8v2.5c0,0.5,0.2,0.7,0.7,0.7h7.9c0.5,0,0.7-0.2,0.7-0.7v-2.5c0-0.5-0.2-0.8-0.7-0.8H25.8z M83.8,65.3
		c0.7,0.7,1.1,1.6,1.1,2.6c0,1-0.4,1.9-1.1,2.6c-0.7,0.7-1.6,1.1-2.6,1.1H33.6c-1,0-1.9-0.4-2.7-1.1c-0.7-0.7-1.1-1.6-1.1-2.6
		c0-1,0.4-1.9,1.1-2.6c0.7-0.7,1.6-1.1,2.7-1.1h47.6C82.2,64.2,83.1,64.6,83.8,65.3z M42.4,83.5c-0.5,0-0.7,0.3-0.7,0.8v9.4
		c0,0.5,0.2,0.7,0.7,0.7L55.5,93c0.1,0,0.2-0.1,0.3-0.2c0.1-0.1,0-0.3-0.1-0.4c-2.5-2.6-4.6-5.4-6.3-8.3c-0.2-0.5-0.6-0.7-1.1-0.7
		H42.4z M55.6,28.3c0-0.5-0.2-0.7-0.7-0.7h-8.3c-0.5,0-0.7,0.2-0.7,0.7v2.5c0,0.5,0.2,0.8,0.7,0.8h8.3c0.5,0,0.7-0.3,0.7-0.8V28.3z
		 M55.6,39.1c0-0.5-0.2-0.8-0.7-0.8h-8.3c-0.5,0-0.7,0.3-0.7,0.8v2.5c0,0.5,0.2,0.7,0.7,0.7h8.3c0.5,0,0.7-0.2,0.7-0.7V39.1z
		 M79.4,83.9c0.1-0.1,0.2-0.1,0.1-0.2c0-0.1-0.1-0.1-0.1-0.1H61.9c-0.1,0-0.2,0.1-0.3,0.2c-0.1,0.1,0,0.3,0.1,0.4
		c1.5,1.6,3.4,3.2,5.6,4.8c0.4,0.3,0.8,0.4,1.3,0.2C71.4,87.9,75.1,86.1,79.4,83.9z M76.5,31.6c0.5,0,0.7-0.3,0.7-0.8v-2.5
		c0-0.5-0.2-0.7-0.7-0.7h-8.4c-0.5,0-0.8,0.2-0.8,0.7v2.5c0,0.5,0.3,0.8,0.8,0.8H76.5z M76.5,42.4c0.5,0,0.7-0.2,0.7-0.7v-2.5
		c0-0.5-0.2-0.8-0.7-0.8h-8.4c-0.5,0-0.8,0.3-0.8,0.8v2.5c0,0.5,0.3,0.7,0.8,0.7H76.5z"/>
	<path fill="#2B8231" d="M187.6,73.5c0.8-0.6,1.7-0.9,2.6-0.8c1,0,1.8,0.4,2.5,1l1.8,1.5c1,0.8,1.5,1.8,1.5,3c0,1.6-0.6,2.7-1.9,3.5
		c-4,2.4-8.4,4.9-13.3,7.4c-0.1,0.1-0.2,0.2-0.2,0.3c0,0.1,0.1,0.2,0.2,0.3c5.1,2,10.8,3.5,16.9,4.6c1.2,0.2,2,0.8,2.4,2
		c0.1,0.5,0.2,0.9,0.2,1.3c0,0.7-0.2,1.4-0.7,2c-0.2,0.3-0.4,0.7-0.6,1c-1,1.4-2.2,2.5-3.8,3.3c-1,0.5-2.1,0.7-3.1,0.7
		c-0.5,0-1,0-1.6-0.1c-8.5-2-15.7-4.8-21.8-8.6c-7.2-4.5-12.9-10.5-17.2-18c-0.3-0.5-0.7-0.7-1.2-0.7h-10c-0.5,0-0.7,0.3-0.7,0.8
		v13.3c0,0.5,0.2,0.7,0.7,0.6l15.2-1.3c0.2-0.1,0.4-0.1,0.5-0.1c1.2,0,2.3,0.4,3.2,1.3c1.1,1,1.7,2.2,1.7,3.7c0,1.4-0.5,2.7-1.5,3.8
		s-2.2,1.7-3.7,1.9c-11.8,1.2-22.2,2.1-31.3,2.9c-0.2,0-0.4,0-0.5,0c-1.4,0-2.6-0.4-3.6-1.3c-1.2-0.9-2-2.1-2.1-3.7
		c-0.1-0.3-0.1-0.6-0.1-0.9c0-1.1,0.4-2.1,1.1-3.1c1-1.1,2.2-1.7,3.6-1.9c1.3-0.1,2.7-0.2,4.3-0.3c0.5-0.1,0.7-0.4,0.7-0.9V45.3
		c0-0.2-0.1-0.3-0.2-0.4c-0.1-0.1-0.3-0.1-0.5,0c-1.8,1-3.4,1.9-5,2.6c-0.8,0.4-1.7,0.6-2.5,0.6c-0.7,0-1.3-0.1-1.9-0.3
		c-1.6-0.5-2.8-1.5-3.7-2.8c-0.1-0.1-0.2-0.3-0.3-0.4c-0.6-0.8-0.9-1.7-0.9-2.6c0-0.4,0.1-0.8,0.2-1.2c0.3-1.4,1.1-2.3,2.3-2.9
		c6.3-2.9,12.3-6.4,18.1-10.4c5.3-3.8,9.8-7.5,13.4-11.2c2.7-2.9,5.9-4.4,9.5-4.4h0.4c3.6,0,6.9,1.4,9.8,4.2
		c4.6,4.5,9.8,8.5,15.6,12.2s11.6,6.6,17.6,8.9c1.3,0.5,2.1,1.4,2.5,2.7c0.1,0.5,0.1,0.9,0.1,1.3c0,0.8-0.3,1.7-0.8,2.4
		c-0.3,0.4-0.5,0.8-0.8,1.3c-0.9,1.4-2.1,2.3-3.7,2.7c-0.7,0.2-1.3,0.3-1.9,0.3c-0.9,0-1.8-0.2-2.6-0.6c-1.4-0.7-3.1-1.6-4.9-2.5
		c-0.2-0.1-0.4,0-0.5,0c-0.1,0.1-0.2,0.2-0.2,0.3v28.2C187.2,73.6,187.4,73.6,187.6,73.5z M163.6,38.6c0,0.5,0.3,0.8,0.8,0.8h13.7
		c0.1,0,0.2,0,0.2-0.1c0-0.1,0-0.2,0-0.2c-8.5-5.3-15.3-10.8-20.4-16.3c-0.3-0.4-0.7-0.4-1,0c-4.8,5.5-11.4,11-19.7,16.3
		c-0.1,0.1-0.1,0.1,0,0.2c0,0.1,0.1,0.1,0.1,0.1h13.5c0.5,0,0.7-0.3,0.7-0.8v-1.2c0-1.6,0.6-2.9,1.7-4.1c1.1-1.1,2.5-1.7,4.1-1.7
		h0.7c1.6,0,2.9,0.6,4.1,1.7c1.1,1.1,1.7,2.5,1.7,4.1V38.6z M140.6,48.6c-0.5,0-0.7,0.3-0.7,0.8v3.7c0,0.5,0.2,0.8,0.7,0.8h34
		c0.5,0,0.7-0.3,0.7-0.8v-3.7c0-0.5-0.2-0.8-0.7-0.8H140.6z M140.6,62.4c-0.5,0-0.7,0.2-0.7,0.7v4.1c0,0.5,0.2,0.7,0.7,0.7h34
		c0.5,0,0.7-0.2,0.7-0.7v-4.1c0-0.5-0.2-0.7-0.7-0.7H140.6z M181.7,77.5c0.1-0.1,0.1-0.1,0-0.2c0-0.1-0.1-0.1-0.1-0.1H164
		c-0.1,0-0.2,0.1-0.3,0.2c-0.1,0.1,0,0.3,0.1,0.4c1.5,1.9,3.5,3.8,6.2,5.9c0.4,0.3,0.8,0.4,1.3,0.1
		C174.9,81.7,178.4,79.7,181.7,77.5z"/>
	<path fill="#2B8231" d="M264.5,55.4c1.1,1.1,1.6,2.4,1.6,4c0,1.5-0.5,2.8-1.6,4c-1.1,1.1-2.4,1.7-4,1.7h-10.8
		c-0.5,0-0.8,0.2-0.9,0.7c-0.1,1.1-0.3,2-0.5,2.6c-0.1,0.5,0.1,0.9,0.4,1.3c3.2,3.2,8,8.5,14.6,16c1.1,1.3,1.7,2.8,1.7,4.6
		c0,1.6-0.5,3-1.5,4.3l-0.9,1c-0.8,1-1.9,1.6-3.2,1.6c-0.1,0-0.1,0-0.2,0c-1.4-0.1-2.6-0.7-3.4-1.9c-2.8-4-6.2-8.4-10.2-13.4
		c-0.1-0.1-0.3-0.2-0.4-0.2c-0.1,0-0.2,0.1-0.3,0.3c-3.2,8.7-7.9,16-14.3,21.9c-1,0.8-2.1,1.3-3.4,1.3c-0.2,0-0.4,0-0.7,0
		c-1.5-0.2-2.8-0.9-4-2.1c-0.2-0.2-0.4-0.4-0.6-0.6c-1-1-1.5-2.3-1.5-3.7c0-1.5,0.6-2.8,1.7-3.8c7.9-7.3,12.8-17,14.6-29.1
		c0.1-0.5-0.1-0.7-0.6-0.7h-11.4c-1.5,0-2.8-0.6-3.9-1.7c-1.1-1.1-1.7-2.4-1.7-4c0-1.5,0.6-2.8,1.7-4c1.1-1.1,2.4-1.7,3.9-1.7H237
		c0.5,0,0.7-0.2,0.7-0.7v-1.8V38.6c0-0.5-0.2-0.8-0.7-0.8h-2.5c-0.5,0-0.8,0.2-1,0.7c-1.2,2.9-2.4,5.5-3.6,7.8
		c-0.7,1.3-1.8,2.1-3.3,2.3c-0.3,0.1-0.7,0.1-1,0.1c-1.2,0-2.2-0.4-3.1-1.1c-0.1-0.1-0.2-0.1-0.3-0.2c-1.2-0.9-2-2.1-2.3-3.6
		c-0.1-0.5-0.2-0.9-0.2-1.4c0-1,0.3-2.1,0.8-3c2.9-5.3,5.2-11.8,7-19.5c0.3-1.6,1.1-2.8,2.4-3.7c1-0.6,2-1,3.1-1
		c0.4,0,0.8,0,1.2,0.1l0.1,0.1c1.6,0.3,2.8,1.1,3.7,2.4c0.6,0.9,0.9,1.9,0.9,2.9c0,0.5-0.1,0.9-0.2,1.4c-0.3,1.4-0.7,2.7-1.1,3.9
		c0,0.2,0,0.4,0.1,0.5c0.1,0.2,0.2,0.2,0.4,0.2h20.1c1.6,0,2.9,0.5,4,1.6s1.6,2.4,1.6,3.9c0,1.5-0.5,2.8-1.6,3.9s-2.4,1.6-4,1.6
		h-7.8c-0.5,0-0.8,0.3-0.8,0.8v12.8v1.7c0,0.5,0.3,0.7,0.8,0.7h10.1C262.1,53.8,263.4,54.3,264.5,55.4z M268.9,28.7
		c0-1.6,0.6-3,1.7-4.1c1.1-1.1,2.5-1.7,4.1-1.7h26.6c1.6,0,2.9,0.6,4.1,1.7c1.1,1.1,1.7,2.5,1.7,4.1v68.8c0,1.6-0.6,2.9-1.7,4.1
		c-1.1,1.1-2.5,1.7-4.1,1.7h-1.3c-1.4,0-2.6-0.5-3.6-1.5s-1.5-2.2-1.5-3.6c0-0.4-0.2-0.6-0.6-0.6h-13.2c-0.5,0-0.7,0.2-0.7,0.7v0.8
		c0,1.6-0.6,2.9-1.7,4c-1.1,1.1-2.5,1.7-4.1,1.7c-1.6,0-2.9-0.6-4.1-1.7c-1.1-1.1-1.7-2.4-1.7-4V28.7z M280.4,85.6
		c0,0.5,0.2,0.8,0.7,0.8h13.1c0.5,0,0.7-0.3,0.7-0.8V34.8c0-0.5-0.2-0.8-0.7-0.8h-13.1c-0.5,0-0.7,0.3-0.7,0.8V85.6z"/>
	<path fill="#2B8231" d="M352.7,30.8c1.3,0,2.4,0.5,3.3,1.4c0.9,0.9,1.4,2,1.4,3.3c0,1.3-0.5,2.4-1.4,3.3c-0.9,0.9-2,1.4-3.3,1.4
		h-22c-1.3,0-2.4-0.5-3.3-1.4c-0.9-0.9-1.4-2-1.4-3.3c0-1.3,0.5-2.4,1.4-3.3c0.9-0.9,2-1.4,3.3-1.4H352.7z M349.6,72.2
		c1.6,0,2.9,0.6,4.1,1.7c1.1,1.1,1.7,2.5,1.7,4.1v18.6c0,1.6-0.6,2.9-1.7,4.1c-1.1,1.1-2.5,1.7-4.1,1.7h-10.5
		c-0.3,0-0.4,0.1-0.4,0.4c0,1-0.3,1.8-1,2.5c-0.7,0.7-1.5,1.1-2.6,1.1h-0.9c-1.2,0-2.3-0.4-3.2-1.3s-1.3-1.9-1.3-3.2V78
		c0-1.6,0.6-3,1.7-4.1c1.1-1.1,2.5-1.7,4.1-1.7H349.6z M350.5,44.7c1.2,0,2.3,0.4,3.2,1.3c0.9,0.9,1.4,2,1.4,3.2s-0.5,2.3-1.4,3.2
		c-0.9,0.9-2,1.3-3.2,1.3h-16c-1.2,0-2.3-0.4-3.2-1.3s-1.3-2-1.3-3.2s0.4-2.3,1.3-3.2s1.9-1.3,3.2-1.3H350.5z M334.4,67.3
		c-1.2,0-2.3-0.4-3.1-1.3c-0.8-0.8-1.3-1.9-1.3-3.1c0-1.2,0.4-2.3,1.3-3.2c0.8-0.9,1.9-1.3,3.1-1.3h16.2c1.2,0,2.3,0.4,3.2,1.3
		s1.3,1.9,1.3,3.2c0,1.2-0.4,2.3-1.3,3.1c-0.9,0.8-1.9,1.3-3.2,1.3H334.4z M350.5,17.4c1.2,0,2.3,0.4,3.2,1.3s1.3,2,1.3,3.2
		s-0.4,2.3-1.3,3.2s-1.9,1.3-3.2,1.3H335c-1.2,0-2.3-0.4-3.2-1.3s-1.3-2-1.3-3.2s0.4-2.3,1.3-3.2s1.9-1.3,3.2-1.3H350.5z
		 M346.1,82.2c0-0.5-0.3-0.7-0.8-0.7h-6c-0.5,0-0.7,0.2-0.7,0.7v10.1c0,0.5,0.2,0.8,0.7,0.8h6c0.5,0,0.8-0.3,0.8-0.8V82.2z
		 M407,66.4c0.5-1.2,1.4-2.1,2.5-2.5c0.5-0.2,1-0.3,1.6-0.3c0.7,0,1.4,0.2,2.1,0.5c1.2,0.7,2.1,1.8,2.6,3.1c0.2,0.7,0.3,1.3,0.3,1.9
		c0,0.7-0.1,1.4-0.4,2.1c-2.5,5.7-5.6,11.1-9.3,16.3c-0.3,0.5-0.3,0.9-0.2,1.4c1.2,4,2.8,6.1,4.6,6.3h0.1c0.9,0,1.6-2.1,2.1-6.4
		c0.1-0.9,0.6-1.5,1.5-1.8s1.7-0.1,2.4,0.4c2,1.9,3,3.9,3,6.2c0,0.6-0.1,1.2-0.2,1.9c-2.1,8.4-5.2,12.6-9.3,12.6c-0.1,0-0.2,0-0.3,0
		c-5-0.4-8.8-3.8-11.4-10.2c-0.2-0.5-0.5-0.5-0.8-0.2c-2.7,2.7-5.6,5.2-8.7,7.5c-0.9,0.6-1.9,0.9-2.9,0.9c-0.2,0-0.4,0-0.7,0
		c-1.3-0.2-2.4-0.8-3.4-1.8c-0.8-0.7-1.2-1.6-1.2-2.6c0-1.3,0.5-2.3,1.6-3c0.7-0.5,1.3-0.9,2-1.5c0.1-0.1,0.2-0.2,0.1-0.3
		c-0.1-0.1-0.2-0.2-0.3-0.2h-14.6c-0.3,0-0.5,0.2-0.5,0.5c0,0.9-0.3,1.7-1,2.3c-0.7,0.7-1.4,1-2.3,1H365c-1.2,0-2.3-0.4-3.2-1.3
		s-1.3-1.9-1.3-3.1V67.7c0-1.6,0.6-2.9,1.7-4.1c1.1-1.1,2.5-1.7,4.1-1.7h16.8c1.6,0,2.9,0.6,4.1,1.7c1.1,1.1,1.7,2.5,1.7,4.1v25.1
		c0,0.1,0.1,0.2,0.2,0.3c0.1,0.1,0.2,0,0.3-0.1c2.2-2.1,4.2-4.2,6-6.3c0.3-0.4,0.4-0.8,0.3-1.4c-1.2-6.7-2-15.8-2.5-27.2
		c0-0.5-0.3-0.7-0.8-0.7h-30.9c-1.3,0-2.4-0.5-3.4-1.4c-0.9-0.9-1.4-2-1.4-3.4c0-1.3,0.5-2.5,1.4-3.4c0.9-0.9,2.1-1.4,3.4-1.4h2
		c0.5,0,0.7-0.3,0.7-0.8c-0.2-2.5-0.6-5.2-1.3-8.1c-0.3-1.1-0.1-2.1,0.5-3.1c0.6-0.9,1.4-1.5,2.4-1.7c0.3-0.1,0.7-0.1,1-0.1
		c0.8,0,1.5,0.2,2.2,0.6c1,0.5,1.7,1.3,2,2.4c0.3,1.2,0.6,2.3,0.9,3.4c0.1,0.4,0.1,0.8,0.1,1.3c0,1.1-0.3,2.1-1,3.1
		c-1,1.4-2.3,2.2-3.9,2.6l-0.4,0.1c-0.1,0-0.1,0-0.1,0.1c0,0.1,0,0.1,0.1,0.1h14.8c0.1,0,0.1,0,0.1,0c0,0,0-0.1-0.1-0.1
		c-1.2-0.3-2.2-0.9-2.9-2c-0.6-0.8-0.9-1.8-0.9-2.7c0-0.3,0-0.6,0.1-0.9c0.5-3.1,0.9-5.8,1.2-8.3c0.1-0.5-0.2-0.8-0.7-0.8h-15
		c-1.2,0-2.3-0.4-3.1-1.3c-0.8-0.9-1.3-1.9-1.3-3.1c0-1.2,0.4-2.2,1.3-3.1c0.8-0.9,1.9-1.3,3.1-1.3h5.5c0.5,0,0.7-0.2,0.7-0.7v-3.6
		c0-1.6,0.5-2.9,1.6-3.9c1.1-1,2.4-1.6,3.9-1.6c1.5,0,2.8,0.5,3.9,1.6c1.1,1,1.6,2.3,1.6,3.9v3.6c0,0.5,0.2,0.7,0.7,0.7h5.3
		c1.2,0,2.3,0.4,3.1,1.3c0.8,0.9,1.3,1.9,1.3,3.1c0,1.2-0.4,2.2-1.3,3.1c-0.8,0.9-1.9,1.3-3.1,1.3h-6v0.1l2.5,0.4
		c1.6,0.3,2.8,1,3.6,2.3c0.6,0.8,0.9,1.8,0.9,2.8c0,0.4-0.1,0.8-0.2,1.4c-1,3.8-1.6,6.2-1.9,7.1c-0.1,0.1,0,0.3,0.1,0.4
		c0.1,0.2,0.3,0.2,0.4,0.2h6.3c0.5,0,0.8-0.3,0.8-0.8c-0.2-9-0.3-18.3-0.3-27.7c0-1.4,0.5-2.5,1.5-3.5s2.2-1.5,3.6-1.5
		c1.4,0,2.6,0.5,3.6,1.5s1.5,2.1,1.5,3.5l-0.1,3.4c0,0.2,0.1,0.3,0.2,0.4c0.2,0.1,0.3,0.1,0.4,0l2.3-0.9c0.8-0.3,1.7-0.5,2.6-0.5
		c0.7,0,1.4,0.1,2.1,0.3c1.6,0.5,2.9,1.5,3.7,3c1.6,2.7,2.9,5.4,4.1,8.2c0.3,0.7,0.4,1.3,0.4,1.9c0,0.7-0.2,1.4-0.5,2.1
		c-0.6,1.3-1.6,2.2-2.9,2.7c-0.6,0.3-1.2,0.4-1.8,0.4c-0.7,0-1.3-0.2-2-0.5c-1.2-0.6-2.1-1.5-2.5-2.8c-1.6-4.3-3.5-8.4-6-12.2
		c-0.1-0.1-0.1-0.1-0.2,0c-0.1,0-0.1,0.1-0.1,0.2c-0.1,3.3-0.1,6.3-0.1,9.3c0,4.7,0.1,8.9,0.2,12.6c0,0.5,0.3,0.8,0.8,0.8h10.7
		c1.4,0,2.5,0.5,3.4,1.4c0.9,0.9,1.4,2,1.4,3.4c0,1.3-0.5,2.5-1.4,3.4c-0.9,0.9-2.1,1.4-3.4,1.4h-10.5c-0.5,0-0.8,0.2-0.8,0.7
		c0.2,4.4,0.5,9.4,1,14.8c0,0.1,0,0.2,0.1,0.2c0.1,0,0.2,0,0.2-0.1C405.2,70.8,406.2,68.6,407,66.4z M379.3,70.9
		c0-0.5-0.3-0.8-0.8-0.8h-8.3c-0.5,0-0.8,0.3-0.8,0.8v3.5c0,0.5,0.3,0.7,0.8,0.7h8.3c0.5,0,0.8-0.2,0.8-0.7V70.9z M369.4,87.7
		c0,0.5,0.3,0.7,0.8,0.7h8.3c0.5,0,0.8-0.2,0.8-0.7v-3.8c0-0.5-0.3-0.8-0.8-0.8h-8.3c-0.5,0-0.8,0.3-0.8,0.8V87.7z"/>
</g>
</svg>
