<?xml version="1.0" encoding="utf-8"?>
<!-- Generator: Adobe Illustrator 16.0.0, SVG Export Plug-In . SVG Version: 6.00 Build 0)  -->
<!DOCTYPE svg PUBLIC "-//W3C//DTD SVG 1.1//EN" "http://www.w3.org/Graphics/SVG/1.1/DTD/svg11.dtd">
<svg version="1.1" id="圖層_1" xmlns="http://www.w3.org/2000/svg" xmlns:xlink="http://www.w3.org/1999/xlink" x="0px" y="0px"
	 width="100%" height="100%" viewBox="0 0 425 120" enable-background="new 0 0 425 120" xml:space="preserve">
<g>
	<path fill="#2B8231" d="M115,83.5c-0.1,0-0.2,0.1-0.2,0.2c0,0.1,0,0.2,0.1,0.3l0.3,0.3c0.8,0.7,1.3,1.6,1.3,2.6
		c0,0.2,0,0.4-0.1,0.6c-0.2,1.3-0.9,2.2-2.1,2.7c-3.1,1.2-6.3,2.3-9.4,3.3c-0.1,0.1-0.2,0.2-0.2,0.3c0,0.1,0.1,0.2,0.2,0.2
		c4,1.4,8.6,2.4,13.7,3.1c1.2,0.1,2,0.7,2.5,1.9c0.2,0.5,0.3,1,0.3,1.5c0,0.6-0.2,1.2-0.6,1.8c-0.1,0.2-0.2,0.4-0.3,0.5
		c-1,1.5-2.2,2.6-3.8,3.4c-1,0.5-2.1,0.8-3.3,0.8c-0.5,0-0.9,0-1.4-0.1c-11.1-2.1-19.8-5.9-26.3-11.4c-0.1-0.1-0.3-0.1-0.4,0
		c-0.1,0-0.2,0.1-0.2,0.3v0.7c0.1,1.6-0.4,3.1-1.5,4.3c-1.1,1.2-2.4,2-4.1,2.1c-4.8,0.6-13,1.5-24.4,2.7c-0.2,0-0.4,0-0.6,0
		c-1.2,0-2.2-0.4-3.1-1.1c-1-0.8-1.7-1.9-1.9-3.2c0-0.3,0-0.5,0-0.7c0-1.1,0.4-2.1,1.1-2.9c0.8-1,2-1.6,3.3-1.8l2.3-0.2
		c0.5-0.1,0.7-0.3,0.7-0.8V84.3c0-0.5-0.2-0.8-0.7-0.8h-5.3c-0.5,0-0.7,0.3-0.9,0.8C49,91.5,46.9,97.7,44,103
		c-0.8,1.4-2,2.2-3.5,2.4c-0.4,0.1-0.8,0.1-1.2,0.1c-1.2,0-2.3-0.3-3.3-1c-0.1,0-0.1,0-0.1-0.1c-1.3-0.7-2.1-1.8-2.4-3.3
		c-0.1-0.5-0.2-0.9-0.2-1.4c0-1,0.3-1.9,0.8-2.7c4.3-7.6,6.4-18.1,6.4-31.4v-7c0-1.6,0.6-3,1.7-4.1c1.1-1.1,2.5-1.7,4.1-1.7h69.1
		c1.2,0,2.2,0.4,3,1.2c0.8,0.8,1.2,1.8,1.2,3s-0.4,2.2-1.2,3c-0.8,0.8-1.8,1.2-3,1.2H52.5c-0.5,0-0.7,0.2-0.7,0.7v3.9
		c0,2.6-0.1,5.4-0.3,8.5c0,0.5,0.2,0.7,0.7,0.7h65.7c1.2,0,2.2,0.4,3,1.3c0.8,0.8,1.3,1.9,1.3,3s-0.4,2.2-1.3,3
		c-0.8,0.8-1.9,1.2-3,1.2H115z M109.8,20.4c1.6,0,3,0.6,4.1,1.7c1.1,1.1,1.7,2.5,1.7,4.1v17.8c0,1.6-0.6,3-1.7,4.1
		c-1.1,1.1-2.5,1.7-4.1,1.7H46.9c-1.6,0-2.9-0.6-4.1-1.7c-1.1-1.1-1.7-2.5-1.7-4.1V26.1c0-1.6,0.6-2.9,1.7-4.1
		c1.1-1.1,2.5-1.7,4.1-1.7h13.8c0.5,0,0.7-0.2,0.7-0.7c0-1.5,0.5-2.8,1.6-3.8c1.1-1,2.4-1.6,3.9-1.6h0.7c1.5,0,2.8,0.5,3.8,1.6
		c1,1,1.6,2.3,1.6,3.8c0,0.5,0.2,0.7,0.7,0.7h8.3c0.5,0,0.7-0.2,0.7-0.7c0-1.5,0.5-2.8,1.6-3.8c1.1-1,2.4-1.6,3.9-1.6h0.9
		c1.5,0,2.8,0.5,3.8,1.6c1,1,1.6,2.3,1.6,3.8c0,0.5,0.2,0.7,0.7,0.7H109.8z M52.8,27.6c-0.5,0-0.7,0.2-0.7,0.7v2.5
		c0,0.5,0.2,0.8,0.7,0.8h7.9c0.5,0,0.7-0.3,0.7-0.8v-2.5c0-0.5-0.2-0.7-0.7-0.7H52.8z M52.8,38.4c-0.5,0-0.7,0.3-0.7,0.8v2.5
		c0,0.5,0.2,0.7,0.7,0.7h7.9c0.5,0,0.7-0.2,0.7-0.7v-2.5c0-0.5-0.2-0.8-0.7-0.8H52.8z M110.8,65.3c0.7,0.7,1.1,1.6,1.1,2.6
		c0,1-0.4,1.9-1.1,2.6c-0.7,0.7-1.6,1.1-2.6,1.1H60.6c-1,0-1.9-0.4-2.7-1.1c-0.7-0.7-1.1-1.6-1.1-2.6c0-1,0.4-1.9,1.1-2.6
		c0.7-0.7,1.6-1.1,2.7-1.1h47.6C109.2,64.2,110.1,64.6,110.8,65.3z M69.4,83.5c-0.5,0-0.7,0.3-0.7,0.8v9.4c0,0.5,0.2,0.7,0.7,0.7
		L82.5,93c0.1,0,0.2-0.1,0.3-0.2c0.1-0.1,0-0.3-0.1-0.4c-2.5-2.6-4.6-5.4-6.3-8.3c-0.2-0.5-0.6-0.7-1.1-0.7H69.4z M82.6,28.3
		c0-0.5-0.2-0.7-0.7-0.7h-8.3c-0.5,0-0.7,0.2-0.7,0.7v2.5c0,0.5,0.2,0.8,0.7,0.8h8.3c0.5,0,0.7-0.3,0.7-0.8V28.3z M82.6,39.1
		c0-0.5-0.2-0.8-0.7-0.8h-8.3c-0.5,0-0.7,0.3-0.7,0.8v2.5c0,0.5,0.2,0.7,0.7,0.7h8.3c0.5,0,0.7-0.2,0.7-0.7V39.1z M106.3,83.9
		c0.1-0.1,0.2-0.1,0.1-0.2c0-0.1-0.1-0.1-0.1-0.1H88.8c-0.1,0-0.2,0.1-0.3,0.2c-0.1,0.1,0,0.3,0.1,0.4c1.5,1.6,3.4,3.2,5.6,4.8
		c0.4,0.3,0.8,0.4,1.3,0.2C98.4,87.9,102,86.1,106.3,83.9z M103.5,31.6c0.5,0,0.7-0.3,0.7-0.8v-2.5c0-0.5-0.2-0.7-0.7-0.7h-8.4
		c-0.5,0-0.8,0.2-0.8,0.7v2.5c0,0.5,0.3,0.8,0.8,0.8H103.5z M103.5,42.4c0.5,0,0.7-0.2,0.7-0.7v-2.5c0-0.5-0.2-0.8-0.7-0.8h-8.4
		c-0.5,0-0.8,0.3-0.8,0.8v2.5c0,0.5,0.3,0.7,0.8,0.7H103.5z"/>
	<path fill="#2B8231" d="M214.6,73.5c0.8-0.6,1.7-0.9,2.6-0.8c1,0,1.8,0.4,2.5,1l1.8,1.5c1,0.8,1.5,1.8,1.5,3c0,1.6-0.6,2.7-1.9,3.5
		c-4,2.4-8.4,4.9-13.3,7.4c-0.1,0.1-0.2,0.2-0.2,0.3c0,0.1,0.1,0.2,0.2,0.3c5.1,2,10.8,3.5,16.9,4.6c1.2,0.2,2,0.8,2.4,2
		c0.1,0.5,0.2,0.9,0.2,1.3c0,0.7-0.2,1.4-0.7,2c-0.2,0.3-0.4,0.7-0.6,1c-1,1.4-2.2,2.5-3.8,3.3c-1,0.5-2.1,0.7-3.1,0.7
		c-0.5,0-1,0-1.6-0.1c-8.5-2-15.7-4.8-21.8-8.6c-7.2-4.5-12.9-10.5-17.2-18c-0.3-0.5-0.7-0.7-1.2-0.7h-10c-0.5,0-0.7,0.3-0.7,0.8
		v13.3c0,0.5,0.2,0.7,0.7,0.6l15.2-1.3c0.2-0.1,0.4-0.1,0.5-0.1c1.2,0,2.3,0.4,3.2,1.3c1.1,1,1.7,2.2,1.7,3.7c0,1.4-0.5,2.7-1.5,3.8
		s-2.2,1.7-3.7,1.9c-11.8,1.2-22.2,2.1-31.3,2.9c-0.2,0-0.4,0-0.5,0c-1.4,0-2.6-0.4-3.6-1.3c-1.2-0.9-2-2.1-2.1-3.7
		c-0.1-0.3-0.1-0.6-0.1-0.9c0-1.1,0.4-2.1,1.1-3.1c1-1.1,2.2-1.7,3.6-1.9c1.3-0.1,2.7-0.2,4.3-0.3c0.5-0.1,0.7-0.4,0.7-0.9V45.3
		c0-0.2-0.1-0.3-0.2-0.4c-0.1-0.1-0.3-0.1-0.5,0c-1.8,1-3.4,1.9-5,2.6c-0.8,0.4-1.7,0.6-2.5,0.6c-0.7,0-1.3-0.1-1.9-0.3
		c-1.6-0.5-2.8-1.5-3.7-2.8c-0.1-0.1-0.2-0.3-0.3-0.4c-0.6-0.8-0.9-1.7-0.9-2.6c0-0.4,0.1-0.8,0.2-1.2c0.3-1.4,1.1-2.3,2.3-2.9
		c6.3-2.9,12.3-6.4,18.1-10.4c5.3-3.8,9.8-7.5,13.4-11.2c2.7-2.9,5.9-4.4,9.5-4.4h0.4c3.6,0,6.9,1.4,9.8,4.2
		c4.6,4.5,9.8,8.5,15.6,12.2s11.6,6.6,17.6,8.9c1.3,0.5,2.1,1.4,2.5,2.7c0.1,0.5,0.1,0.9,0.1,1.3c0,0.8-0.3,1.7-0.8,2.4
		c-0.3,0.4-0.5,0.8-0.8,1.3c-0.9,1.4-2.1,2.3-3.7,2.7c-0.7,0.2-1.3,0.3-1.9,0.3c-0.9,0-1.8-0.2-2.6-0.6c-1.4-0.7-3.1-1.6-4.9-2.5
		c-0.2-0.1-0.4,0-0.5,0c-0.1,0.1-0.2,0.2-0.2,0.3v28.2C214.2,73.6,214.3,73.6,214.6,73.5z M190.6,38.6c0,0.5,0.3,0.8,0.8,0.8H205
		c0.1,0,0.2,0,0.2-0.1c0-0.1,0-0.2,0-0.2c-8.5-5.3-15.3-10.8-20.4-16.3c-0.3-0.4-0.7-0.4-1,0c-4.8,5.5-11.4,11-19.7,16.3
		c-0.1,0.1-0.1,0.1,0,0.2c0,0.1,0.1,0.1,0.1,0.1h13.5c0.5,0,0.7-0.3,0.7-0.8v-1.2c0-1.6,0.6-2.9,1.7-4.1c1.1-1.1,2.5-1.7,4.1-1.7
		h0.7c1.6,0,2.9,0.6,4.1,1.7c1.1,1.1,1.7,2.5,1.7,4.1V38.6z M167.5,48.6c-0.5,0-0.7,0.3-0.7,0.8v3.7c0,0.5,0.2,0.8,0.7,0.8h34
		c0.5,0,0.7-0.3,0.7-0.8v-3.7c0-0.5-0.2-0.8-0.7-0.8H167.5z M167.5,62.4c-0.5,0-0.7,0.2-0.7,0.7v4.1c0,0.5,0.2,0.7,0.7,0.7h34
		c0.5,0,0.7-0.2,0.7-0.7v-4.1c0-0.5-0.2-0.7-0.7-0.7H167.5z M208.6,77.5c0.1-0.1,0.1-0.1,0-0.2c0-0.1-0.1-0.1-0.1-0.1H191
		c-0.1,0-0.2,0.1-0.3,0.2c-0.1,0.1,0,0.3,0.1,0.4c1.5,1.9,3.5,3.8,6.2,5.9c0.4,0.3,0.8,0.4,1.3,0.1
		C201.8,81.7,205.3,79.7,208.6,77.5z"/>
	<path fill="#2B8231" d="M306.9,22.6c4.8,0.1,7.2,2.1,7.2,6.1c-0.1,4-2.5,6.1-7.2,6.1h-21.7v60.6c-0.1,4.8-2.1,7.2-6.1,7.2
		c-4-0.1-6.1-2.5-6.1-7.2V34.7h-21.8c-4.9-0.1-7.3-2.1-7.3-6.1c0-4,2.4-6.1,7.3-6.1H306.9z"/>
	<path fill="#2B8231" d="M327.7,30c-0.8-2.9-0.9-5.1-0.1-6.6c0.8-1.6,2.1-2.6,3.7-3c1.6-0.5,3.2-0.3,4.8,0.6
		c1.6,0.8,2.8,2.7,3.6,5.5L361.3,84l23.2-57.6c0.9-2.7,2.1-4.5,3.5-5.3c1.6-0.8,3.1-0.9,4.7-0.5c1.6,0.6,2.7,1.6,3.5,3
		c0.8,1.6,0.7,3.7-0.1,6.4L368,97.6c-0.5,1-1.3,2.1-2.3,3.1c-1.2,1.2-2.7,1.8-4.3,1.8c-1.8,0-3.3-0.6-4.5-1.8
		c-1.1-1-1.9-2.1-2.2-3.1L327.7,30z"/>
</g>
</svg>
