<?xml version="1.0" encoding="utf-8"?>
<!-- Generator: Adobe Illustrator 16.0.0, SVG Export Plug-In . SVG Version: 6.00 Build 0)  -->
<!DOCTYPE svg PUBLIC "-//W3C//DTD SVG 1.1//EN" "http://www.w3.org/Graphics/SVG/1.1/DTD/svg11.dtd">
<svg version="1.1" id="圖層_1" xmlns="http://www.w3.org/2000/svg" xmlns:xlink="http://www.w3.org/1999/xlink" x="0px" y="0px"
	 width="100%" height="100%" viewBox="0 0 425 120" enable-background="new 0 0 425 120" xml:space="preserve">
<g>
	<path fill="#2B8231" d="M19.7,19.9c0.5-1.6,1.5-2.7,2.9-3.4c0.8-0.5,1.7-0.7,2.6-0.7c0.6,0,1.1,0.1,1.7,0.2
		c1.6,0.5,2.7,1.4,3.4,2.7c0.4,0.8,0.6,1.6,0.6,2.4c0,0.7-0.1,1.3-0.3,1.9c-1.6,4.6-3.3,8.7-5,12.4c-0.2,0.5-0.3,0.9-0.3,1.4v65
		c0,1.6-0.6,3-1.7,4.1c-1.1,1.1-2.5,1.7-4.1,1.7h-0.3c-1.6,0-2.9-0.6-4.1-1.7c-1.1-1.1-1.7-2.5-1.7-4.1V58.5c0-0.1,0-0.2-0.1-0.2
		c-0.1,0-0.2,0-0.2,0c-0.7,1-1.4,2.1-2.1,3c-0.7,0.8-1.5,1.3-2.4,1.3c-0.2,0-0.4,0-0.6-0.1c-1.2-0.2-2.1-0.9-2.6-2.1
		c-0.3-0.8-0.7-1.6-1-2.3c-0.7-1.2-1-2.6-1-4c0-0.3,0-0.6,0.1-0.9c0.1-1.8,0.7-3.3,1.8-4.7C11.1,40.4,15.9,30.9,19.7,19.9z
		 M71.2,77.8c-0.5,0-0.7,0.2-0.7,0.7v14.9c0,0.5,0.2,0.8,0.7,0.8c2,0.2,4.1,0.3,6.3,0.3h14.4c1.3,0,2.3,0.6,3,1.7
		c0.5,0.7,0.7,1.5,0.7,2.2c0,0.4-0.1,0.8-0.2,1.3c0,0.1,0,0.1,0,0.2c-0.5,1.6-1.4,3-2.7,4.1c-1.3,1.1-2.8,1.6-4.5,1.6H76.5
		c-7.4,0-13.7-1-18.8-2.9c-5.1-2-9.5-5.5-13-10.6c-0.1-0.1-0.3-0.2-0.4-0.1c-0.1,0-0.2,0.1-0.3,0.2c-1.6,4.2-3.5,8-5.7,11.2
		c-0.9,1.2-2.2,2-3.8,2.1c-0.2,0-0.4,0-0.6,0c-1.4,0-2.6-0.4-3.7-1.3l-0.1-0.1c-1.2-0.8-1.9-2-2.1-3.5C28,100.3,28,100,28,99.8
		c0-1.2,0.4-2.2,1.1-3.2c4.6-6.5,7.6-16,9.2-28.4c0.2-1.6,0.9-2.9,2.1-3.9c1-0.8,2.2-1.3,3.5-1.3c0.2,0,0.4,0,0.7,0
		c1.6,0.1,2.8,0.8,3.8,2.1c0.8,1,1.2,2.1,1.2,3.3c0,0.3,0,0.6,0,0.9c-0.4,2.5-0.8,5-1.3,7.5c-0.1,0.5-0.1,0.9,0.1,1.4
		c2.2,5.3,5.4,9.3,9.6,12c0.1,0.1,0.3,0.1,0.4,0c0.1-0.1,0.2-0.2,0.2-0.4V55.5c0-0.5-0.3-0.8-0.8-0.8H43.9c-1.6,0-2.9-0.6-4.1-1.7
		c-1.1-1.1-1.7-2.5-1.7-4.1V24.3c0-1.6,0.6-3,1.7-4.1c1.1-1.1,2.5-1.7,4.1-1.7h40.5c1.6,0,2.9,0.6,4.1,1.7c1.1,1.1,1.7,2.5,1.7,4.1
		V49c0,1.6-0.6,3-1.7,4.1c-1.1,1.1-2.5,1.7-4.1,1.7H71.2c-0.5,0-0.7,0.3-0.7,0.8V66c0,0.5,0.2,0.7,0.7,0.7h14.8c1.6,0,2.9,0.6,4,1.7
		c1.1,1.1,1.6,2.4,1.6,4c0,1.5-0.5,2.8-1.6,3.9s-2.4,1.6-4,1.6H71.2z M50.2,28.9c-0.5,0-0.7,0.3-0.7,0.8v14.1c0,0.5,0.2,0.8,0.7,0.8
		h27.2c0.5,0,0.8-0.3,0.8-0.8V29.7c0-0.5-0.3-0.8-0.8-0.8H50.2z"/>
	<path fill="#2B8231" d="M137.8,66.3c-0.5,0-0.8,0.3-0.8,0.8v23.4c0,0.5,0.2,0.7,0.7,0.6c2-0.3,4.9-0.8,8.8-1.5
		c0.3-0.1,0.5-0.1,0.8-0.1c1,0,2,0.3,2.7,1c1.2,0.9,1.8,2.1,1.8,3.7c0,1.2-0.4,2.4-1.3,3.4c-0.8,1.1-2,1.8-3.4,2.1
		c-6.8,1.3-16,2.9-27.5,4.9c-0.3,0.1-0.7,0.1-1,0.1c-1.1,0-2.1-0.3-3.1-1c-1.2-0.8-2-2-2.3-3.5c-0.1-0.4-0.1-0.7-0.1-1.1
		c0-1,0.3-1.9,0.9-2.8c0.8-1.2,2-1.9,3.4-2.1c1-0.2,2.6-0.4,4.6-0.7s3.4-0.5,4.1-0.5c0.5-0.1,0.8-0.4,0.8-0.9v-25
		c0-0.5-0.3-0.8-0.8-0.8h-7.8c-1.4,0-2.6-0.5-3.6-1.5c-1-1-1.5-2.2-1.5-3.6c0-1.4,0.5-2.6,1.5-3.6c1-1,2.2-1.5,3.6-1.5h7.8
		c0.5,0,0.8-0.3,0.8-0.8v-5.9c0-0.5-0.3-0.7-0.8-0.7h-5.7c-0.8,0-1.4-0.3-2-0.8c-0.6-0.6-0.8-1.2-0.8-1.9v-0.3
		c-0.5,0.4-0.8,0.4-1.2-0.1c-0.8-1.2-1.7-2.3-2.8-3.5c-1-1.1-1.5-2.4-1.5-3.8c0-1.4,0.5-2.6,1.5-3.6c4.4-4.6,8.2-10,11.2-16.1
		c0.6-1.3,1.6-2.3,2.8-3.1c1.2-0.8,2.5-1.2,4-1.2c3.3,0,6.1,1,8.4,3c3.9,3.5,7.2,6.7,10,9.9c1.2,1.2,1.8,2.7,1.8,4.5
		s-0.5,3.3-1.6,4.6l-2.4,3.3c-0.3,0.4-0.5,0.8-0.5,1.3v2.1c0,1.6-0.6,2.9-1.7,4.1c-1.1,1.1-2.5,1.7-4.1,1.7h-3.5
		c-0.5,0-0.8,0.2-0.8,0.7v5.9c0,0.5,0.3,0.8,0.8,0.8h7.1c1.4,0,2.6,0.5,3.6,1.5s1.5,2.2,1.5,3.6c0,1.4-0.5,2.6-1.5,3.6
		s-2.2,1.5-3.6,1.5H137.8z M114.8,76c-0.1-0.3-0.1-0.7-0.1-1c0-0.7,0.2-1.4,0.6-2.1c0.5-1,1.3-1.6,2.3-1.9c0.4-0.1,0.8-0.1,1.2-0.1
		c0.6,0,1.3,0.2,2,0.6c1,0.5,1.6,1.3,2,2.4c0.8,3.1,1.5,6.1,2.1,9c0.1,0.3,0.1,0.6,0.1,0.9c0,0.8-0.3,1.7-0.8,2.4
		c-0.7,1-1.7,1.7-2.8,2.1c-1,0.3-2,0.2-2.9-0.5c-0.9-0.7-1.5-1.5-1.7-2.6C116.2,82.4,115.6,79.3,114.8,76z M124.5,38.5
		c-0.1,0.1-0.2,0.3-0.1,0.4c0.1,0.1,0.2,0.2,0.3,0.2h19.1c0.2,0,0.3-0.1,0.4-0.2c0.1-0.2,0.1-0.3,0-0.4c-3.3-4.6-6.8-8.7-10.4-12.2
		c-0.4-0.4-0.7-0.4-1,0.1C130.5,30.5,127.7,34.5,124.5,38.5z M146.4,84.7c-0.3,1-1,1.7-1.9,2.1c-0.9,0.5-1.9,0.6-2.9,0.3
		c-1-0.3-1.7-0.9-2.2-1.9c-0.3-0.6-0.5-1.2-0.5-1.8c0-0.3,0.1-0.7,0.2-1.1c0.8-2.9,1.4-5.8,2-8.7c0.2-1.2,0.8-2.2,1.9-2.9
		c0.7-0.5,1.5-0.7,2.3-0.7c0.3,0,0.6,0,1,0.1c1.2,0.3,2.1,1,2.7,2.1c0.4,0.7,0.6,1.4,0.6,2.1c0,0.4-0.1,0.8-0.2,1.3
		C147.7,80.9,146.7,83.9,146.4,84.7z M194.5,45.7c1.6,0,3,0.6,4.1,1.7c1.1,1.1,1.7,2.5,1.7,4.1V95c0,2.9-0.3,5.1-1,6.8
		c-0.7,1.7-1.9,2.9-3.6,3.9c-2.1,1.1-5.2,1.8-9.3,2c-0.1,0-0.2,0-0.3,0c-1.4,0-2.8-0.5-4-1.5c-1.2-1-2.1-2.4-2.6-4
		c-0.1-0.2-0.1-0.4-0.2-0.6c-0.1-0.5-0.2-0.9-0.2-1.4c0-0.7,0.2-1.4,0.7-2.1c0.7-1.1,1.7-1.7,3-1.7l1.9,0.1c0.5,0,0.9,0,1.5,0
		c0.5,0,0.8,0,1,0c0.6,0,1.1-0.1,1.4-0.3c0.3-0.2,0.4-0.6,0.4-1.2v-5.5c0-0.5-0.2-0.7-0.7-0.7h-20.7c-0.5,0-0.8,0.2-0.8,0.7v12.6
		c0,1.6-0.6,2.9-1.7,4c-1.1,1.1-2.4,1.7-4,1.7s-2.9-0.6-4.1-1.7c-1.1-1.1-1.7-2.4-1.7-4V49c0-0.9,0.3-1.7,1-2.3c0.6-0.6,1.4-1,2.3-1
		c0.1,0,0.1-0.1,0.1-0.2c-1-0.8-2.3-1.6-3.8-2.5c-1.3-0.8-2.1-2-2.4-3.5c-0.1-0.4-0.1-0.8-0.1-1.3c0-1,0.3-2,0.8-2.9
		c1.9-3.1,3.5-6.6,4.8-10.5c0.5-1.5,1.5-2.6,2.8-3.4c0.9-0.6,1.9-0.9,2.9-0.9c0.4,0,0.8,0.1,1.3,0.2c1.5,0.3,2.6,1.1,3.4,2.4
		c0.5,0.8,0.7,1.6,0.7,2.4c0,0.6-0.1,1.1-0.3,1.7c-2.5,7.1-5.4,13.1-8.7,18c-0.1,0.1-0.1,0.3,0,0.4c0.1,0.1,0.2,0.2,0.3,0.2h10.6
		c0.5,0,0.7-0.2,0.7-0.7V20.1c0-1.6,0.6-3,1.7-4.1c1.1-1.1,2.5-1.7,4.1-1.7c1.6,0,2.9,0.6,4.1,1.7c1.1,1.1,1.7,2.5,1.7,4.1V45
		c0,0.5,0.3,0.7,0.8,0.7H194.5z M188.8,56.8c0-0.5-0.2-0.7-0.7-0.7h-20.7c-0.5,0-0.8,0.2-0.8,0.7v4.8c0,0.5,0.3,0.7,0.8,0.7h20.7
		c0.5,0,0.7-0.2,0.7-0.7V56.8z M166.6,78.1c0,0.5,0.3,0.7,0.8,0.7h20.7c0.5,0,0.7-0.2,0.7-0.7v-5.4c0-0.5-0.2-0.7-0.7-0.7h-20.7
		c-0.5,0-0.8,0.2-0.8,0.7V78.1z M202.8,35c0.4,0.8,0.6,1.6,0.6,2.4c0,0.7-0.1,1.3-0.4,2.1c-0.6,1.5-1.6,2.6-3,3.4
		c-0.8,0.3-1.6,0.5-2.3,0.5c-0.6,0-1.2-0.1-1.9-0.4c-1.4-0.5-2.4-1.5-3-2.9c-1.7-3.8-3.9-7.9-6.5-12.3c-0.5-0.8-0.7-1.6-0.7-2.4
		c0-0.5,0.1-0.9,0.2-1.5c0.4-1.3,1.2-2.3,2.4-2.9c0.9-0.4,1.8-0.6,2.7-0.6c0.5,0,1,0.1,1.6,0.2c1.5,0.4,2.7,1.2,3.5,2.5
		C198.7,27.4,201,31.3,202.8,35z"/>
	<path fill="#2B8231" d="M306.1,77.1c1.3,0,2.4,0.5,3.3,1.4c0.9,0.9,1.4,2,1.4,3.3c0,1.3-0.5,2.4-1.4,3.3c-0.9,0.9-2,1.4-3.3,1.4
		h-16.9c-0.5,0-0.7,0.3-0.7,0.8v8.9c0,2.9-0.4,5-1.1,6.5c-0.7,1.5-2.1,2.6-4.1,3.4c-2.5,0.9-6.4,1.4-11.7,1.6h-0.1
		c-1.5,0-2.9-0.5-4.1-1.5c-1.2-1-2.1-2.2-2.6-3.8c-0.1-0.5-0.2-0.9-0.2-1.3c0-0.8,0.2-1.5,0.7-2.1c0.7-1,1.7-1.6,2.9-1.6h0.1
		c2,0.1,4.1,0.1,6.5,0.1c0.8-0.1,1.4-0.2,1.7-0.4c0.3-0.2,0.4-0.7,0.4-1.3v-8.5c0-0.5-0.3-0.8-0.8-0.8h-26.7c-0.1,0-0.2,0-0.2,0.1
		c0,0.1,0,0.2,0,0.2c2.2,1.6,4.2,3.2,6.1,4.8c1.1,1,1.7,2.2,1.7,3.6c0,1.7-0.7,3.1-2,4.2H255c-1.1,0.9-2.3,1.4-3.7,1.4
		c-0.1,0-0.3,0-0.4,0c-1.6-0.1-2.9-0.7-4.1-1.9c-2.1-2-4.6-4.1-7.2-6.2c-1-0.8-1.6-1.8-1.6-3.1c0-1.1,0.5-2.1,1.4-2.8
		c0.1-0.1,0.1-0.1,0-0.2c0-0.1-0.1-0.1-0.1-0.1h-14.7c-1.3,0-2.4-0.5-3.3-1.4c-0.9-0.9-1.4-2-1.4-3.3c0-1.3,0.5-2.4,1.4-3.3
		c0.9-0.9,2-1.4,3.3-1.4h51.7c0.5,0,0.8-0.3,0.8-0.8v-2.2c0-0.5-0.3-0.7-0.8-0.7c-24.7,0.5-40.6,0.8-47.7,0.8c-1.2,0-2.2-0.4-3-1.3
		c-0.8-0.8-1.3-1.9-1.3-3.1c0-1.1,0.4-2.1,1.1-2.8c0.8-0.8,1.8-1.3,2.9-1.3h4.4c2.3,0,5.6,0,9.8,0c8.4,0,13.8,0,16.1,0
		c0.5,0,0.8-0.2,0.8-0.7v-2.1c0-0.5-0.3-0.8-0.8-0.8h-22.3c-1.6,0-3-0.6-4.1-1.7c-1.1-1.1-1.7-2.5-1.7-4.1V39c0-1.6,0.6-2.9,1.7-4.1
		c1.1-1.1,2.5-1.7,4.1-1.7h22.3c0.5,0,0.8-0.2,0.8-0.7v-2.1c0-0.5-0.3-0.8-0.8-0.8h-31.4c-1.2,0-2.3-0.4-3.2-1.3s-1.3-1.9-1.3-3.2
		c0-1.2,0.4-2.3,1.3-3.2s1.9-1.3,3.2-1.3h31.4c0.5,0,0.8-0.2,0.8-0.7c0-1.6,0.5-2.9,1.6-4s2.4-1.6,4-1.6h0.4c1.6,0,2.9,0.5,4,1.6
		s1.6,2.4,1.6,4c0,0.5,0.3,0.7,0.8,0.7h31.3c1.2,0,2.3,0.4,3.2,1.3s1.3,1.9,1.3,3.2c0,1.2-0.4,2.3-1.3,3.2s-1.9,1.3-3.2,1.3h-31.3
		c-0.5,0-0.8,0.3-0.8,0.8v2.1c0,0.5,0.3,0.7,0.8,0.7h23.7c1.6,0,2.9,0.6,4.1,1.7c1.1,1.1,1.7,2.5,1.7,4.1v17.3c0,1.6-0.6,3-1.7,4.1
		c-1.1,1.1-2.5,1.7-4.1,1.7H295c-0.1,0-0.1,0-0.1,0.1c0,0.1,0,0.2,0.1,0.2c2.9,1.5,5.6,3.1,8.3,4.9c1,0.7,1.6,1.7,1.6,3
		c0,1.1-0.4,2-1.3,2.7c-1,0.9-2.3,1.4-3.7,1.4c-1.4,0-2.6-0.4-3.7-1.3c-0.3-0.2-0.7-0.3-1.1-0.3l-6,0.2c-0.5,0-0.7,0.2-0.7,0.7v2.5
		c0,0.5,0.2,0.8,0.7,0.8H306.1z M242.3,40.5c-0.5,0-0.8,0.2-0.8,0.7v2.2c0,0.5,0.3,0.8,0.8,0.8h16.2c0.5,0,0.8-0.3,0.8-0.8v-2.2
		c0-0.5-0.3-0.7-0.8-0.7H242.3z M241.5,54.1c0,0.5,0.3,0.7,0.8,0.7h16.2c0.5,0,0.8-0.2,0.8-0.7v-2.3c0-0.5-0.3-0.8-0.8-0.8h-16.2
		c-0.5,0-0.8,0.3-0.8,0.8V54.1z M289.5,41.2c0-0.5-0.3-0.7-0.8-0.7h-17.1c-0.5,0-0.8,0.2-0.8,0.7v2.2c0,0.5,0.3,0.8,0.8,0.8h17.1
		c0.5,0,0.8-0.3,0.8-0.8V41.2z M270.8,54.1c0,0.5,0.3,0.7,0.8,0.7h17.1c0.5,0,0.8-0.2,0.8-0.7v-2.3c0-0.5-0.3-0.8-0.8-0.8h-17.1
		c-0.5,0-0.8,0.3-0.8,0.8V54.1z M271.6,62.1c-0.5,0-0.8,0.3-0.8,0.8v2c0,0.5,0.3,0.8,0.8,0.8l11.3-0.1c0.1,0,0.1-0.1,0.1-0.2
		c-0.2-0.1-0.7-0.3-1.6-0.7c-0.5-0.3-0.7-0.6-0.8-1.1s0.1-0.9,0.5-1.2l-0.1-0.2H271.6z"/>
	<path fill="#2B8231" d="M413.4,93c1.5,0,2.8,0.5,3.8,1.6c1,1,1.6,2.3,1.6,3.8s-0.5,2.7-1.6,3.8c-1,1-2.3,1.6-3.8,1.6h-70.2
		c-0.3,0-0.4,0.2-0.4,0.5c0,1-0.3,1.8-1,2.5s-1.5,1-2.6,1h-2.2c-1.6,0-2.9-0.6-4.1-1.7c-1.1-1.1-1.7-2.5-1.7-4.1V23.4
		c0-1.6,0.6-2.9,1.7-4.1c1.1-1.1,2.5-1.7,4.1-1.7h74c1.4,0,2.7,0.5,3.7,1.6c1,1,1.5,2.3,1.5,3.8s-0.5,2.7-1.5,3.7
		c-1,1-2.2,1.5-3.7,1.5h-67.5c-0.5,0-0.7,0.3-0.7,0.8v63.3c0,0.5,0.2,0.8,0.7,0.8H413.4z M354.5,88c-1.6,0-2.9-0.6-4.1-1.7
		c-1.1-1.1-1.7-2.5-1.7-4.1V66.9c0-1.6,0.6-3,1.7-4.1c1.1-1.1,2.5-1.7,4.1-1.7h16.1c1.6,0,2.9,0.6,4.1,1.7c1.1,1.1,1.7,2.5,1.7,4.1
		v15.3c0,1.6-0.6,3-1.7,4.1c-1.1,1.1-2.5,1.7-4.1,1.7H354.5z M359.1,69.1c-0.5,0-0.7,0.2-0.7,0.7v9.5c0,0.5,0.2,0.7,0.7,0.7h6.3
		c0.5,0,0.7-0.2,0.7-0.7v-9.5c0-0.5-0.2-0.7-0.7-0.7H359.1z M392.4,32.9c1.6,0,3,0.6,4.1,1.7c1.1,1.1,1.7,2.5,1.7,4.1V51
		c0,1.6-0.6,2.9-1.7,4.1c-1.1,1.1-2.5,1.7-4.1,1.7h-27.6c-1.6,0-3-0.6-4.1-1.7c-1.1-1.1-1.7-2.5-1.7-4.1V38.6c0-1.6,0.6-2.9,1.7-4.1
		c1.1-1.1,2.5-1.7,4.1-1.7H392.4z M385.7,48.9c0.5,0,0.7-0.3,0.7-0.8v-6.6c0-0.5-0.2-0.8-0.7-0.8h-14.9c-0.5,0-0.8,0.3-0.8,0.8v6.6
		c0,0.5,0.3,0.8,0.8,0.8H385.7z M403.2,61.1c1.6,0,2.9,0.6,4.1,1.7c1.1,1.1,1.7,2.5,1.7,4.1v15.3c0,1.6-0.6,3-1.7,4.1
		c-1.1,1.1-2.5,1.7-4.1,1.7h-16.7c-1.6,0-3-0.6-4.1-1.7c-1.1-1.1-1.7-2.5-1.7-4.1V66.9c0-1.6,0.6-3,1.7-4.1c1.1-1.1,2.5-1.7,4.1-1.7
		H403.2z M397.9,80c0.5,0,0.7-0.2,0.7-0.7v-9.5c0-0.5-0.2-0.7-0.7-0.7h-6.6c-0.5,0-0.8,0.2-0.8,0.7v9.5c0,0.5,0.3,0.7,0.8,0.7H397.9
		z"/>
</g>
</svg>
